<svg xmlns="http://www.w3.org/2000/svg" viewBox="0 0 19.97 19.487"><path d="M14.9 19.477l-.42-2a3.93 3.93 0 003-3c.322-1.472.486-2.973.49-4.48 0-1.516-.16-3.028-.48-4.51a3.93 3.93 0 00-3-3 21.43 21.43 0 00-9 0 3.93 3.93 0 00-3 3 21.43 21.43 0 000 9 3.93 3.93 0 003 3l-.42 2a6 6 0 01-4.55-4.55 23.63 23.63 0 010-9.86A6 6 0 015.04.517c3.25-.69 6.61-.69 9.86 0a6 6 0 014.55 4.55 23.92 23.92 0 01.52 4.93 23.92 23.92 0 01-.52 4.93 6 6 0 01-4.55 4.55zm-3.43-2a1.5 1.5 0 100 .02zm-.5-3.48v-1.11a4.5 4.5 0 10-5.5-4.39 1 1 0 102 0 2.5 2.5 0 112.5 2.5 1 1 0 00-1 1v2a1 1 0 102 0z" fill="currentColor"/></svg>