<svg xmlns="http://www.w3.org/2000/svg" viewBox="0 0 20 20"><path d="M14 11h-3v3a1 1 0 11-2 0v-3H6a1 1 0 110-2h3V6a1 1 0 112 0v3h3a1 1 0 110 2zM10 0C8.2 0 6.445.192 4.755.558A5.472 5.472 0 00.558 4.754 24.762 24.762 0 000 10c0 1.8.192 3.555.558 5.245a5.472 5.472 0 004.196 4.196C6.445 19.808 8.2 20 10 20c1.8 0 3.555-.192 5.246-.559a5.473 5.473 0 004.196-4.196A24.76 24.76 0 0020 10c0-1.8-.192-3.555-.558-5.245A5.473 5.473 0 0015.246.559 24.711 24.711 0 0010 0zm0 2c1.627 0 3.249.173 4.823.513a3.487 3.487 0 012.664 2.664 22.886 22.886 0 010 9.646 3.487 3.487 0 01-2.664 2.664 22.886 22.886 0 01-9.646 0 3.486 3.486 0 01-2.664-2.664 22.886 22.886 0 010-9.646 3.484 3.484 0 012.664-2.664A22.886 22.886 0 0110 2z" fill="currentColor"/></svg>