<svg xmlns="http://www.w3.org/2000/svg" viewBox="0 0 40 60"><defs><linearGradient id="svg_card_clubs_10_1" x1="20" y1="24" x2="20" y2="55" gradientUnits="userSpaceOnUse"><stop offset="0" stop-color="#1d1b40"/><stop offset=".3" stop-color="#1c1a3d"/><stop offset=".53" stop-color="#171634"/><stop offset=".73" stop-color="#100f23"/><stop offset=".92" stop-color="#06050d"/><stop offset="1"/></linearGradient></defs><rect width="40" height="60" rx="4" fill="#fff"/><path d="M6.24 14.56V13h1.85V6.59L6 7.91l-.79-1.39 2.88-1.76H10V13h1.54v1.58zm13.89-4.9c0 3.43-1.68 5-3.78 5s-3.77-1.61-3.77-5 1.68-5 3.77-5 3.78 1.57 3.78 5zm-5.5 0c0 2 .45 3.24 1.72 3.24s1.74-1.21 1.74-3.24-.45-3.23-1.74-3.23-1.72 1.2-1.72 3.23z" fill="#1d1b40"/><path d="M23 52a3 3 0 11-3-3 3 3 0 013 3zm3.31-18a7 7 0 10-12.62 0A7 7 0 1020 44.59 7 7 0 1026.31 34z" fill="url(#svg_card_clubs_10_1)"/></svg>
