<svg xmlns="http://www.w3.org/2000/svg" viewBox="0 0 40 60"><defs><linearGradient id="Nepojmenovaný_přechod_17" x1="20" y1="24" x2="20" y2="55" gradientUnits="userSpaceOnUse"><stop offset="0" stop-color="#1d1b40"/><stop offset=".3" stop-color="#1c1a3d"/><stop offset=".53" stop-color="#171634"/><stop offset=".73" stop-color="#100f23"/><stop offset=".92" stop-color="#06050d"/><stop offset="1"/></linearGradient><style>.cls-2{fill:#1d1b40}</style></defs><g id="Vrstva_2"><g id="icon"><rect width="40" height="60" rx="4" fill="#fff"/><path class="cls-2" d="M8.56 8.83c1.71 0 2.13-.51 2.13-1.44 0-.78-.35-1.27-1.5-1.27s-1.57.43-1.68 1.4h-1.8c.07-1.84 1.59-2.9 3.58-2.9 2.18 0 3.43 1.06 3.43 2.56s-.86 2.15-2.4 2.34c1.64.14 2.52.93 2.52 2.34 0 1.71-1.48 2.84-3.67 2.84-2 0-3.48-1.1-3.55-2.92h1.82c.12 1 .64 1.43 1.79 1.43s1.63-.58 1.63-1.42-.49-1.53-2.3-1.53z"/><path d="M23 52a3 3 0 11-3-3 3 3 0 013 3zm3.31-18a7 7 0 10-12.62 0A7 7 0 1020 44.59 7 7 0 1026.31 34z" fill="url(#Nepojmenovaný_přechod_17)"/><circle class="cls-2" cx="30.5" cy="13.5" r="1"/><path class="cls-2" d="M32.5 7.5a2.58 2.58 0 00-.29 0 2 2 0 10-3.42 0 2.58 2.58 0 00-.29 0 2 2 0 000 4 2.21 2.21 0 002-1.42 2.25 2.25 0 002 1.42 2 2 0 000-4z"/></g></g></svg>
