<svg xmlns="http://www.w3.org/2000/svg" viewBox="0 0 40 60"><defs><linearGradient id="svg_card_clubs_4_1" x1="20" y1="24" x2="20" y2="55" gradientUnits="userSpaceOnUse"><stop offset="0" stop-color="#1d1b40"/><stop offset=".3" stop-color="#1c1a3d"/><stop offset=".53" stop-color="#171634"/><stop offset=".73" stop-color="#100f23"/><stop offset=".92" stop-color="#06050d"/><stop offset="1"/></linearGradient></defs><rect width="40" height="60" rx="4" fill="#fff"/><path fill="#1d1b40" d="M9.79 14.56v-2.5H5.52v-1.59l3.86-5.71h2.33v5.71H13v1.59h-1.29v2.5zm0-7.87l-2.58 3.78h2.58z"/><path d="M23 52a3 3 0 11-3-3 3 3 0 013 3zm3.31-18a7 7 0 10-12.62 0A7 7 0 1020 44.59 7 7 0 1026.31 34z" fill="url(#svg_card_clubs_4_1)"/><path fill="#1d1b40" d="M31.5 13.5a1 1 0 11-1-1 1 1 0 011 1zm3-4a2 2 0 01-2 2 2.25 2.25 0 01-2-1.42 2.21 2.21 0 01-2 1.42 2 2 0 010-4 2.58 2.58 0 01.29 0 2 2 0 113.42 0 2.58 2.58 0 01.29 0 2 2 0 012 2z"/></svg>
