<svg xmlns="http://www.w3.org/2000/svg" viewBox="0 0 40 60"><defs><linearGradient id="a" x1="20" y1="24" x2="20" y2="55" gradientUnits="userSpaceOnUse"><stop offset="0" stop-color="#1d1b40"/><stop offset=".3" stop-color="#1c1a3d"/><stop offset=".53" stop-color="#171634"/><stop offset=".73" stop-color="#100f23"/><stop offset=".92" stop-color="#06050d"/><stop offset="1"/></linearGradient></defs><rect width="40" height="60" rx="4" fill="#fff"/><path fill="#1d1b40" d="M12.21 4.76v1.58H7.94l-.11 2a9.69 9.69 0 011.61-.15c1.93 0 3.45 1.13 3.45 3.11a3.45 3.45 0 01-3.77 3.4c-2 0-3.36-1-3.42-2.94h1.72c.1 1 .62 1.46 1.75 1.46a1.66 1.66 0 001.74-1.81c0-1.13-.57-1.78-2.06-1.78A17.09 17.09 0 006 9.87l.34-5.11z"/><path d="M23 52a3 3 0 11-3-3 3 3 0 013 3zm3.31-18a7 7 0 10-12.62 0A7 7 0 1020 44.59 7 7 0 1026.31 34z" fill="url(#a)"/><circle fill="#1d1b40" cx="30.5" cy="13.5" r="1"/><path fill="#1d1b40" d="M32.5 7.5a2.58 2.58 0 00-.29 0 2 2 0 10-3.42 0 2.58 2.58 0 00-.29 0 2 2 0 000 4 2.21 2.21 0 002-1.42 2.25 2.25 0 002 1.42 2 2 0 000-4z"/></svg>
