<svg xmlns="http://www.w3.org/2000/svg" viewBox="0 0 40 60"><defs><linearGradient id="a" x1="20" y1="24" x2="20" y2="55" gradientUnits="userSpaceOnUse"><stop offset="0" stop-color="#1d1b40"/><stop offset=".3" stop-color="#1c1a3d"/><stop offset=".53" stop-color="#171634"/><stop offset=".73" stop-color="#100f23"/><stop offset=".92" stop-color="#06050d"/><stop offset="1"/></linearGradient></defs><rect width="40" height="60" rx="4" fill="#fff"/><path fill="#1d1b40" d="M12.87 7.38h-1.78a1.4 1.4 0 00-1.52-1.3c-1.35 0-2 1.14-2.08 3.11a3 3 0 012.34-1.06 2.89 2.89 0 013.1 3 3.4 3.4 0 01-3.59 3.57c-2.43 0-3.81-1.8-3.81-4.91S7 4.62 9.59 4.62a3 3 0 013.28 2.76zm-3.43 5.71c1.11 0 1.6-.74 1.6-1.78s-.41-1.76-1.63-1.76a2.33 2.33 0 00-1.89.94c.1 1.58.65 2.6 1.92 2.6z"/><path d="M23 52a3 3 0 11-3-3 3 3 0 013 3zm3.31-18a7 7 0 10-12.62 0A7 7 0 1020 44.59 7 7 0 1026.31 34z" fill="url(#a)"/><circle fill="#1d1b40" cx="30.5" cy="13.5" r="1"/><path fill="#1d1b40" d="M32.5 7.5a2.58 2.58 0 00-.29 0 2 2 0 10-3.42 0 2.58 2.58 0 00-.29 0 2 2 0 000 4 2.21 2.21 0 002-1.42 2.25 2.25 0 002 1.42 2 2 0 000-4z"/></svg>
