<svg xmlns="http://www.w3.org/2000/svg" viewBox="0 0 40 60"><defs><linearGradient id="Nepojmenovaný_přechod_17" x1="20" y1="24" x2="20" y2="55" gradientUnits="userSpaceOnUse"><stop offset="0" stop-color="#1d1b40"/><stop offset=".3" stop-color="#1c1a3d"/><stop offset=".53" stop-color="#171634"/><stop offset=".73" stop-color="#100f23"/><stop offset=".92" stop-color="#06050d"/><stop offset="1"/></linearGradient><style>.cls-2{fill:#1d1b40}</style></defs><g id="Vrstva_2"><g id="icon"><rect width="40" height="60" rx="4" fill="#fff"/><path class="cls-2" d="M7.14 14.56l3.62-8.22h-5V4.76h6.92v1.58l-3.44 8.22z"/><path d="M23 52a3 3 0 11-3-3 3 3 0 013 3zm3.31-18a7 7 0 10-12.62 0A7 7 0 1020 44.59 7 7 0 1026.31 34z" fill="url(#Nepojmenovaný_přechod_17)"/><circle class="cls-2" cx="30.5" cy="13.5" r="1"/><path class="cls-2" d="M32.5 7.5a2.58 2.58 0 00-.29 0 2 2 0 10-3.42 0 2.58 2.58 0 00-.29 0 2 2 0 000 4 2.21 2.21 0 002-1.42 2.25 2.25 0 002 1.42 2 2 0 000-4z"/></g></g></svg>
