<svg xmlns="http://www.w3.org/2000/svg" viewBox="0 0 40 60"><defs><linearGradient id="Nepojmenovaný_přechod_17" x1="20" y1="24" x2="20" y2="55" gradientUnits="userSpaceOnUse"><stop offset="0" stop-color="#1d1b40"/><stop offset=".3" stop-color="#1c1a3d"/><stop offset=".53" stop-color="#171634"/><stop offset=".73" stop-color="#100f23"/><stop offset=".92" stop-color="#06050d"/><stop offset="1"/></linearGradient><style>.cls-2{fill:#1d1b40}</style></defs><g id="Vrstva_2"><g id="icon"><rect width="40" height="60" rx="4" fill="#fff"/><path class="cls-2" d="M12.62 7.25a2.21 2.21 0 01-2 2.22 2.4 2.4 0 012.2 2.53c0 1.68-1.22 2.73-3.59 2.73s-3.59-1-3.59-2.73a2.35 2.35 0 012.25-2.48 2.31 2.31 0 01-2-2.28C5.85 5.78 7 4.62 9.23 4.62s3.39 1.18 3.39 2.63zm-5.1 4.43c0 .85.55 1.43 1.71 1.43s1.71-.58 1.71-1.43c0-1.08-.76-1.44-1.71-1.44s-1.71.36-1.71 1.44zm.23-4.23c0 1 .58 1.36 1.48 1.36s1.48-.41 1.48-1.36c0-.73-.44-1.28-1.48-1.28s-1.48.55-1.48 1.28z"/><path d="M23 52a3 3 0 11-3-3 3 3 0 013 3zm3.31-18a7 7 0 10-12.62 0A7 7 0 1020 44.59 7 7 0 1026.31 34z" fill="url(#Nepojmenovaný_přechod_17)"/><circle class="cls-2" cx="30.5" cy="13.5" r="1"/><path class="cls-2" d="M32.5 7.5a2.58 2.58 0 00-.29 0 2 2 0 10-3.42 0 2.58 2.58 0 00-.29 0 2 2 0 000 4 2.21 2.21 0 002-1.42 2.25 2.25 0 002 1.42 2 2 0 000-4z"/></g></g></svg>
