<svg xmlns="http://www.w3.org/2000/svg" viewBox="0 0 40 60"><defs><linearGradient id="svg_card_clubs_ace_1" x1="20" y1="24" x2="20" y2="55" gradientUnits="userSpaceOnUse"><stop offset="0" stop-color="#1d1b40"/><stop offset=".3" stop-color="#1c1a3d"/><stop offset=".53" stop-color="#171634"/><stop offset=".73" stop-color="#100f23"/><stop offset=".92" stop-color="#06050d"/><stop offset="1"/></linearGradient></defs><rect width="40" height="60" rx="4" fill="#fff"/><path fill="#1d1b40" d="M10.09 4.76l3.31 9.8h-2.21l-.82-2.49H6.76L6 14.56H3.85l3.33-9.8zM8.2 7.55l-1 3h2.71l-1-3c-.12-.41-.28-1-.36-1.46a14.77 14.77 0 01-.35 1.46z"/><path d="M23 52a3 3 0 11-3-3 3 3 0 013 3zm3.31-18a7 7 0 10-12.62 0A7 7 0 1020 44.59 7 7 0 1026.31 34z" fill="url(#svg_card_clubs_ace_1)"/><circle fill="#1d1b40" cx="30.5" cy="13.5" r="1"/><path fill="#1d1b40" d="M32.5 7.5a2.58 2.58 0 00-.29 0 2 2 0 10-3.42 0 2.58 2.58 0 00-.29 0 2 2 0 000 4 2.21 2.21 0 002-1.42 2.25 2.25 0 002 1.42 2 2 0 000-4z"/></svg>
