<svg xmlns="http://www.w3.org/2000/svg" viewBox="0 0 40 60"><defs><linearGradient id="svg_card_clubs_jack_1" x1="20" y1="44.47" x2="20" y2="57.99" gradientUnits="userSpaceOnUse"><stop offset="0" stop-color="#085272"/><stop offset=".27" stop-color="#0a4e6e"/><stop offset=".54" stop-color="#0e4264"/><stop offset=".81" stop-color="#162e52"/><stop offset="1" stop-color="#1d1b40"/></linearGradient></defs><rect width="40" height="60" rx="4" fill="#fff"/><path d="M11.58 4.76v6.76c0 2-1.43 3.18-3.64 3.18a3.19 3.19 0 01-3.38-2.94h2.07A1.24 1.24 0 008 13c1.11 0 1.54-.45 1.54-1.43V4.76z" fill="#1d1b40"/><circle cx="30.5" cy="13.5" r="1" fill="#1d1b40"/><path d="M32.5 7.5a2.58 2.58 0 00-.29 0 2 2 0 10-3.42 0 2.58 2.58 0 00-.29 0 2 2 0 000 4 2.21 2.21 0 002-1.42 2.25 2.25 0 002 1.42 2 2 0 000-4z" fill="#1d1b40"/><path d="M0 56a4 4 0 004 4h32a4 4 0 004-4c0-5-9-12-15-14h-8c-7 2-17 9-17 14z" fill="url(#svg_card_clubs_jack_1)"/><path d="M18 38h7v10l-3 12h-5l-2-12 2-5a43.31 43.31 0 011-5z" fill="#1d1b40"/><path d="M25 48l-1.25 4h-7.92L15 48h-2l2 12h2l-.83-6h7.08l-.42 2H20a1 1 0 000 2h2.42L22 60h2l4-12z" fill="#f2c546"/><path d="M27 31c0-4-2-7-6-7s-6 3-6 7a2 2 0 000 4c0 3.31 3 7 5 7 3 0 6-3 7-7a2 2 0 000-4z" fill="#ffb29d"/><path d="M27 31c1-4-2-7-6-7s-7 3-6 7c0 0 .41-4 3-5 .5-.19.75 1 2 1 2.53 0 3.38-1.37 4-1 2.11 1.25 3 5 3 5zm-7.71 1.66a1.94 1.94 0 01-.29 1.06.79.79 0 01-1.42 0 1.94 1.94 0 01-.29-1.06 1.92 1.92 0 01.29-1.06.79.79 0 011.42 0 1.92 1.92 0 01.29 1.06zm5 0a1.94 1.94 0 01-.29 1.06.79.79 0 01-1.42 0 1.94 1.94 0 01-.29-1.06 1.92 1.92 0 01.29-1.06.79.79 0 011.42 0 1.92 1.92 0 01.29 1.06z" fill="#1d1b40"/><path d="M19 32h-2a1 1 0 01-1-1 1 1 0 011-1h2a1 1 0 011 1 1 1 0 01-1 1zm5 0h-2a1 1 0 01-1-1 1 1 0 011-1h2a1 1 0 011 1 1 1 0 01-1 1z" fill="#1d1b40"/><path d="M25 47v-8c1.39 0 3.12 1.72 4 3a9.3 9.3 0 012 5 2.65 2.65 0 01-3 3 2.65 2.65 0 01-3-3zm-9 0a33.45 33.45 0 001-4l.41-2.47c-.63-.75-1.16-1.53-1.16-1.53-1.39 0-3.37 1.72-4.25 3a9.3 9.3 0 00-2 5 2.65 2.65 0 003 3c2 0 2.4-1.09 3-3z" fill="#c7cedb"/><circle cx="28" cy="47" r="1" fill="#67739c"/><circle cx="27" cy="43" r="1" fill="#67739c"/><circle cx="14" cy="43" r="1" fill="#67739c"/><circle cx="13" cy="47" r="1" fill="#67739c"/><circle cx="20" cy="46.5" r="1.5" fill="#f2c546"/></svg>
