<svg xmlns="http://www.w3.org/2000/svg" viewBox="0 0 40 60"><defs><linearGradient id="svg_card_clubs_king_1" x1="20" y1="41.76" x2="20" y2="59.07" gradientUnits="userSpaceOnUse"><stop offset="0" stop-color="#085272"/><stop offset=".25" stop-color="#0a4c6d"/><stop offset=".57" stop-color="#113c5e"/><stop offset=".94" stop-color="#1b2045"/><stop offset="1" stop-color="#1d1b40"/></linearGradient></defs><g id="Vrstva_2"><g id="icon"><rect width="40" height="60" rx="4" fill="#fff"/><path fill="#1d1b40" d="M5.74 14.56v-9.8h2v9.8zm5.91 0L7.84 9.41l3.6-4.65h2.32l-3.6 4.52 3.9 5.28zM31.36 36.16A2.49 2.49 0 0030 32.05a8.49 8.49 0 00-17 0 2.49 2.49 0 00-1.38 4.11A2.5 2.5 0 0012.5 41h18a2.5 2.5 0 00.86-4.84z"/><path d="M0 50v6a4 4 0 004 4h32a4 4 0 004-4v-6c-3-6-9-10-13-10H16c-3 0-11 3-16 10z" fill="url(#svg_card_clubs_king_1)"/><path fill="#c7cedb" d="M27 37a15.4 15.4 0 00-2 7c0 2.69 0 7 2 7 6 0 11-3.12 10-7s-6-7-10-7zM17 37l-3.75 14C7.25 51 4 48 5 44s7-7 12-7z"/><path d="M27 40H15v-9c0-3.31 2-6 6-6a13.09 13.09 0 006 8z" fill="#ffb29d"/><path d="M16.29 27h5.4c.12.26.24.51.41.83h-6.37a7.07 7.07 0 01.56-.83z" fill="#f1827c"/><path fill="#f2c546" d="M27 60H11l5-20h11v20z"/><path fill="#1d1b40" d="M24 38c-.44-.9-1.25-2-4-2-1.79 0-2.38 1-3 2-.74 1.21-2 1-2-1v3c0 4 3 7 6 7s6-4 6-7v-3c0 2-2.23 2.57-3 1zM19 32.5a1.94 1.94 0 01-.29 1.06.79.79 0 01-1.42 0 2.08 2.08 0 010-2.12.79.79 0 011.42 0A1.94 1.94 0 0119 32.5zM24 32.5a1.94 1.94 0 01-.29 1.06.79.79 0 01-1.42 0 2.08 2.08 0 010-2.12.79.79 0 011.42 0A1.94 1.94 0 0124 32.5z"/><path fill="#1d1b40" d="M19 32h-2a1 1 0 01-1-1 1 1 0 011-1h2a1 1 0 011 1 1 1 0 01-1 1zM24 32h-2a1 1 0 01-1-1 1 1 0 011-1h2a1 1 0 011 1 1 1 0 01-1 1z"/><path fill="#f2c546" d="M28 22a1 1 0 00-1 1v1h-3v-1a1 1 0 00-2 0v1h-2v-1a1 1 0 00-2 0v1h-2v-1a1 1 0 00-2 0v3a1 1 0 001 1h13a1 1 0 001-1v-3a1 1 0 00-1-1z"/><path fill="#1d1b40" d="M25 50v-2h-9l-.6 2H25zM20 58a1 1 0 010-2h5v-4H14.8L13 60h12v-2z"/><circle fill="#67739c" cx="30" cy="41" r="1"/><circle fill="#67739c" cx="34" cy="45" r="1"/><circle fill="#67739c" cx="30" cy="47" r="1"/><circle fill="#67739c" cx="12" cy="47" r="1"/><circle fill="#67739c" cx="8" cy="44" r="1"/><circle fill="#67739c" cx="12" cy="41" r="1"/><path fill="#1d1b40" d="M21.16 41.52a1.5 1.5 0 000-3 1.5 1.5 0 000 3z"/><path fill="#1d1b40" d="M21.16 41.52a1.5 1.5 0 000-3 1.5 1.5 0 000 3z"/><circle fill="#1d1b40" cx="30.5" cy="13.5" r="1"/><path fill="#1d1b40" d="M32.5 7.5a2.58 2.58 0 00-.29 0 2 2 0 10-3.42 0 2.58 2.58 0 00-.29 0 2 2 0 000 4 2.21 2.21 0 002-1.42 2.25 2.25 0 002 1.42 2 2 0 000-4z"/></g></g></svg>
