<svg xmlns="http://www.w3.org/2000/svg" viewBox="0 0 40 60"><defs><linearGradient id="Nepojmenovaný_přechod_27" x1="20" y1="43.11" x2="20" y2="57.78" gradientUnits="userSpaceOnUse"><stop offset="0" stop-color="#085272"/><stop offset=".25" stop-color="#0a4c6d"/><stop offset=".57" stop-color="#113c5e"/><stop offset=".94" stop-color="#1b2045"/><stop offset="1" stop-color="#1d1b40"/></linearGradient><style>.cls-1{fill:#fff}.cls-2{fill:#1d1b40}.cls-3{fill:#f2c546}.cls-7{fill:#67739c}</style></defs><g id="Vrstva_2"><g id="icon"><rect class="cls-1" width="40" height="60" rx="4"/><path class="cls-2" d="M14.69 9.66a5.06 5.06 0 01-1.75 4.06l1.78 2.36h-2.15l-1.13-1.57a5.26 5.26 0 01-1.4.19c-2.87 0-4.65-2.18-4.65-5s1.78-5 4.65-5 4.65 2.1 4.65 4.96zm-3.47 1.77l.57.77a3.85 3.85 0 00.74-2.54c0-1.95-.77-3.26-2.49-3.26S7.56 7.71 7.56 9.66s.75 3.27 2.48 3.27h.25l-1.08-1.5zM27.92 27.19C27.38 24.26 24 22 21 22s-6.68 2.47-7 5.59A5.5 5.5 0 0016.5 38h10a5.5 5.5 0 001.42-10.81zM33.91 47.49L7.74 47.2C3.54 50 0 53.28 0 56a4 4 0 004 4h32a4 4 0 004-4c0-2.62-2.75-5.8-6.09-8.51z"/><path class="cls-3" d="M27 45.46h2V60h-2zM11 47.48l3-2.02L13 60h-2V47.48z"/><path class="cls-3" d="M25 47c-2.71 2.71-4.59 8.66-4.94 12h-.12c-.35-3.34-2.23-9.29-4.94-12h-2c3 4 4 9 5 13h4c1-4 2-9 5-13z"/><path d="M40 56a4 4 0 01-4 4h-7V44.06a42 42 0 014.91 3.43C37.25 50.2 40 53.38 40 56zM7.74 47.2C3.54 50 0 53.28 0 56a4 4 0 004 4h7a79.6 79.6 0 012.57-16.13 52.26 52.26 0 00-5.83 3.33z" fill="url(#Nepojmenovaný_přechod_27)"/><path d="M25 41h-7c-5-3-11.68 1.88-10.26 6.2C9 51 14 54 20 54c8 0 13-3 13.91-6.51C35 43 30 39 25 41z" fill="#c7cedb"/><path class="cls-2" d="M25 42c0 1-3 3-4 3s-3-2-3-3v-5h7z"/><circle class="cls-1" cx="15" cy="34" r="1"/><path d="M20 26a9.37 9.37 0 01-5 4.64V33c0 3.31 2.69 8 6 8s6-4.69 6-8v-2.07A11.14 11.14 0 0120 26z" fill="#ffb29d"/><path class="cls-2" d="M19 31.5a1.94 1.94 0 01-.29 1.06.79.79 0 01-1.42 0 2.08 2.08 0 010-2.12.79.79 0 011.42 0A1.94 1.94 0 0119 31.5zM24 31.5a1.94 1.94 0 01-.29 1.06.79.79 0 01-1.42 0 2.08 2.08 0 010-2.12.79.79 0 011.42 0A1.94 1.94 0 0124 31.5z"/><rect class="cls-3" x="13" y="26" width="16" height="2" rx="1"/><circle class="cls-7" cx="14" cy="43" r="1"/><circle class="cls-7" cx="24" cy="47" r="1"/><circle class="cls-7" cx="20" cy="51" r="1"/><circle class="cls-7" cx="16" cy="47" r="1"/><circle class="cls-7" cx="11" cy="47" r="1"/><circle class="cls-1" cx="27" cy="34" r="1"/><circle class="cls-7" cx="29" cy="44" r="1"/><circle class="cls-7" cx="29" cy="49" r="1"/><circle class="cls-2" cx="30.5" cy="13.5" r="1"/><path class="cls-2" d="M32.5 7.5a2.58 2.58 0 00-.29 0 2 2 0 10-3.42 0 2.58 2.58 0 00-.29 0 2 2 0 000 4 2.21 2.21 0 002-1.42 2.25 2.25 0 002 1.42 2 2 0 000-4z"/></g></g></svg>
