<svg xmlns="http://www.w3.org/2000/svg" viewBox="0 0 40 60"><defs><linearGradient id="Nepojmenovaný_přechod_7" x1="20" y1="31.41" x2="20" y2="54.93" gradientUnits="userSpaceOnUse"><stop offset="0" stop-color="#ed425f"/><stop offset=".2" stop-color="#eb3d59"/><stop offset=".47" stop-color="#e63047"/><stop offset=".78" stop-color="#dc1b29"/><stop offset="1" stop-color="#d50911"/></linearGradient><style>.cls-2{fill:#d50911}</style></defs><g id="Vrstva_2"><g id="icon"><rect width="40" height="60" rx="4" fill="#fff"/><path class="cls-2" d="M34.12 6.38A3 3 0 0032 5.5a2.11 2.11 0 00-2 1 2.11 2.11 0 00-2-1 3 3 0 00-2.12 5.12s3.38 3 4.12 3.88c.82-.88 4.12-3.88 4.12-3.88a3 3 0 000-4.24z"/><path d="M26 30a8 8 0 00-6 2.72A8 8 0 006 38c0 8 8 11 14 17 6-6 14-9 14-17a8 8 0 00-8-8z" fill="url(#Nepojmenovaný_přechod_7)"/><path class="cls-2" d="M5.77 14.56V13c4.09-2.71 5-3.94 5-5.28a1.35 1.35 0 00-1.5-1.5 1.47 1.47 0 00-1.7 1.55h-1.8c0-2 1.57-3.19 3.6-3.19 2.23 0 3.38 1.3 3.38 3 0 1.93-1.32 3.25-4.61 5.36h4.59v1.58z"/></g></g></svg>
