<svg xmlns="http://www.w3.org/2000/svg" viewBox="0 0 40 60"><defs><linearGradient id="svg_card_hearths_5_1" x1="20" y1="31.41" x2="20" y2="54.93" gradientUnits="userSpaceOnUse"><stop offset="0" stop-color="#ed425f"/><stop offset=".2" stop-color="#eb3d59"/><stop offset=".47" stop-color="#e63047"/><stop offset=".78" stop-color="#dc1b29"/><stop offset="1" stop-color="#d50911"/></linearGradient></defs><rect width="40" height="60" rx="4" fill="#fff"/><path d="M34.12 6.38A3 3 0 0032 5.5a2.11 2.11 0 00-2 1 2.11 2.11 0 00-2-1 3 3 0 00-2.12 5.12s3.38 3 4.12 3.88c.82-.88 4.12-3.88 4.12-3.88a3 3 0 000-4.24z" fill="#d50911"/><path d="M26 30a8 8 0 00-6 2.72A8 8 0 006 38c0 8 8 11 14 17 6-6 14-9 14-17a8 8 0 00-8-8z" fill="url(#svg_card_hearths_5_1)"/><path d="M12.21 4.76v1.58H7.94l-.11 2a9.69 9.69 0 011.61-.15c1.93 0 3.45 1.13 3.45 3.11a3.45 3.45 0 01-3.77 3.4c-2 0-3.36-1-3.42-2.94h1.72c.1 1 .62 1.46 1.75 1.46a1.66 1.66 0 001.74-1.81c0-1.13-.57-1.78-2.06-1.78A17.09 17.09 0 006 9.87l.34-5.11z" fill="#d50911"/></svg>
