<svg xmlns="http://www.w3.org/2000/svg" viewBox="0 0 40 60"><defs><linearGradient id="Nepojmenovaný_přechod_7" x1="20" y1="31.41" x2="20" y2="54.93" gradientUnits="userSpaceOnUse"><stop offset="0" stop-color="#ed425f"/><stop offset=".2" stop-color="#eb3d59"/><stop offset=".47" stop-color="#e63047"/><stop offset=".78" stop-color="#dc1b29"/><stop offset="1" stop-color="#d50911"/></linearGradient><style>.cls-2{fill:#d50911}</style></defs><g id="Vrstva_2"><g id="icon"><rect width="40" height="60" rx="4" fill="#fff"/><path class="cls-2" d="M34.12 6.38A3 3 0 0032 5.5a2.11 2.11 0 00-2 1 2.11 2.11 0 00-2-1 3 3 0 00-2.12 5.12s3.38 3 4.12 3.88c.82-.88 4.12-3.88 4.12-3.88a3 3 0 000-4.24z"/><path d="M26 30a8 8 0 00-6 2.72A8 8 0 006 38c0 8 8 11 14 17 6-6 14-9 14-17a8 8 0 00-8-8z" fill="url(#Nepojmenovaný_přechod_7)"/><path class="cls-2" d="M12.87 7.38h-1.78a1.4 1.4 0 00-1.52-1.3c-1.35 0-2 1.14-2.08 3.11a3 3 0 012.34-1.06 2.89 2.89 0 013.1 3 3.4 3.4 0 01-3.59 3.57c-2.43 0-3.81-1.8-3.81-4.91S7 4.62 9.59 4.62a3 3 0 013.28 2.76zm-3.43 5.71c1.11 0 1.6-.74 1.6-1.78s-.41-1.76-1.63-1.76a2.33 2.33 0 00-1.89.94c.1 1.58.65 2.6 1.92 2.6z"/></g></g></svg>
