<svg xmlns="http://www.w3.org/2000/svg" viewBox="0 0 40 60"><defs><linearGradient id="Nepojmenovaný_přechod_7" x1="20" y1="31.41" x2="20" y2="54.93" gradientUnits="userSpaceOnUse"><stop offset="0" stop-color="#ed425f"/><stop offset=".2" stop-color="#eb3d59"/><stop offset=".47" stop-color="#e63047"/><stop offset=".78" stop-color="#dc1b29"/><stop offset="1" stop-color="#d50911"/></linearGradient><style>.cls-2{fill:#d50911}</style></defs><g id="Vrstva_2"><g id="icon"><rect width="40" height="60" rx="4" fill="#fff"/><path class="cls-2" d="M34.12 6.38A3 3 0 0032 5.5a2.11 2.11 0 00-2 1 2.11 2.11 0 00-2-1 3 3 0 00-2.12 5.12s3.38 3 4.12 3.88c.82-.88 4.12-3.88 4.12-3.88a3 3 0 000-4.24z"/><path d="M26 30a8 8 0 00-6 2.72A8 8 0 006 38c0 8 8 11 14 17 6-6 14-9 14-17a8 8 0 00-8-8z" fill="url(#Nepojmenovaný_přechod_7)"/><path class="cls-2" d="M12.62 7.25a2.21 2.21 0 01-2 2.22 2.4 2.4 0 012.2 2.53c0 1.68-1.22 2.73-3.59 2.73s-3.59-1-3.59-2.73a2.35 2.35 0 012.25-2.48 2.31 2.31 0 01-2-2.28C5.85 5.78 7 4.62 9.23 4.62s3.39 1.18 3.39 2.63zm-5.1 4.43c0 .85.55 1.43 1.71 1.43s1.71-.58 1.71-1.43c0-1.08-.76-1.44-1.71-1.44s-1.71.36-1.71 1.44zm.23-4.23c0 1 .58 1.36 1.48 1.36s1.48-.41 1.48-1.36c0-.73-.44-1.28-1.48-1.28s-1.48.55-1.48 1.28z"/></g></g></svg>
