<svg xmlns="http://www.w3.org/2000/svg" viewBox="0 0 40 60"><defs><linearGradient id="svg_card_hearths_9_1" x1="20" y1="31.41" x2="20" y2="54.93" gradientUnits="userSpaceOnUse"><stop offset="0" stop-color="#ed425f"/><stop offset=".2" stop-color="#eb3d59"/><stop offset=".47" stop-color="#e63047"/><stop offset=".78" stop-color="#dc1b29"/><stop offset="1" stop-color="#d50911"/></linearGradient></defs><rect width="40" height="60" rx="4" fill="#fff"/><path d="M34.12 6.38A3 3 0 0032 5.5a2.11 2.11 0 00-2 1 2.11 2.11 0 00-2-1 3 3 0 00-2.12 5.12s3.38 3 4.12 3.88c.82-.88 4.12-3.88 4.12-3.88a3 3 0 000-4.24z" fill="#d50911"/><path d="M26 30a8 8 0 00-6 2.72A8 8 0 006 38c0 8 8 11 14 17 6-6 14-9 14-17a8 8 0 00-8-8z" fill="url(#svg_card_hearths_9_1)"/><path d="M12.93 9.54c0 3.08-1.44 5.16-4.06 5.16-1.83 0-3.21-1-3.28-2.77h1.75a1.39 1.39 0 001.55 1.32c1.35 0 2-1.15 2.08-3.11a3 3 0 01-2.34 1 2.9 2.9 0 01-3.1-3 3.4 3.4 0 013.59-3.52c2.44 0 3.81 1.81 3.81 4.92zM7.42 8c0 1 .42 1.76 1.64 1.76a2.29 2.29 0 001.88-.94c-.1-1.58-.65-2.6-1.92-2.6-1.09.01-1.6.78-1.6 1.78z" fill="#d50911"/></svg>
