<svg xmlns="http://www.w3.org/2000/svg" viewBox="0 0 40 60"><defs><linearGradient id="svg_card_hearths_jack_1" x1="20" y1="41" x2="20" y2="59.87" gradientUnits="userSpaceOnUse"><stop offset="0" stop-color="#ed425f"/><stop offset=".24" stop-color="#ec3f5b"/><stop offset=".46" stop-color="#e83750"/><stop offset=".68" stop-color="#e2293d"/><stop offset=".89" stop-color="#da1622"/><stop offset="1" stop-color="#d50911"/></linearGradient></defs><rect width="40" height="60" rx="4" fill="#fff"/><rect width="40" height="60" rx="4" fill="#fff"/><path d="M11.58 4.76v6.76c0 2-1.43 3.18-3.64 3.18a3.19 3.19 0 01-3.38-2.94h2.07A1.24 1.24 0 008 13c1.11 0 1.54-.45 1.54-1.43V4.76z" fill="#d50911"/><path d="M34.12 6.38A3 3 0 0032 5.5a2.11 2.11 0 00-2 1 2.11 2.11 0 00-2-1 3 3 0 00-2.12 5.12s3.38 3 4.12 3.88c.82-.88 4.12-3.88 4.12-3.88a3 3 0 000-4.24z" fill="#d50911"/><path d="M0 56a4 4 0 004 4h32a4 4 0 004-4c0-3.84-5.3-8.26-10.47-11C31 43 30 38 25 38h-8c-3 0-6 3-4 6.44C6.72 47.13 0 51.9 0 56z" fill="url(#svg_card_hearths_jack_1)"/><path d="M25 46c-1 .48-2.32 2-4 2a8.12 8.12 0 01-4-1c-2-1-3-4-3-5 0-2 3-3 7-3s7 1 7 3a5.36 5.36 0 01-3 4z" fill="#d50911"/><path d="M25 43l.33 2.82L24 47l2 13H14l2.7-11.68L17 47v-4h8z" fill="#fff"/><path d="M18 38h7v5c0 2-3 4-5 4-1 0-3-2-3-4z" fill="#f1827c"/><path d="M28 30.51V32a1 1 0 01-1 1v-6a2.15 2.15 0 00-2-2h-2a2 2 0 01-2 2h-1a2 2 0 01-1.72-1h-.78a1.5 1.5 0 01-.37-.05h-.09a1.08 1.08 0 01-.29-.13 1.47 1.47 0 01-.53-.55A2.13 2.13 0 0015 27v6a1 1 0 01-1-1v-1.49a2.5 2.5 0 00-1 2A2.56 2.56 0 0015 35c0 2.76 2 8 6 8s6-5.24 6-8a2.56 2.56 0 002-2.5 2.5 2.5 0 00-1-1.99z" fill="#ffb29d"/><path d="M26.89 23.23a3 3 0 00-2.14-2.12A4 4 0 0022 20h-5a2 2 0 00-2 2 1.94 1.94 0 00.32 1.06A3.4 3.4 0 0014 26v6a1 1 0 001 1v-6a2.13 2.13 0 011.19-1.78 1.49 1.49 0 001.31.78h.78A2 2 0 0020 27h1a2 2 0 002-2h2a2.15 2.15 0 012 2v6a1 1 0 001-1v-6a3.44 3.44 0 00-1.11-2.77z" fill="#7d374e"/><path d="M16 33.5a1.5 1.5 0 01-1.5-1.5v-1a1.5 1.5 0 011.5-1.5h2.72c.71 0 1.47.46 1.47 1.74s-.7 2.26-1.75 2.26zm6.56 0c-1 0-1.75-.91-1.75-2.26s.76-1.74 1.47-1.74H25a1.5 1.5 0 011.5 1.5v1a1.5 1.5 0 01-1.5 1.5z" fill="#fff"/><path d="M28.5 30h-1.78A2 2 0 0025 29h-2.72a1.88 1.88 0 00-1.78 1.2 1.88 1.88 0 00-1.78-1.2H16a2 2 0 00-1.72 1h-.78a.5.5 0 000 1h.5v1a2 2 0 002 2h2.44a2.17 2.17 0 002.06-1.58A2.17 2.17 0 0022.56 34H25a2 2 0 002-2v-1h1.5a.5.5 0 000-1zm-10.06 3H16a1 1 0 01-1-1v-1a1 1 0 011-1h2.72c.65 0 1 .49 1 1.24-.03.96-.44 1.76-1.28 1.76zM26 32a1 1 0 01-1 1h-2.44c-.84 0-1.25-.8-1.25-1.76 0-.75.32-1.24 1-1.24H25a1 1 0 011 1z" fill="#1d1b40"/><path d="M24 38.09l-3-1-3 1v-.5a1 1 0 01.47-.85 5.25 5.25 0 015.06 0 1 1 0 01.47.85z" fill="#7d374e"/><path d="M22.48 41l-.2-.4a1 1 0 00-.9-.55h-.76a1 1 0 00-.9.55l-.19.4c-2.47-.58-4.53-6-4.53-6 0 2.76 2 8 6 8s6-5.24 6-8c0 0-1.85 5.46-4.52 6z" fill="#7d374e"/></svg>
