<svg xmlns="http://www.w3.org/2000/svg" viewBox="0 0 40 60"><defs><linearGradient id="svg_card_hearths_jack_1" x1="20" y1="37.52" x2="20" y2="58.66" gradientUnits="userSpaceOnUse"><stop offset="0" stop-color="#ed425f"/><stop offset=".24" stop-color="#ec3f5b"/><stop offset=".46" stop-color="#e83750"/><stop offset=".68" stop-color="#e2293d"/><stop offset=".89" stop-color="#da1622"/><stop offset="1" stop-color="#d50911"/></linearGradient></defs><rect width="40" height="60" rx="4" fill="#fff"/><rect width="40" height="60" rx="4" fill="#fff"/><path d="M11.58 4.76v6.76c0 2-1.43 3.18-3.64 3.18a3.19 3.19 0 01-3.38-2.94h2.07A1.24 1.24 0 008 13c1.11 0 1.54-.45 1.54-1.43V4.76zm22.54 1.62A3 3 0 0032 5.5a2.11 2.11 0 00-2 1 2.11 2.11 0 00-2-1 3 3 0 00-2.12 5.12s3.38 3 4.12 3.88c.82-.88 4.12-3.88 4.12-3.88a3 3 0 000-4.24z" fill="#d50911"/><path d="M0 56a4 4 0 004 4h32a4 4 0 004-4c0-5.31-3.7-9.06-11-11.93C30 43 31.37 40.5 31 40c-.61-.81-4-3-10-3s-9.17 2.25-10 3c-.66.59 1 3 1.55 4C5.72 46.16 0 51.08 0 56z" fill="url(#svg_card_hearths_ace_1)"/><path d="M12.55 44C12.24 47 13 56.68 14 60H7c-.34-6.06.46-11.69 1.42-14.29A21.7 21.7 0 0112.55 44z" fill="#f2c546"/><circle cx="10" cy="49" r="1" fill="#fff"/><circle cx="10" cy="54" r="1" fill="#fff"/><path d="M10 58a1.5 1.5 0 00-1.5 1.5 1.39 1.39 0 00.09.5h2.82a1.39 1.39 0 00.09-.5A1.5 1.5 0 0010 58zm15-18a21.77 21.77 0 015 8l-5 2-4 10h-4l-2-10-3.77-2.64C12 45 15.56 41.59 18 40z" fill="#fff"/><path d="M14 27h14v10a2 2 0 01-2 2h-9a3 3 0 01-3-3v-9z" fill="#1d1b40"/><path d="M18 38h7v5c0 2-6 13-6 13s-2-11-2-13z" fill="#b36550"/><path d="M28 31.51V33a1 1 0 01-1 1v-6a2.15 2.15 0 00-2-2h-8a1.94 1.94 0 00-2 2v6a1 1 0 01-1-1v-1.49a2.5 2.5 0 00-1 2A2.56 2.56 0 0015 36c0 2.76 2.72 7 6 7s6-4.24 6-7a2.56 2.56 0 002-2.5 2.5 2.5 0 00-1-1.99z" fill="#e38166"/><path d="M19 32.5a1.94 1.94 0 01-.29 1.06.79.79 0 01-1.42 0 2.08 2.08 0 010-2.12.79.79 0 011.42 0A1.94 1.94 0 0119 32.5zm6 0a1.94 1.94 0 01-.29 1.06.79.79 0 01-1.42 0 2.08 2.08 0 010-2.12.79.79 0 011.42 0A1.94 1.94 0 0125 32.5z" fill="#1d1b40"/><path d="M19 32h-2a1 1 0 01-1-1 1 1 0 011-1h2a1 1 0 011 1 1 1 0 01-1 1zm6 0h-2a1 1 0 01-1-1 1 1 0 011-1h2a1 1 0 011 1 1 1 0 01-1 1z" fill="#1d1b40"/><path d="M30 24a2 2 0 00-2-2 2.73 2.73 0 00.05-.5A2.5 2.5 0 0025.5 19a2.43 2.43 0 00-1.28.37A2.48 2.48 0 0020 19h-3.5a2.5 2.5 0 00-2.5 2.5 2.35 2.35 0 00.06.54A2.49 2.49 0 0013 26.49V27a2 2 0 001 1.72V33a1 1 0 001 1v-5h4a2 2 0 002-2v-1h1a2 2 0 002 2h1a2 2 0 002 2v4a1 1 0 001-1v-2a2.33 2.33 0 001-3.28A2 2 0 0030 26a2 2 0 00-.28-1 2 2 0 00.28-1z" fill="#1d1b40"/><path d="M22.38 37h-2.76a1 1 0 00-.9.55L18 39l1.78-1h2.3L24 39l-.72-1.45a1 1 0 00-.9-.55z" fill="#b36550"/></svg>
