<svg xmlns="http://www.w3.org/2000/svg" viewBox="0 0 40 60"><defs><linearGradient id="svg_card_hearths_king_1" x1="20" y1="42.4" x2="20" y2="58.95" gradientUnits="userSpaceOnUse"><stop offset="0" stop-color="#975f71"/><stop offset=".31" stop-color="#93586b"/><stop offset=".74" stop-color="#86455b"/><stop offset="1" stop-color="#7d374e"/></linearGradient></defs><rect width="40" height="60" rx="4" fill="#fff"/><path d="M5.74 14.56v-9.8h2v9.8zm5.91 0L7.84 9.41l3.6-4.65h2.32l-3.6 4.52 3.9 5.28zm22.47-8.18A3 3 0 0032 5.5a2.11 2.11 0 00-2 1 2.11 2.11 0 00-2-1 3 3 0 00-2.12 5.12s3.38 3 4.12 3.88c.82-.88 4.12-3.88 4.12-3.88a3 3 0 000-4.24z" fill="#d50911"/><path d="M0 56a4 4 0 004 4h32a4 4 0 004-4c0-6-6-11-15-14h-9C8 44 0 50 0 56z" fill="url(#svg_card_hearths_king_1)"/><path d="M17 37h8v5l-5 2-4-2 1-5z" fill="#f1827c"/><path fill="#dfe6f2" d="M14 60l2-18 4 2 5-2-2 18h-9z"/><path d="M28 34.5a2.5 2.5 0 00-2-2.45V30c0-3-2-5-6-5s-6 2-6 5v2a2.5 2.5 0 000 5 5 5 0 005 5h2a5 5 0 005-5 2.5 2.5 0 002-2.5z" fill="#ffb29d"/><path d="M18 33.5a1.94 1.94 0 01-.29 1.06.79.79 0 01-1.42 0 2.08 2.08 0 010-2.12.79.79 0 011.42 0A1.94 1.94 0 0118 33.5zm5 0a1.94 1.94 0 01-.29 1.06.79.79 0 01-1.42 0 2.08 2.08 0 010-2.12.79.79 0 011.42 0A1.94 1.94 0 0123 33.5z" fill="#1d1b40"/><path d="M18 31h-2a1 1 0 01-1-1 1 1 0 011-1h2a1 1 0 011 1 1 1 0 01-1 1zm5 0h-2a1 1 0 01-1-1 1 1 0 011-1h2a1 1 0 011 1 1 1 0 01-1 1zm0 7h-7a3 3 0 013-2c2.46 0 3.68.87 4 2z" fill="#7d374e"/><path d="M24 24.14V24a1 1 0 00-1-1h-7a2 2 0 00-2 2v.38A4 4 0 0013 28v6a1 1 0 001 1v-5a4.52 4.52 0 012-4h5a1 1 0 001-.79 5.13 5.13 0 013 1.72V32a1 1 0 001 1v2a1 1 0 001-1v-6a4 4 0 00-3-3.86z" fill="#7d374e"/><circle cx="24.5" cy="38.5" r=".5" fill="#f1827c"/><path d="M20 44l4.32 4 .68-6-5 2zm0 0l-4-2-.67 6L20 44z" fill="#c7cedb"/><circle cx="20" cy="48" r="1" fill="#a9b3cc"/><circle cx="19" cy="55" r="1" fill="#a9b3cc"/><path d="M30 45.84l.84 5.16.86-6.18a1 1 0 011-.82 1 1 0 011 1.15l-.54 5.2a1.14 1.14 0 011.5.65c1-.15 1.39 1 1.39 2 0 2-1 4-3.66 4C31 57 28 56 28 54c0-.73 0-1 .84-2a48.29 48.29 0 01-.84-5.86A1 1 0 0129 45a1 1 0 011 .84z" fill="#ffb29d"/><rect x="6" y="50" width="7" height="2" rx="1" fill="#7d374e"/><path d="M29.71 22.32a1 1 0 00-1.36.37l-.5.87-1.73-1 .49-.86a1 1 0 10-1.73-1l-.5.87-1.73-1 .49-.86a1 1 0 10-1.73-1l-.5.87-.5.87-.49.87a1 1 0 00.37 1.36l6.94 4a1 1 0 001.36-.37l.5-.87.5-.87.49-.87a1 1 0 00-.37-1.38z" fill="#f2c546"/></svg>
