<svg xmlns="http://www.w3.org/2000/svg" viewBox="0 0 40 60"><defs><linearGradient id="Nepojmenovaný_přechod_4" x1="20" y1="42.4" x2="20" y2="58.95" gradientUnits="userSpaceOnUse"><stop offset="0" stop-color="#975f71"/><stop offset=".31" stop-color="#93586b"/><stop offset=".74" stop-color="#86455b"/><stop offset="1" stop-color="#7d374e"/></linearGradient><style>.cls-2{fill:#d50911}.cls-4{fill:#f1827c}.cls-6{fill:#ffb29d}.cls-7{fill:#1d1b40}.cls-8{fill:#7d374e}.cls-9{fill:#c7cedb}.cls-10{fill:#a9b3cc}</style></defs><g id="Vrstva_2"><g id="icon"><rect width="40" height="60" rx="4" fill="#fff"/><path class="cls-2" d="M5.74 14.56v-9.8h2v9.8zm5.91 0L7.84 9.41l3.6-4.65h2.32l-3.6 4.52 3.9 5.28zM34.12 6.38A3 3 0 0032 5.5a2.11 2.11 0 00-2 1 2.11 2.11 0 00-2-1 3 3 0 00-2.12 5.12s3.38 3 4.12 3.88c.82-.88 4.12-3.88 4.12-3.88a3 3 0 000-4.24z"/><path d="M0 56a4 4 0 004 4h32a4 4 0 004-4c0-6-6-11-15-14h-9C8 44 0 50 0 56z" fill="url(#Nepojmenovaný_přechod_4)"/><path class="cls-4" d="M17 37h8v5l-5 2-4-2 1-5z"/><path fill="#dfe6f2" d="M14 60l2-18 4 2 5-2-2 18h-9z"/><path class="cls-6" d="M28 34.5a2.5 2.5 0 00-2-2.45V30c0-3-2-5-6-5s-6 2-6 5v2a2.5 2.5 0 000 5 5 5 0 005 5h2a5 5 0 005-5 2.5 2.5 0 002-2.5z"/><path class="cls-7" d="M18 33.5a1.94 1.94 0 01-.29 1.06.79.79 0 01-1.42 0 2.08 2.08 0 010-2.12.79.79 0 011.42 0A1.94 1.94 0 0118 33.5zM23 33.5a1.94 1.94 0 01-.29 1.06.79.79 0 01-1.42 0 2.08 2.08 0 010-2.12.79.79 0 011.42 0A1.94 1.94 0 0123 33.5z"/><path class="cls-8" d="M18 31h-2a1 1 0 01-1-1 1 1 0 011-1h2a1 1 0 011 1 1 1 0 01-1 1zM23 31h-2a1 1 0 01-1-1 1 1 0 011-1h2a1 1 0 011 1 1 1 0 01-1 1zM23 38h-7a3 3 0 013-2c2.46 0 3.68.87 4 2z"/><path class="cls-8" d="M24 24.14V24a1 1 0 00-1-1h-7a2 2 0 00-2 2v.38A4 4 0 0013 28v6a1 1 0 001 1v-5a4.52 4.52 0 012-4h5a1 1 0 001-.79 5.13 5.13 0 013 1.72V32a1 1 0 001 1v2a1 1 0 001-1v-6a4 4 0 00-3-3.86z"/><circle class="cls-4" cx="24.5" cy="38.5" r=".5"/><path class="cls-9" d="M20 44l4.32 4 .68-6-5 2zM20 44l-4-2-.67 6L20 44z"/><circle class="cls-10" cx="20" cy="48" r="1"/><circle class="cls-10" cx="19" cy="55" r="1"/><path class="cls-6" d="M30 45.84l.84 5.16.86-6.18a1 1 0 011-.82 1 1 0 011 1.15l-.54 5.2a1.14 1.14 0 011.5.65c1-.15 1.39 1 1.39 2 0 2-1 4-3.66 4C31 57 28 56 28 54c0-.73 0-1 .84-2a48.29 48.29 0 01-.84-5.86A1 1 0 0129 45a1 1 0 011 .84z"/><rect class="cls-8" x="6" y="50" width="7" height="2" rx="1"/><path d="M29.71 22.32a1 1 0 00-1.36.37l-.5.87-1.73-1 .49-.86a1 1 0 10-1.73-1l-.5.87-1.73-1 .49-.86a1 1 0 10-1.73-1l-.5.87-.5.87-.49.87a1 1 0 00.37 1.36l6.94 4a1 1 0 001.36-.37l.5-.87.5-.87.49-.87a1 1 0 00-.37-1.38z" fill="#f2c546"/></g></g></svg>
