<svg xmlns="http://www.w3.org/2000/svg" viewBox="0 0 40 60"><defs><linearGradient id="svg_card_hearths_king_1" x1="20" y1="42.4" x2="20" y2="58.95" gradientUnits="userSpaceOnUse"><stop offset="0" stop-color="#085272"/><stop offset=".25" stop-color="#0a4c6d"/><stop offset=".57" stop-color="#113c5e"/><stop offset=".94" stop-color="#1b2045"/><stop offset="1" stop-color="#1d1b40"/></linearGradient><linearGradient id="svg_card_hearths_king_2" x1="19.21" y1="48.83" x2="18.55" y2="59.15" gradientUnits="userSpaceOnUse"><stop offset="0" stop-color="#fff"/><stop offset="1" stop-color="#dfe6f2"/></linearGradient></defs><rect fill="#fff" width="40" height="60" rx="4"/><path fill="#d50911" d="M5.74 14.56v-9.8h2v9.8zm5.91 0L7.84 9.41l3.6-4.65h2.32l-3.6 4.52 3.9 5.28zm22.47-8.18A3 3 0 0032 5.5a2.11 2.11 0 00-2 1 2.11 2.11 0 00-2-1 3 3 0 00-2.12 5.12s3.38 3 4.12 3.88c.82-.88 4.12-3.88 4.12-3.88a3 3 0 000-4.24z"/><path fill="#1d1b40" d="M31 41a2.73 2.73 0 00.05-.5 2.5 2.5 0 00-2-2.45V27a4 4 0 00-2-3.45V23a1 1 0 00-1-1H23a1 1 0 00-1-1h-5a1 1 0 00-1 1h-1a1 1 0 00-1 1h-.5a1.49 1.49 0 00-1.17 2.42A4 4 0 0012 27v12a2.5 2.5 0 00-2 2.45 2.62 2.62 0 00.07.57A1.5 1.5 0 0010.5 45H31a2 2 0 000-4z"/><path d="M0 56a4 4 0 004 4h32a4 4 0 004-4c0-6-7-11-16-14h-7C9 44 0 50 0 56z" fill="url(#svg_card_hearths_king_1)"/><path fill="#1d1b40" d="M24 42v-2a7.47 7.47 0 013 3l4 8-4 2 2 3-2 4h-4zM14 60l3.38-18.66L17 40c-3 2-7 6-8 10l4 2-3 2 1.3 6z"/><path d="M18 37h6v7s-4 7-5 7-2.1-7-2.1-7z" fill="#f1827c"/><path d="M14 60l2.9-16s1.1 7 2.1 7 5-7 5-7l-1 16z" fill="url(#svg_card_hearths_king_2)"/><circle fill="#dfe6f2" cx="7" cy="49" r="1"/><circle fill="#dfe6f2" cx="4" cy="52" r="1"/><path fill="#1d1b40" d="M11 50.16l-1.51-.75A6.64 6.64 0 006.67 55h2A5.24 5.24 0 0111 50.16z"/><path d="M27 33a1 1 0 01-1-1v-3a5.35 5.35 0 00-.36-2H22a1 1 0 01-1-1h-4v3a1 1 0 01-2 0v-2h-.64a5.35 5.35 0 00-.36 2v2.05A2.5 2.5 0 0014 36l.74 2.25a5.54 5.54 0 0010.52 0L26 36a2.5 2.5 0 002-2.45 2.43 2.43 0 00-.19-.94A1 1 0 0127 33z" fill="#ffc9ba"/><path d="M29.93 20.06a1 1 0 00-1.31.53l-.4.91-1.84-.79.4-.92a1 1 0 00-1.84-.79l-.39.92-1.84-.79.39-.92a1 1 0 00-1.83-.79l-.4.92-.39.92-.4.92a1 1 0 00.53 1.31L28 24.65a1 1 0 001.32-.52l.39-.92.4-.92.39-.91a1 1 0 00-.57-1.32z" fill="#f2c546"/><path fill="#1d1b40" d="M18 30h-2a1 1 0 01-1-1 1 1 0 011-1h2a1 1 0 011 1 1 1 0 01-1 1zm6 0h-2a1 1 0 01-1-1 1 1 0 011-1h2a1 1 0 011 1 1 1 0 01-1 1zm2.5 1h-14a.5.5 0 000 1h1.66c-.35 1-.38 3 2 3a3 3 0 003-3H20a3 3 0 003 3c2.38 0 2.35-2 2-3h1.5a.5.5 0 000-1z"/><circle fill="#fff" cx="23.5" cy="32.5" r=".5"/><circle fill="#fff" cx="17.5" cy="32.5" r=".5"/></svg>
