<svg xmlns="http://www.w3.org/2000/svg" viewBox="0 0 40 60"><defs><linearGradient id="svg_card_hearths_queen_1" x1="20" y1="59.15" x2="20" y2="42.94" gradientUnits="userSpaceOnUse"><stop offset="0" stop-color="#fff"/><stop offset="1" stop-color="#dfe6f2"/></linearGradient></defs><rect width="40" height="60" rx="4" fill="#fff"/><rect width="40" height="60" rx="4" fill="#fff"/><path d="M14.69 9.66a5.06 5.06 0 01-1.75 4.06l1.78 2.36h-2.15l-1.13-1.57a5.26 5.26 0 01-1.4.19c-2.87 0-4.65-2.18-4.65-5s1.78-5 4.65-5 4.65 2.1 4.65 4.96zm-3.47 1.77l.57.77a3.85 3.85 0 00.74-2.54c0-1.95-.77-3.26-2.49-3.26S7.56 7.71 7.56 9.66s.75 3.27 2.48 3.27h.25l-1.08-1.5zm22.9-5.05A3 3 0 0032 5.5a2.11 2.11 0 00-2 1 2.11 2.11 0 00-2-1 3 3 0 00-2.12 5.12s3.38 3 4.12 3.88c.82-.88 4.12-3.88 4.12-3.88a3 3 0 000-4.24z" fill="#d50911"/><path d="M0 56a4 4 0 004 4h31c2.21 0 5-1.79 5-4 0-6-6-11-15-14h-9C8 44 0 50 0 56z" fill="url(#svg_card_hearths_queen_1)"/><path d="M17 37h8v5a14.47 14.47 0 011.93.69C27 46 24 51 20 51s-6-6-5.58-8.55C15.3 42.18 16 42 16 42z" fill="#f1827c"/><path d="M28 34.5a2.5 2.5 0 00-2-2.45V30c0-3-2-5-6-5s-6 1.49-6 5v2a2.5 2.5 0 000 5 6.45 6.45 0 006 6 6.45 6.45 0 006-6 2.5 2.5 0 002-2.5z" fill="#ffb29d"/><path d="M19.5 23c-2.23 0-4 .48-4.5 2-1.45.45-2 2.22-2 4v5a1 1 0 001 1v-4c0-1.74 0-4 2-5a2.23 2.23 0 002 1 3.67 3.67 0 003-1c1.67-.71 4 .5 4 2v3a1 1 0 001 1v3a1 1 0 001-1v-5c0-3-1-6-7.5-6z" fill="#1d1b40"/><path d="M10.51 44C4.71 46.8 0 51.4 0 56a4 4 0 004 4h2.7c0-5 2.3-12 3.81-16zM33.3 60H36a4 4 0 004-4c0-4.87-2.85-8.57-9-11.53A48.22 48.22 0 0133.3 60z" fill="#f1827c"/><path d="M23 35.38A3.24 3.24 0 0119.62 32c0-1 .39-1.38 1.38-1.38 2.25 0 4.38 0 4.38 1.38 0 1 0 3.38-2.38 3.38zm-7 0c-2.38 0-2.38-2.37-2.38-3.38 0-1.38 2.13-1.38 4.38-1.38 1 0 1.38.39 1.38 1.38A3.24 3.24 0 0116 35.38z" fill="#1d1b40"/><path d="M26.5 32h-.75c0-1.75-2.41-1.75-4.75-1.75h-3c-2.34 0-4.75 0-4.75 1.75 0 .93 0 3.75 2.75 3.75a3.56 3.56 0 003.5-2.32 3.56 3.56 0 003.5 2.32c2.05 0 2.57-1.57 2.7-2.75h.8a.5.5 0 000-1zM16 35c-2 0-2-2-2-3s2-1 4-1c.76 0 1 .21 1 1a2.85 2.85 0 01-3 3zm7 0a2.85 2.85 0 01-3-3c0-.79.24-1 1-1 2 0 4 0 4 1s0 3-2 3z" fill="#fff"/><path d="M23 39l-3-1-3 1v-.5a1 1 0 01.47-.84 5.18 5.18 0 015.06 0 1 1 0 01.47.84z" fill="#1d1b40"/><path d="M6 28l-1-2-1 2-2 1 2 1 1 2 1-2 2-1-2-1zm28-3l-1-2-1 2-2 1 2 1 1 2 1-2 2-1-2-1zm-.33 12.33L33 36l-.67 1.33L31 38l1.33.67L33 40l.67-1.33L35 38l-1.33-.67z" fill="#f2c546"/></svg>
