<svg xmlns="http://www.w3.org/2000/svg" viewBox="0 0 98.222 94.828"><path fill="#8a2020" d="M23.202 21.688l.887-1.005L47.845 41.64l-.886 1.005zM.127 19.989c.48 0 1.78-.14 4.56-.51 1-.17 2-.31 3-.48 1.25-.2 2.5-.45 3.74-.74l1.05-.27c.24-.07.47-.13.69-.21 1-.3 2.54-.83 2.91-1 1.41-.62 2.29-1.09 2.74-2.2a2.71 2.71 0 00.19-1.26 3 3 0 00-.38-1.12 4 4 0 00-.74-.85 7.73 7.73 0 00-1.71-1.17c-.17-.1-.35-.18-.53-.27l-.67-.29c-.32-.13-.64-.25-1-.36-.84-.29-1.7-.55-2.55-.83-.49-.16-1-.33-1.43-.53a6.11 6.11 0 01-.58-.27 5.19 5.19 0 01-.66-.35c-.27-.17-.71-.45-.59-.82.12-.37.38-.38.62-.48a5.49 5.49 0 01.69-.21c.7-.18 1.42-.3 2.13-.46l.62-.13a13.06 13.06 0 001.66-.44 2 2 0 001.2-1 2.55 2.55 0 00-.43-2.13c-.14-.22-.29-.43-.44-.65-.15-.22-.44-.57-.67-.85a.26.26 0 00-.33-.08c-.14 0-.52.49-3.55 1.07-.56.09-1.11.2-1.66.32-.37.08-.73.15-1.09.24-.36.09-.67.16-1 .26-.33.1-.63.21-.93.33a5.68 5.68 0 00-1.66 1 4.4 4.4 0 00-.82.85 5.82 5.82 0 00-.45.72 1.75 1.75 0 00-.21.79 2.7 2.7 0 001.08 2c.19.16.4.31.6.45a14.65 14.65 0 002 1.13c.7.33 1.4.65 2.12 1 .72.35 1.36.53 2.05.76l.6.2c.63.21 1.27.41 1.9.64.39.14.8.27 1.19.45a5.81 5.81 0 011.18.63 2.15 2.15 0 01.6.64 1.75 1.75 0 01.25.83 1.39 1.39 0 01-.22.79 3.76 3.76 0 01-1.73 1.31 31.5 31.5 0 01-3 1.08c-.58.17-1.17.34-1.75.49l-1.78.47c-.6.15-1.19.28-1.79.41l-1 .22-.61.13-1.27.27-1.46.32-.43.1c-.13-.03-.6.08-.25.06zM68.403 68.482l.891-1 24.128 21.474-.891 1zM68.407 40.743l22.86-20.055.883 1.007L69.29 41.75zM21.973 89.025l22.297-19.74.889 1.003-22.297 19.74zM48.387 67.389c.48 0 1.78-.14 4.56-.52l3-.47c1.25-.21 2.5-.45 3.74-.75l1-.27.69-.2c1-.3 2.54-.84 2.91-1 1.41-.62 2.29-1.09 2.74-2.2a2.76 2.76 0 00.19-1.27 2.93 2.93 0 00-.38-1.11 3.77 3.77 0 00-.74-.85 7.45 7.45 0 00-1.61-1.22l-.53-.26-.67-.3c-.32-.13-.64-.24-1-.36-.84-.29-1.7-.55-2.55-.83-.49-.16-1-.33-1.43-.52l-.58-.27a7 7 0 01-.66-.36c-.27-.16-.71-.44-.59-.82.12-.38.38-.37.62-.47a5.49 5.49 0 01.69-.21c.7-.19 1.42-.31 2.13-.46l.62-.14a11.58 11.58 0 001.66-.44 1.93 1.93 0 001.2-1 2.54 2.54 0 00-.43-2.13l-.44-.66c-.21-.29-.44-.56-.67-.84a.28.28 0 00-.33-.09c-.14.05-.52.5-3.55 1.08-.56.09-1.11.19-1.66.31-.37.08-.73.15-1.09.25-.36.1-.67.16-1 .26-.33.1-.63.2-.93.32a6.16 6.16 0 00-1.66 1 4.76 4.76 0 00-.82.86 5.7 5.7 0 00-.45.71 1.82 1.82 0 00-.21.79 2.7 2.7 0 001.08 2 6.38 6.38 0 00.6.46 14.59 14.59 0 002 1.12c.7.34 1.4.66 2.11 1 .71.34 1.37.54 2.06.77l.6.2c.63.21 1.27.4 1.9.63.39.14.8.27 1.19.45a6.35 6.35 0 011.18.63 2.19 2.19 0 01.6.65 1.71 1.71 0 01.25.82 1.37 1.37 0 01-.22.79 3.68 3.68 0 01-1.73 1.31 26.82 26.82 0 01-3 1.08l-1.75.5-1.78.46c-.6.15-1.19.29-1.79.42l-1 .21-.61.13-1.27.28-1.46.32-.43.1c-.15.02-.62.13-.3.11z"/></svg>
