<svg xmlns="http://www.w3.org/2000/svg" viewBox="0 0 40 60"><defs><linearGradient id="svg_card_diamonds_10_1" x1="19.22" y1="32.86" x2="21.66" y2="52.01" gradientUnits="userSpaceOnUse"><stop offset="0" stop-color="#ed425f"/><stop offset=".2" stop-color="#eb3d59"/><stop offset=".47" stop-color="#e63047"/><stop offset=".78" stop-color="#dc1b29"/><stop offset="1" stop-color="#d50911"/></linearGradient></defs><rect width="40" height="60" rx="4" fill="#fff"/><path fill="#d50911" d="M6.24 14.56V13h1.85V6.59L6 7.91l-.79-1.39 2.88-1.76H10V13h1.54v1.58zM20.13 9.66c0 3.43-1.68 5-3.78 5s-3.77-1.61-3.77-5 1.68-5 3.77-5 3.78 1.57 3.78 5zm-5.5 0c0 2 .45 3.24 1.72 3.24s1.74-1.21 1.74-3.24-.45-3.23-1.74-3.23-1.72 1.2-1.72 3.23zM33.88 9.88l-3.45 4.9a.53.53 0 01-.86 0l-3.45-4.9a.66.66 0 010-.76l3.45-4.9a.53.53 0 01.86 0l3.45 4.9a.66.66 0 010 .76z"/><path d="M30.66 40.11l-9.47 14.25a1.43 1.43 0 01-2.38 0L9.34 40.11a2 2 0 010-2.22l9.47-14.25a1.43 1.43 0 012.38 0l9.47 14.25a2 2 0 010 2.22z" fill="url(#svg_card_diamonds_10_1)"/></svg>
