<svg xmlns="http://www.w3.org/2000/svg" viewBox="0 0 40 60"><defs><linearGradient id="Nepojmenovaný_přechod_7" x1="20" y1="27.21" x2="20" y2="53.31" gradientUnits="userSpaceOnUse"><stop offset="0" stop-color="#ed425f"/><stop offset=".2" stop-color="#eb3d59"/><stop offset=".47" stop-color="#e63047"/><stop offset=".78" stop-color="#dc1b29"/><stop offset="1" stop-color="#d50911"/></linearGradient><style>.cls-2{fill:#d50911}</style></defs><g id="Vrstva_2"><g id="icon"><rect width="40" height="60" rx="4" fill="#fff"/><path class="cls-2" d="M6.24 14.56V13h1.85V6.59L6 7.91l-.79-1.39 2.88-1.76H10V13h1.54v1.58zM20.13 9.66c0 3.43-1.68 5-3.78 5s-3.77-1.61-3.77-5 1.68-5 3.77-5 3.78 1.57 3.78 5zm-5.5 0c0 2 .45 3.24 1.72 3.24s1.74-1.21 1.74-3.24-.45-3.23-1.74-3.23-1.72 1.2-1.72 3.23z"/><path d="M20 27c-1.5 0-5 2.75-8.12 5.88S6 39.5 6 41s2.75 5 5.88 8.12S18.5 55 20 55s5-2.75 8.12-5.88S34 42.5 34 41s-2.75-5-5.88-8.12S21.5 27 20 27z" fill="url(#Nepojmenovaný_přechod_7)"/><circle class="cls-2" cx="30" cy="10" r="4"/></g></g></svg>
