<svg xmlns="http://www.w3.org/2000/svg" viewBox="0 0 40 60"><defs><linearGradient id="svg_card_diamonds_2_1" x1="20" y1="27.21" x2="20" y2="53.31" gradientUnits="userSpaceOnUse"><stop offset="0" stop-color="#ed425f"/><stop offset=".2" stop-color="#eb3d59"/><stop offset=".47" stop-color="#e63047"/><stop offset=".78" stop-color="#dc1b29"/><stop offset="1" stop-color="#d50911"/></linearGradient></defs><rect width="40" height="60" rx="4" fill="#fff"/><path d="M5.77 14.56V13c4.09-2.71 5-3.94 5-5.28a1.35 1.35 0 00-1.5-1.5 1.47 1.47 0 00-1.7 1.55h-1.8c0-2 1.57-3.19 3.6-3.19 2.23 0 3.38 1.3 3.38 3 0 1.93-1.32 3.25-4.61 5.36h4.59v1.58z" fill="#d50911"/><path d="M20 27c-1.5 0-5 2.75-8.12 5.88S6 39.5 6 41s2.75 5 5.88 8.12S18.5 55 20 55s5-2.75 8.12-5.88S34 42.5 34 41s-2.75-5-5.88-8.12S21.5 27 20 27z" fill="url(#svg_card_diamonds_2_1)"/><circle cx="30" cy="10" r="4" fill="#d50911"/></svg>
