<svg xmlns="http://www.w3.org/2000/svg" viewBox="0 0 40 60"><defs><linearGradient id="svg_card_diamonds_3_1" x1="19.22" y1="32.86" x2="21.66" y2="52.01" gradientUnits="userSpaceOnUse"><stop offset="0" stop-color="#ed425f"/><stop offset=".2" stop-color="#eb3d59"/><stop offset=".47" stop-color="#e63047"/><stop offset=".78" stop-color="#dc1b29"/><stop offset="1" stop-color="#d50911"/></linearGradient></defs><rect width="40" height="60" rx="4" fill="#fff"/><path fill="#d50911" d="M8.56 8.83c1.71 0 2.13-.51 2.13-1.44 0-.78-.35-1.27-1.5-1.27s-1.57.43-1.68 1.4h-1.8c.07-1.84 1.59-2.9 3.58-2.9 2.18 0 3.43 1.06 3.43 2.56s-.86 2.15-2.4 2.34c1.64.14 2.52.93 2.52 2.34 0 1.71-1.48 2.84-3.67 2.84-2 0-3.48-1.1-3.55-2.92h1.82c.12 1 .64 1.43 1.79 1.43s1.63-.58 1.63-1.42-.49-1.53-2.3-1.53zm25.32 1.05l-3.45 4.9a.53.53 0 01-.86 0l-3.45-4.9a.66.66 0 010-.76l3.45-4.9a.53.53 0 01.86 0l3.45 4.9a.66.66 0 010 .76z"/><path d="M30.66 40.11l-9.47 14.25a1.43 1.43 0 01-2.38 0L9.34 40.11a2 2 0 010-2.22l9.47-14.25a1.43 1.43 0 012.38 0l9.47 14.25a2 2 0 010 2.22z" fill="url(#svg_card_diamonds_3_1)"/></svg>
