<svg xmlns="http://www.w3.org/2000/svg" viewBox="0 0 40 60"><defs><linearGradient id="svg_card_diamonds_3_1" x1="20" y1="27.21" x2="20" y2="53.31" gradientUnits="userSpaceOnUse"><stop offset="0" stop-color="#ed425f"/><stop offset=".2" stop-color="#eb3d59"/><stop offset=".47" stop-color="#e63047"/><stop offset=".78" stop-color="#dc1b29"/><stop offset="1" stop-color="#d50911"/></linearGradient></defs><rect width="40" height="60" rx="4" fill="#fff"/><path d="M8.56 8.83c1.71 0 2.13-.51 2.13-1.44 0-.78-.35-1.27-1.5-1.27s-1.57.43-1.68 1.4h-1.8c.07-1.84 1.59-2.9 3.58-2.9 2.18 0 3.43 1.06 3.43 2.56s-.86 2.15-2.4 2.34c1.64.14 2.52.93 2.52 2.34 0 1.71-1.48 2.84-3.67 2.84-2 0-3.48-1.1-3.55-2.92h1.82c.12 1 .64 1.43 1.79 1.43s1.63-.58 1.63-1.42-.49-1.53-2.3-1.53z" fill="#d50911"/><circle cx="30" cy="10" r="4" fill="#d50911"/><path d="M20 27c-1.5 0-5 2.75-8.12 5.88S6 39.5 6 41s2.75 5 5.88 8.12S18.5 55 20 55s5-2.75 8.12-5.88S34 42.5 34 41s-2.75-5-5.88-8.12S21.5 27 20 27z" fill="url(#svg_card_diamonds_3_1)"/></svg>
