<svg xmlns="http://www.w3.org/2000/svg" viewBox="0 0 40 60"><defs><linearGradient id="svg_card_diamonds_5_1" x1="19.22" y1="32.86" x2="21.66" y2="52.01" gradientUnits="userSpaceOnUse"><stop offset="0" stop-color="#ed425f"/><stop offset=".2" stop-color="#eb3d59"/><stop offset=".47" stop-color="#e63047"/><stop offset=".78" stop-color="#dc1b29"/><stop offset="1" stop-color="#d50911"/></linearGradient></defs><rect width="40" height="60" rx="4" fill="#fff"/><path fill="#d50911" d="M12.21 4.76v1.58H7.94l-.11 2a9.69 9.69 0 011.61-.15c1.93 0 3.45 1.13 3.45 3.11a3.45 3.45 0 01-3.77 3.4c-2 0-3.36-1-3.42-2.94h1.72c.1 1 .62 1.46 1.75 1.46a1.66 1.66 0 001.74-1.81c0-1.13-.57-1.78-2.06-1.78A17.09 17.09 0 006 9.87l.34-5.11zm21.67 5.12l-3.45 4.9a.53.53 0 01-.86 0l-3.45-4.9a.66.66 0 010-.76l3.45-4.9a.53.53 0 01.86 0l3.45 4.9a.66.66 0 010 .76z"/><path d="M30.66 40.11l-9.47 14.25a1.43 1.43 0 01-2.38 0L9.34 40.11a2 2 0 010-2.22l9.47-14.25a1.43 1.43 0 012.38 0l9.47 14.25a2 2 0 010 2.22z" fill="url(#svg_card_diamonds_5_1)"/></svg>
