<svg xmlns="http://www.w3.org/2000/svg" viewBox="0 0 40 60"><defs><linearGradient id="svg_card_diamonds_6_1" x1="20" y1="27.21" x2="20" y2="53.31" gradientUnits="userSpaceOnUse"><stop offset="0" stop-color="#ed425f"/><stop offset=".2" stop-color="#eb3d59"/><stop offset=".47" stop-color="#e63047"/><stop offset=".78" stop-color="#dc1b29"/><stop offset="1" stop-color="#d50911"/></linearGradient></defs><rect width="40" height="60" rx="4" fill="#fff"/><path d="M12.87 7.38h-1.78a1.4 1.4 0 00-1.52-1.3c-1.35 0-2 1.14-2.08 3.11a3 3 0 012.34-1.06 2.89 2.89 0 013.1 3 3.4 3.4 0 01-3.59 3.57c-2.43 0-3.81-1.8-3.81-4.91S7 4.62 9.59 4.62a3 3 0 013.28 2.76zm-3.43 5.71c1.11 0 1.6-.74 1.6-1.78s-.41-1.76-1.63-1.76a2.33 2.33 0 00-1.89.94c.1 1.58.65 2.6 1.92 2.6z" fill="#d50911"/><path d="M20 27c-1.5 0-5 2.75-8.12 5.88S6 39.5 6 41s2.75 5 5.88 8.12S18.5 55 20 55s5-2.75 8.12-5.88S34 42.5 34 41s-2.75-5-5.88-8.12S21.5 27 20 27z" fill="url(#svg_card_diamonds_6_1)"/><circle cx="30" cy="10" r="4" fill="#d50911"/></svg>
