<svg xmlns="http://www.w3.org/2000/svg" viewBox="0 0 40 60"><defs><linearGradient id="svg_card_diamonds_6_1" x1="19.22" y1="32.86" x2="21.66" y2="52.01" gradientUnits="userSpaceOnUse"><stop offset="0" stop-color="#ed425f"/><stop offset=".2" stop-color="#eb3d59"/><stop offset=".47" stop-color="#e63047"/><stop offset=".78" stop-color="#dc1b29"/><stop offset="1" stop-color="#d50911"/></linearGradient></defs><rect width="40" height="60" rx="4" fill="#fff"/><path fill="#d50911" d="M12.87 7.38h-1.78a1.4 1.4 0 00-1.52-1.3c-1.35 0-2 1.14-2.08 3.11a3 3 0 012.34-1.06 2.89 2.89 0 013.1 3 3.4 3.4 0 01-3.59 3.57c-2.43 0-3.81-1.8-3.81-4.91S7 4.62 9.59 4.62a3 3 0 013.28 2.76zm-3.43 5.71c1.11 0 1.6-.74 1.6-1.78s-.41-1.76-1.63-1.76a2.33 2.33 0 00-1.89.94c.1 1.58.65 2.6 1.92 2.6zm24.44-3.21l-3.45 4.9a.53.53 0 01-.86 0l-3.45-4.9a.66.66 0 010-.76l3.45-4.9a.53.53 0 01.86 0l3.45 4.9a.66.66 0 010 .76z"/><path d="M30.66 40.11l-9.47 14.25a1.43 1.43 0 01-2.38 0L9.34 40.11a2 2 0 010-2.22l9.47-14.25a1.43 1.43 0 012.38 0l9.47 14.25a2 2 0 010 2.22z" fill="url(#svg_card_diamonds_6_1)"/></svg>
