<svg xmlns="http://www.w3.org/2000/svg" viewBox="0 0 40 60"><defs><linearGradient id="svg_card_diamonds_8_1" x1="20" y1="27.21" x2="20" y2="53.31" gradientUnits="userSpaceOnUse"><stop offset="0" stop-color="#ed425f"/><stop offset=".2" stop-color="#eb3d59"/><stop offset=".47" stop-color="#e63047"/><stop offset=".78" stop-color="#dc1b29"/><stop offset="1" stop-color="#d50911"/></linearGradient></defs><rect width="40" height="60" rx="4" fill="#fff"/><path d="M12.62 7.25a2.21 2.21 0 01-2 2.22 2.4 2.4 0 012.2 2.53c0 1.68-1.22 2.73-3.59 2.73s-3.59-1-3.59-2.73a2.35 2.35 0 012.25-2.48 2.31 2.31 0 01-2-2.28C5.85 5.78 7 4.62 9.23 4.62s3.39 1.18 3.39 2.63zm-5.1 4.43c0 .85.55 1.43 1.71 1.43s1.71-.58 1.71-1.43c0-1.08-.76-1.44-1.71-1.44s-1.71.36-1.71 1.44zm.23-4.23c0 1 .58 1.36 1.48 1.36s1.48-.41 1.48-1.36c0-.73-.44-1.28-1.48-1.28s-1.48.55-1.48 1.28z" fill="#d50911"/><path d="M20 27c-1.5 0-5 2.75-8.12 5.88S6 39.5 6 41s2.75 5 5.88 8.12S18.5 55 20 55s5-2.75 8.12-5.88S34 42.5 34 41s-2.75-5-5.88-8.12S21.5 27 20 27z" fill="url(#svg_card_diamonds_8_1)"/><circle cx="30" cy="10" r="4" fill="#d50911"/></svg>
