<svg xmlns="http://www.w3.org/2000/svg" viewBox="0 0 40 60"><defs><linearGradient id="svg_card_diamonds_8_1" x1="19.22" y1="32.86" x2="21.66" y2="52.01" gradientUnits="userSpaceOnUse"><stop offset="0" stop-color="#ed425f"/><stop offset=".2" stop-color="#eb3d59"/><stop offset=".47" stop-color="#e63047"/><stop offset=".78" stop-color="#dc1b29"/><stop offset="1" stop-color="#d50911"/></linearGradient></defs><rect width="40" height="60" rx="4" fill="#fff"/><path fill="#d50911" d="M12.62 7.25a2.21 2.21 0 01-2 2.22 2.4 2.4 0 012.2 2.53c0 1.68-1.22 2.73-3.59 2.73s-3.59-1-3.59-2.73a2.35 2.35 0 012.25-2.48 2.31 2.31 0 01-2-2.28C5.85 5.78 7 4.62 9.23 4.62s3.39 1.18 3.39 2.63zm-5.1 4.43c0 .85.55 1.43 1.71 1.43s1.71-.58 1.71-1.43c0-1.08-.76-1.44-1.71-1.44s-1.71.36-1.71 1.44zm.23-4.23c0 1 .58 1.36 1.48 1.36s1.48-.41 1.48-1.36c0-.73-.44-1.28-1.48-1.28s-1.48.55-1.48 1.28zM33.88 9.88l-3.45 4.9a.53.53 0 01-.86 0l-3.45-4.9a.66.66 0 010-.76l3.45-4.9a.53.53 0 01.86 0l3.45 4.9a.66.66 0 010 .76z"/><path d="M30.66 40.11l-9.47 14.25a1.43 1.43 0 01-2.38 0L9.34 40.11a2 2 0 010-2.22l9.47-14.25a1.43 1.43 0 012.38 0l9.47 14.25a2 2 0 010 2.22z" fill="url(#svg_card_diamonds_8_1)"/></svg>
