<svg xmlns="http://www.w3.org/2000/svg" viewBox="0 0 40 60"><defs><linearGradient id="Nepojmenovaný_přechod_7" x1="20" y1="27.21" x2="20" y2="53.31" gradientUnits="userSpaceOnUse"><stop offset="0" stop-color="#ed425f"/><stop offset=".2" stop-color="#eb3d59"/><stop offset=".47" stop-color="#e63047"/><stop offset=".78" stop-color="#dc1b29"/><stop offset="1" stop-color="#d50911"/></linearGradient><style>.cls-2{fill:#d50911}</style></defs><g id="Vrstva_2"><g id="icon"><rect width="40" height="60" rx="4" fill="#fff"/><path class="cls-2" d="M12.93 9.54c0 3.08-1.44 5.16-4.06 5.16-1.83 0-3.21-1-3.28-2.77h1.75a1.39 1.39 0 001.55 1.32c1.35 0 2-1.15 2.08-3.11a3 3 0 01-2.34 1 2.9 2.9 0 01-3.1-3 3.4 3.4 0 013.59-3.52c2.44 0 3.81 1.81 3.81 4.92zM7.42 8c0 1 .42 1.76 1.64 1.76a2.29 2.29 0 001.88-.94c-.1-1.58-.65-2.6-1.92-2.6-1.09.01-1.6.78-1.6 1.78z"/><path d="M20 27c-1.5 0-5 2.75-8.12 5.88S6 39.5 6 41s2.75 5 5.88 8.12S18.5 55 20 55s5-2.75 8.12-5.88S34 42.5 34 41s-2.75-5-5.88-8.12S21.5 27 20 27z" fill="url(#Nepojmenovaný_přechod_7)"/><circle class="cls-2" cx="30" cy="10" r="4"/></g></g></svg>
