<svg xmlns="http://www.w3.org/2000/svg" viewBox="0 0 40 60"><defs><linearGradient id="svg_card_diamonds_9_1" x1="19.22" y1="32.86" x2="21.66" y2="52.01" gradientUnits="userSpaceOnUse"><stop offset="0" stop-color="#ed425f"/><stop offset=".2" stop-color="#eb3d59"/><stop offset=".47" stop-color="#e63047"/><stop offset=".78" stop-color="#dc1b29"/><stop offset="1" stop-color="#d50911"/></linearGradient></defs><rect width="40" height="60" rx="4" fill="#fff"/><path fill="#d50911" d="M12.93 9.54c0 3.08-1.44 5.16-4.06 5.16-1.83 0-3.21-1-3.28-2.77h1.75a1.39 1.39 0 001.55 1.32c1.35 0 2-1.15 2.08-3.11a3 3 0 01-2.34 1 2.9 2.9 0 01-3.1-3 3.4 3.4 0 013.59-3.52c2.44 0 3.81 1.81 3.81 4.92zM7.42 8c0 1 .42 1.76 1.64 1.76a2.29 2.29 0 001.88-.94c-.1-1.58-.65-2.6-1.92-2.6-1.09.01-1.6.78-1.6 1.78zM33.88 9.88l-3.45 4.9a.53.53 0 01-.86 0l-3.45-4.9a.66.66 0 010-.76l3.45-4.9a.53.53 0 01.86 0l3.45 4.9a.66.66 0 010 .76z"/><path d="M30.66 40.11l-9.47 14.25a1.43 1.43 0 01-2.38 0L9.34 40.11a2 2 0 010-2.22l9.47-14.25a1.43 1.43 0 012.38 0l9.47 14.25a2 2 0 010 2.22z" fill="url(#svg_card_diamonds_9_1)"/></svg>
