<svg xmlns="http://www.w3.org/2000/svg" viewBox="0 0 40 60"><defs><linearGradient id="Nepojmenovaný_přechod_7" x1="20" y1="27.21" x2="20" y2="53.31" gradientUnits="userSpaceOnUse"><stop offset="0" stop-color="#ed425f"/><stop offset=".2" stop-color="#eb3d59"/><stop offset=".47" stop-color="#e63047"/><stop offset=".78" stop-color="#dc1b29"/><stop offset="1" stop-color="#d50911"/></linearGradient><style>.cls-2{fill:#d50911}</style></defs><g id="Vrstva_2"><g id="icon"><rect width="40" height="60" rx="4" fill="#fff"/><path class="cls-2" d="M10.09 4.76l3.31 9.8h-2.21l-.82-2.49H6.76L6 14.56H3.85l3.33-9.8zM8.2 7.55l-1 3h2.71l-1-3c-.12-.41-.28-1-.36-1.46a14.77 14.77 0 01-.35 1.46z"/><path d="M20 27c-1.5 0-5 2.75-8.12 5.88S6 39.5 6 41s2.75 5 5.88 8.12S18.5 55 20 55s5-2.75 8.12-5.88S34 42.5 34 41s-2.75-5-5.88-8.12S21.5 27 20 27z" fill="url(#Nepojmenovaný_přechod_7)"/><circle class="cls-2" cx="30" cy="10" r="4"/></g></g></svg>
