<svg xmlns="http://www.w3.org/2000/svg" viewBox="0 0 40 60"><defs><linearGradient id="Nepojmenovaný_přechod_5" x1="20" y1="45.3" x2="20" y2="59.58" gradientUnits="userSpaceOnUse"><stop offset=".16" stop-color="#ed425f"/><stop offset=".32" stop-color="#eb3d59"/><stop offset=".55" stop-color="#e63047"/><stop offset=".82" stop-color="#dc1b29"/><stop offset="1" stop-color="#d50911"/></linearGradient><linearGradient id="Nepojmenovaný_přechod_6" x1="20.5" y1="49.94" x2="20.5" y2="43.36" gradientUnits="userSpaceOnUse"><stop offset="0" stop-color="#fff"/><stop offset=".43" stop-color="#e9eef6"/><stop offset=".74" stop-color="#dfe6f2"/></linearGradient><style>.cls-1{fill:#fff}.cls-2{fill:#d50911}.cls-3{fill:#7d374e}.cls-5{fill:#1d1b40}</style></defs><g id="Vrstva_2"><g id="icon"><rect class="cls-1" width="40" height="60" rx="4"/><path class="cls-2" d="M11.58 4.76v6.76c0 2-1.43 3.18-3.64 3.18a3.19 3.19 0 01-3.38-2.94h2.07A1.24 1.24 0 008 13c1.11 0 1.54-.45 1.54-1.43V4.76z"/><circle class="cls-2" cx="30" cy="10" r="4"/><path class="cls-3" d="M35 45h-.51a2.45 2.45 0 00.51-1.5 2.5 2.5 0 00-2.5-2.5 2.45 2.45 0 00.5-1.5 2.5 2.5 0 00-2-2.45V33a9.67 9.67 0 00-.21-1.88A3.45 3.45 0 0032 28.5a3.5 3.5 0 00-3.5-3.5H27a9.94 9.94 0 00-12 0h-2.5a3.5 3.5 0 00-1.41 6.7A9.36 9.36 0 0011 33v4a2.5 2.5 0 00-2 2.5 2.45 2.45 0 00.51 1.5A2.5 2.5 0 007 43.5a2.45 2.45 0 00.51 1.5H7a3 3 0 000 6h28a3 3 0 000-6z"/><path d="M0 56a4 4 0 004 4h32a4 4 0 004-4c0-6-8-10-15-12h-8c-7 2-17 6-17 12z" fill="url(#Nepojmenovaný_přechod_5)"/><path class="cls-5" d="M27 49H14l-2 11h17l-2-11z"/><path d="M17 42c-4 0-7 1-7 3v2c0 2 3 4 10 4s11-2 11-4v-2c0-2-4-3-7-3z" fill="url(#Nepojmenovaný_přechod_6)"/><path class="cls-1" d="M24 39h-7v5c0 1 1 2 3 2s4-1 4-2z"/><path d="M19.5 27.39C18.59 29.49 16 32 14 32v4c0 2.76 3 7 6 7s6-4.24 6-7v-4c-3 0-5.58-2.48-6.5-4.61z" fill="#ffb29d"/><path class="cls-3" d="M20 46s-2-2-2-4c0-1 1-1 2-1s2 0 2 1c0 2-2 4-2 4z"/><path class="cls-5" d="M18 33.5a1.94 1.94 0 01-.29 1.06.79.79 0 01-1.42 0 2.08 2.08 0 010-2.12.79.79 0 011.42 0A1.94 1.94 0 0118 33.5zM23 33.5a1.94 1.94 0 01-.29 1.06.79.79 0 01-1.42 0 2.08 2.08 0 010-2.12.79.79 0 011.42 0A1.94 1.94 0 0123 33.5z"/><path d="M28 54.74l-.35-2A27.94 27.94 0 0120 54a15.68 15.68 0 01-6.66-1.38L13 54.69a19.4 19.4 0 005 1.21v.1a2 2 0 004 0v-.08a32.74 32.74 0 006-1.18z" fill="#f2c546"/></g></g></svg>
