<svg xmlns="http://www.w3.org/2000/svg" viewBox="0 0 40 60"><defs><linearGradient id="Nepojmenovaný_přechod_7" x1="20" y1="44.38" x2="20" y2="57.15" gradientUnits="userSpaceOnUse"><stop offset="0" stop-color="#ed425f"/><stop offset=".2" stop-color="#eb3d59"/><stop offset=".47" stop-color="#e63047"/><stop offset=".78" stop-color="#dc1b29"/><stop offset="1" stop-color="#d50911"/></linearGradient><linearGradient id="Nepojmenovaný_přechod_9" x1="19.89" y1="62.51" x2="20.77" y2="42.58" gradientUnits="userSpaceOnUse"><stop offset="0" stop-color="#fff"/><stop offset="1" stop-color="#dfe6f2"/></linearGradient><style>.cls-2{fill:#d50911}.cls-3{fill:#67739c}.cls-5{fill:#1d1b40}.cls-6{fill:#f2c546}.cls-10{fill:#a9b3cc}</style></defs><g id="Vrstva_2"><g id="icon"><rect width="40" height="60" rx="4" fill="#fff"/><path class="cls-2" d="M5.74 14.56v-9.8h2v9.8zm5.91 0L7.84 9.41l3.6-4.65h2.32l-3.6 4.52 3.9 5.28z"/><circle class="cls-2" cx="30" cy="10" r="4"/><path class="cls-3" d="M32.83 40.18a1.52 1.52 0 00.17-.68 1.5 1.5 0 00-1.5-1.5H31v-5a4 4 0 00-4-4H16a4 4 0 00-4 4v5h-.5a1.5 1.5 0 00-1.5 1.5 1.52 1.52 0 00.17.68A2 2 0 0011 44h21a2 2 0 00.83-3.82z"/><path d="M0 56a4 4 0 004 4h32a4 4 0 004-4c0-6-9-13-14-13h-9c-4 0-17 7-17 13z" fill="url(#Nepojmenovaný_přechod_7)"/><path class="cls-5" d="M26 43v-3h-9v3l-5 17h15l-1-17z"/><path class="cls-6" d="M25 20a1 1 0 00-1 1v1h-2v-1a1 1 0 00-2 0v1h-2v-1a1 1 0 00-2 0v3a1 1 0 001 1h8a1 1 0 001-1v-3a1 1 0 00-1-1z"/><path d="M26 43v-3c2 0 4 2 5 4a82.16 82.16 0 014 16h-8zM12 60l5-17v-3a7.58 7.58 0 00-4 2c-1.11 1.11-6.32 8.5-8 18z" fill="url(#Nepojmenovaný_přechod_9)"/><path d="M28 33.28V35a1 1 0 01-1 1v-5c0-3-2-5-6-5s-6 2-6 5v2.28a2 2 0 000 3.44V38a4 4 0 004 4h4.63A3.37 3.37 0 0027 38.63V37a2 2 0 002-2 2 2 0 00-1-1.72z" fill="#ffb29d"/><path d="M21 26a9.24 9.24 0 00-1.81.16S18 27 21 27s2.08-.79 2.08-.79A9.44 9.44 0 0021 26z" fill="#f1827c"/><path class="cls-5" d="M18 34.5a1.94 1.94 0 01-.29 1.06.79.79 0 01-1.42 0 2.08 2.08 0 010-2.12.79.79 0 011.42 0A1.94 1.94 0 0118 34.5zM25 34.5a1.94 1.94 0 01-.29 1.06.79.79 0 01-1.42 0 2.08 2.08 0 010-2.12.79.79 0 011.42 0A1.94 1.94 0 0125 34.5z"/><path class="cls-3" d="M18 32h-1a1 1 0 01-1-1 1 1 0 011-1h1a1 1 0 011 1 1 1 0 01-1 1zM25 32h-2a1 1 0 01-1-1 1 1 0 011-1h2a1 1 0 011 1 1 1 0 01-1 1z"/><path class="cls-6" d="M26.23 47a13.94 13.94 0 01-10.43.1l.56-1.92a14.09 14.09 0 009.76-.18z"/><circle class="cls-10" cx="31" cy="57" r="1"/><circle class="cls-10" cx="9" cy="57" r="1"/><circle class="cls-10" cx="30" cy="52" r="1"/><circle class="cls-10" cx="11" cy="52" r="1"/><circle class="cls-10" cx="29" cy="47" r="1"/><circle class="cls-10" cx="13" cy="47" r="1"/><circle class="cls-6" cx="20" cy="53" r="2"/><circle class="cls-6" cx="24" cy="52" r="1"/><circle class="cls-6" cx="16" cy="52" r="1"/></g></g></svg>
