<svg xmlns="http://www.w3.org/2000/svg" viewBox="0 0 40 60"><defs><linearGradient id="svg_card_diamonds_king_1" x1="20" y1="44.38" x2="20" y2="57.15" gradientUnits="userSpaceOnUse"><stop offset="0" stop-color="#ed425f"/><stop offset=".2" stop-color="#eb3d59"/><stop offset=".47" stop-color="#e63047"/><stop offset=".78" stop-color="#dc1b29"/><stop offset="1" stop-color="#d50911"/></linearGradient><linearGradient id="svg_card_diamonds_king_2" x1="19.89" y1="62.51" x2="20.77" y2="42.58" gradientUnits="userSpaceOnUse"><stop offset="0" stop-color="#fff"/><stop offset="1" stop-color="#dfe6f2"/></linearGradient></defs><rect width="40" height="60" rx="4" fill="#fff"/><path fill="#d50911" d="M5.74 14.56v-9.8h2v9.8zm5.91 0L7.84 9.41l3.6-4.65h2.32l-3.6 4.52 3.9 5.28z"/><path fill="#67739c" d="M32.83 40.18a1.52 1.52 0 00.17-.68 1.5 1.5 0 00-1.5-1.5H31v-5a4 4 0 00-4-4H16a4 4 0 00-4 4v5h-.5a1.5 1.5 0 00-1.5 1.5 1.52 1.52 0 00.17.68A2 2 0 0011 44h21a2 2 0 00.83-3.82z"/><path d="M0 56a4 4 0 004 4h32a4 4 0 004-4c0-6-9-13-14-13h-9c-4 0-17 7-17 13z" fill="url(#svg_card_diamonds_king_1)"/><path fill="#1d1b40" d="M26 43v-3h-9v3l-5 17h15l-1-17z"/><path fill="#f2c546" d="M25 20a1 1 0 00-1 1v1h-2v-1a1 1 0 00-2 0v1h-2v-1a1 1 0 00-2 0v3a1 1 0 001 1h8a1 1 0 001-1v-3a1 1 0 00-1-1z"/><path d="M26 43v-3c2 0 4 2 5 4a82.16 82.16 0 014 16h-8zM12 60l5-17v-3a7.58 7.58 0 00-4 2c-1.11 1.11-6.32 8.5-8 18z" fill="url(#svg_card_diamonds_king_2)"/><path d="M28 33.28V35a1 1 0 01-1 1v-5c0-3-2-5-6-5s-6 2-6 5v2.28a2 2 0 000 3.44V38a4 4 0 004 4h4.63A3.37 3.37 0 0027 38.63V37a2 2 0 002-2 2 2 0 00-1-1.72z" fill="#ffb29d"/><path d="M21 26a9.24 9.24 0 00-1.81.16S18 27 21 27s2.08-.79 2.08-.79A9.44 9.44 0 0021 26z" fill="#f1827c"/><path fill="#1d1b40" d="M18 34.5a1.94 1.94 0 01-.29 1.06.79.79 0 01-1.42 0 2.08 2.08 0 010-2.12.79.79 0 011.42 0A1.94 1.94 0 0118 34.5zM25 34.5a1.94 1.94 0 01-.29 1.06.79.79 0 01-1.42 0 2.08 2.08 0 010-2.12.79.79 0 011.42 0A1.94 1.94 0 0125 34.5z"/><path fill="#67739c" d="M18 32h-1a1 1 0 01-1-1 1 1 0 011-1h1a1 1 0 011 1 1 1 0 01-1 1zM25 32h-2a1 1 0 01-1-1 1 1 0 011-1h2a1 1 0 011 1 1 1 0 01-1 1z"/><path fill="#f2c546" d="M26.23 47a13.94 13.94 0 01-10.43.1l.56-1.92a14.09 14.09 0 009.76-.18z"/><circle fill="#f2c546" cx="20" cy="53" r="2"/><circle fill="#f2c546" cx="24" cy="52" r="1"/><circle fill="#f2c546" cx="16" cy="52" r="1"/><path fill="#a9b3cc" d="M30 45h-1v-1h-1v1h-1v1h1v1h1v-1h1v-1zM31 50h-1v-1h-1v1h-1v1h1v1h1v-1h1v-1zM32 56h-1v-1h-1v1h-1v1h1v1h1v-1h1v-1zM15 45h-1v-1h-1v1h-1v1h1v1h1v-1h1v-1zM13 50h-1v-1h-1v1h-1v1h1v1h1v-1h1v-1zM11 56h-1v-1H9v1H8v1h1v1h1v-1h1v-1z"/><path fill="#d50911" d="M33.88 9.88l-3.45 4.9a.53.53 0 01-.86 0l-3.45-4.9a.66.66 0 010-.76l3.45-4.9a.53.53 0 01.86 0l3.45 4.9a.66.66 0 010 .76z"/></svg>
