<svg xmlns="http://www.w3.org/2000/svg" viewBox="0 0 40 60"><defs><linearGradient id="svg_card_diamonds_queen_1" x1="20" y1="48.32" x2="20" y2="59.4" gradientUnits="userSpaceOnUse"><stop offset="0" stop-color="#ed425f"/><stop offset=".24" stop-color="#ec3f5b"/><stop offset=".46" stop-color="#e83750"/><stop offset=".68" stop-color="#e2293d"/><stop offset=".89" stop-color="#da1622"/><stop offset="1" stop-color="#d50911"/></linearGradient><linearGradient id="b" x1="20.83" y1="49.89" x2="20.83" y2="42.21" gradientUnits="userSpaceOnUse"><stop offset="0" stop-color="#fff"/><stop offset="1" stop-color="#dfe6f2"/></linearGradient></defs><rect width="40" height="60" rx="4" fill="#fff"/><path d="M14.69 9.66a5.06 5.06 0 01-1.75 4.06l1.78 2.36h-2.15l-1.13-1.57a5.26 5.26 0 01-1.4.19c-2.87 0-4.65-2.18-4.65-5s1.78-5 4.65-5 4.65 2.1 4.65 4.96zm-3.47 1.77l.57.77a3.85 3.85 0 00.74-2.54c0-1.95-.77-3.26-2.49-3.26S7.56 7.71 7.56 9.66s.75 3.27 2.48 3.27h.25l-1.08-1.5z" fill="#d50911"/><circle cx="30" cy="10" r="4" fill="#d50911"/><path d="M29 46H14s0-14 1-16 6-2 6-2 5 0 6 2 2 16 2 16z" fill="#d50911"/><path d="M33.91 47.49L7.74 47.2C3.54 50 0 53.28 0 56a4 4 0 004 4h32a4 4 0 004-4c0-2.62-2.75-5.8-6.09-8.51z" fill="url(#svg_card_diamonds_queen_1)"/><path d="M25 42a12.18 12.18 0 00-7 0 48.29 48.29 0 00-10.26 5.2A17 17 0 0020 52c9 0 13.91-4.51 13.91-4.51A38.47 38.47 0 0025 42z" fill="url(#b)"/><path d="M32.55 46.44A15.77 15.77 0 0127 49.33a1.49 1.49 0 00-3 .17 1.36 1.36 0 00.05.36c-.72.07-1.43.11-2.14.12a1.28 1.28 0 00.09-.48 1.5 1.5 0 00-3 0 1.45 1.45 0 00.08.47c-.71 0-1.41-.08-2.11-.17a1.53 1.53 0 000-.3 1.5 1.5 0 00-2.95-.35A14.07 14.07 0 019 46.4l-1.26.8A17 17 0 0020 52c9 0 13.91-4.51 13.91-4.51-.44-.36-.91-.71-1.36-1.05z" fill="#f2c546"/><path d="M25 42c0 1-1 2-4 2-2 0-3-1-3-2v-5h7z" fill="#fff"/><rect x="15" y="24" width="12" height="17" rx="6" fill="#ffb29d"/><path d="M19 31.5a1.94 1.94 0 01-.29 1.06.79.79 0 01-1.42 0 2.08 2.08 0 010-2.12.79.79 0 011.42 0A1.94 1.94 0 0119 31.5zm5 0a1.94 1.94 0 01-.29 1.06.79.79 0 01-1.42 0 2.08 2.08 0 010-2.12.79.79 0 011.42 0A1.94 1.94 0 0124 31.5z" fill="#1d1b40"/><path d="M34 60c-1-12-5-28.2-6-34a2.8 2.8 0 00-3-3h-8c-1.66 0-2.57 1.05-3 3-1 4.54-5 25-6 34h7c-1-11 0-28 1-32h9c2 3 1 19 0 32z" fill="#1d1b40"/><path d="M25.44 29h-9.65a5.84 5.84 0 01.21-1h9a3.74 3.74 0 01.44 1z" fill="#f1827c"/><path d="M24.47 29h-2a1 1 0 01-1-1 1 1 0 011-1h2a1 1 0 011 1 1 1 0 01-1 1zm-6 0h-2a1 1 0 01-1-1 1 1 0 011-1h2a1 1 0 011 1 1 1 0 01-1 1z" fill="#1d1b40"/><path d="M28 26h-2a1 1 0 00-2 0h-2a2 2 0 00-4 0h-1a1 1 0 00-2 0h-1a1 1 0 000 2h14a1 1 0 000-2z" fill="#f2c546"/></svg>
