<svg xmlns="http://www.w3.org/2000/svg" viewBox="0 0 40 60"><rect width="40" height="60" rx="4" fill="#fff"/><rect x="3" y="3" width="34" height="54" rx="2" fill="#c7cedb"/><circle fill="#9ba0ba" cx="13" cy="40" r="4"/><path fill="#9ba0ba" d="M31.12 16.88A3 3 0 0029 16a2.11 2.11 0 00-2 1 2.11 2.11 0 00-2-1 3 3 0 00-2.12 5.12s3.38 3 4.12 3.88c.82-.88 4.12-3.88 4.12-3.88a3 3 0 000-4.24zM28 44a1 1 0 11-1-1 1 1 0 011 1zm3-4a2 2 0 01-2 2 2.25 2.25 0 01-2-1.42A2.21 2.21 0 0125 42a2 2 0 010-4 2.58 2.58 0 01.29 0 2 2 0 113.42 0 2.58 2.58 0 01.29 0 2 2 0 012 2zM16.4 22.41a2 2 0 01-2.82 0l-.58-.58-.58.58a2 2 0 01-2.82 0 2 2 0 010-2.82C10.42 18.58 13 16 13 16s2.58 2.58 3.4 3.59a2 2 0 010 2.82zM14 25a1 1 0 10-1 1 1 1 0 001-1z"/></svg>
