<svg xmlns="http://www.w3.org/2000/svg" viewBox="0 0 100 150"><path d="M90 0H10C4.477 0 0 4.477 0 10v130c0 5.523 4.477 10 10 10h80c5.523 0 10-4.477 10-10V10c0-5.523-4.477-10-10-10z" fill="#fff"/><path d="M87.5 7.5h-75a5 5 0 00-5 5v125a5 5 0 005 5h75a5 5 0 005-5v-125a5 5 0 00-5-5z" fill="#DFE6F2"/><path d="M82.5 77.5c0 12.5-10 27.5-32.5 35-20-7.5-32.5-22.5-32.5-35v-30S27.5 35 50 35s32.5 12.5 32.5 12.5v30z" fill="#9BA0BA"/><path d="M63.6 63.95a137.129 137.129 0 016.1 37.875A58.384 58.384 0 0150 112.5a103.87 103.87 0 01-13.6-6.925 111.957 111.957 0 003.3-17.5C51.25 80 63.6 63.95 63.6 63.95z" fill="#fff"/><path d="M67.725 43.475c-1.125-1.1-1.8-2.15-3.825-1.425-.75.275-5 3.475-8.6 5.7a34.675 34.675 0 00-17.8-1.15c-2.5 0-4.575-3.6-8.175-2a44.425 44.425 0 00-5.4 2.5 8.875 8.875 0 00-2.25 5c-.5 2.9-1.675 5.675.825 4.225a13.048 13.048 0 003.925-3.55l5.25 4.425L30 66.575s4.225 15.15 6.25 23.55A169.358 169.358 0 0054.3 82.35a15.776 15.776 0 008.65-9.275 24.251 24.251 0 001.475-7.225 24.426 24.426 0 012.5-5.5v4.625c0 2.85 1.3 5.7 4.3 4.1.475-.25 7.9-4.65 7.9-7.8 0-6.275-10.225-16.675-11.4-17.8z" fill="#404040"/><path d="M41.65 82.625s7.5 2.05 3.5 4.6c-7.35 4.75-17.5 6.325-21.825 3-4.325-3.325-1.1-5.775-1.1-5.775l19.425-1.825z" fill="#E8E8E8"/><path d="M40 49.125c-1.55-.3-3.126 1.875-4.3 5-1.25-.175-2.826-1-3.926 3.075-.9 3.425-4.125 9.075-5.6 9.825C23.35 68.45 15.35 71.725 14.4 77.3a9 9 0 004.85 10c1.974.575 3.825 1.175 4.125.25.3-.925.375-1.125.774 0 .4 1.125 3.6 2.5 6.8 2.8 4.275.225 12.5-2.125 18.875-5 7-3.2 12.076-7.15 13.076-11.75.9-4.05-13.05 1.525-13.475-9.65-.325-8.375-3-10.3-8.775-8.75-.65.175-1.25-.7-1-1.325.875-2.45 1.525-4.525.35-4.75z" fill="url(#svg_card_back_dog_1)"/><path d="M50.3 62.325c-.3-7.025-5.3-10.3-10.775-8.65-3.975 6.425-5 12.9-1.375 16.725 4.025 4.35 18.25 1.55 11.9 14.625 5.875-2.9 11.7-6.925 12.725-11.625.9-4.075-11.925.1-12.475-11.075z" fill="#C48147"/><path d="M22.65 82.5a24.25 24.25 0 01-6.9-6.175c-1.65-3.025-1.525-3.875.225-4.65a11.499 11.499 0 016.125-1.25c2.56.022 5.026.962 6.95 2.65a2.5 2.5 0 01.775 3.125 31.077 31.077 0 01-7.175 6.3z" fill="#404040"/><path d="M67.025 55a44.993 44.993 0 00-1.65-7.7 31.5 31.5 0 01-6.875 4.675 28.825 28.825 0 015.8 13.975 28.45 28.45 0 012.5-5.5s.2-3.625.225-5.45z" fill="#C48147"/><path d="M45.653 62.389c.83-2.27.158-4.601-1.501-5.209-1.66-.607-3.678.74-4.509 3.01-.83 2.268-.158 4.6 1.502 5.208 1.66.607 3.678-.74 4.508-3.01z" fill="#1F1207"/><path d="M35.575 54.125a41.197 41.197 0 01-5.875 9.65c-1.025.775-1.225 1.35-2.15 1.7A30.7 30.7 0 0031.7 57c.8-2.6 1.625-3.55 3.875-2.875z" fill="#C48147"/><path d="M31.5 57.725a4.325 4.325 0 00-2.275 2.35 4.6 4.6 0 000 2.675 30.526 30.526 0 002.275-5.025z" fill="#404040"/><path d="M69.7 101.825c-1.375 1.125-2.5 1.975-4.725 3.55A35.718 35.718 0 0152.5 107.5a47.249 47.249 0 01-15.75-3.5c.2-1 .7-2.8.975-4.35a44.024 44.024 0 0014.6 2.275 65.172 65.172 0 0017.325-2.25c.088.713.105 1.433.05 2.15z" fill="#D50911"/><path d="M51.55 110.95a6.498 6.498 0 01-7.563 6.428 6.505 6.505 0 01-3.337-1.628 9.6 9.6 0 01-2.5-3.05l10-7.925c.75.694 1.444 1.446 2.075 2.25a6.3 6.3 0 011.325 3.925z" fill="#F7931E"/><path d="M43.775 116.075a6.5 6.5 0 100-13 6.5 6.5 0 000 13z" fill="#FFC70A"/><defs><linearGradient id="svg_card_back_dog_1" x1="14.749" y1="69.275" x2="27.875" y2="69.525" gradientUnits="userSpaceOnUse"><stop stop-color="#E8E8E8"/><stop offset=".13" stop-color="#EDEDED"/><stop offset=".59" stop-color="#FBFBFB"/><stop offset="1" stop-color="#fff"/></linearGradient></defs></svg>
