<svg xmlns="http://www.w3.org/2000/svg" viewBox="0 0 40 60"><defs><linearGradient id="svg_card_back_dog_1" x1="5.9" y1="27.71" x2="11.15" y2="27.81" gradientUnits="userSpaceOnUse"><stop offset="0" stop-color="#e8e8e8"/><stop offset=".13" stop-color="#ededed"/><stop offset=".59" stop-color="#fbfbfb"/><stop offset="1" stop-color="#fff"/></linearGradient></defs><rect fill="#fff" width="40" height="60" rx="4"/><path d="M33 31c0 5-4 11-13 14-8-3-13-9-13-14V19s4-5 13-5 13 5 13 5z" fill="#9ba0ba"/><path fill="#fff" d="M25.44 25.58a54.85 54.85 0 012.44 15.15A23.36 23.36 0 0120 45a41.56 41.56 0 01-5.44-2.77 44.78 44.78 0 001.32-7c4.62-3.23 9.56-9.65 9.56-9.65z"/><path d="M27.09 17.39c-.45-.44-.72-.86-1.53-.57-.3.11-2 1.39-3.44 2.28a13.87 13.87 0 00-7.12-.46c-1 0-1.83-1.44-3.27-.8a17.77 17.77 0 00-2.16 1 3.55 3.55 0 00-.9 2C8.47 22 8 23.11 9 22.53a5.22 5.22 0 001.57-1.42l2.1 1.77-.67 3.75s1.69 6.06 2.5 9.42a67.74 67.74 0 007.22-3.11 6.31 6.31 0 003.46-3.71 9.7 9.7 0 00.59-2.89 9.77 9.77 0 011-2.2v1.85c0 1.14.52 2.28 1.72 1.64.19-.1 3.16-1.86 3.16-3.12 0-2.51-4.09-6.67-4.56-7.12z"/><path d="M16.66 33.05s3 .82 1.4 1.84c-2.94 1.9-7 2.53-8.73 1.2s-.44-2.31-.44-2.31z" fill="#e8e8e8"/><path d="M16 19.65c-.62-.12-1.25.75-1.72 2-.5-.07-1.13-.4-1.57 1.23-.36 1.37-1.65 3.63-2.24 3.93-1.13.57-4.33 1.88-4.71 4.11a3.6 3.6 0 001.94 4c.79.23 1.53.47 1.65.1s.15-.45.31 0 1.44 1 2.72 1.12c1.71.09 5-.85 7.55-2 2.8-1.28 4.83-2.86 5.23-4.7.36-1.62-5.22.61-5.39-3.86-.13-3.35-1.2-4.12-3.51-3.5-.26.07-.5-.28-.4-.53.35-.98.61-1.81.14-1.9z" fill="url(#svg_card_back_dog_1)"/><path fill="#c48147" d="M20.12 24.93c-.12-2.81-2.12-4.12-4.31-3.46-1.59 2.57-2 5.16-.55 6.69 1.61 1.74 7.3.62 4.76 5.85 2.35-1.16 4.68-2.77 5.09-4.65.36-1.63-4.77.04-4.99-4.43z"/><path d="M9.06 33a9.7 9.7 0 01-2.76-2.47c-.66-1.21-.61-1.55.09-1.86a4.6 4.6 0 012.45-.5 4.27 4.27 0 012.78 1.06 1 1 0 01.31 1.25A12.43 12.43 0 019.06 33z"/><path fill="#c48147" d="M26.81 22a18 18 0 00-.66-3.08 12.6 12.6 0 01-2.75 1.87 11.53 11.53 0 012.32 5.59 11.38 11.38 0 011-2.2s.08-1.45.09-2.18z"/><ellipse cx="17.06" cy="24.52" rx="1.75" ry="1.28" transform="rotate(-69.9 17.057 24.518)" fill="#1f1207"/><path fill="#c48147" d="M14.23 21.65a16.48 16.48 0 01-2.35 3.86c-.41.31-.49.54-.86.68a12.28 12.28 0 001.66-3.39c.32-1.04.65-1.42 1.55-1.15z"/><path d="M12.6 23.09a1.73 1.73 0 00-.91.94 1.84 1.84 0 000 1.07 12.21 12.21 0 00.91-2.01z"/><path d="M27.88 40.73c-.55.45-1 .79-1.89 1.42A14.28 14.28 0 0121 43a18.9 18.9 0 01-6.3-1.4c.08-.4.28-1.12.39-1.74a17.61 17.61 0 005.84.91 26.07 26.07 0 006.93-.9 4.3 4.3 0 01.02.86z" fill="#d50911"/><circle cx="17.51" cy="43.83" r="2.6" fill="#f2c546"/></svg>
