<svg xmlns="http://www.w3.org/2000/svg" viewBox="0 0 100 150"><path d="M90 0H10C4.477 0 0 4.477 0 10v130c0 5.523 4.477 10 10 10h80c5.523 0 10-4.477 10-10V10c0-5.523-4.477-10-10-10z" fill="#fff"/><path d="M87.5 7.5h-75a5 5 0 00-5 5v125a5 5 0 005 5h75a5 5 0 005-5v-125a5 5 0 00-5-5z" fill="#D50911"/><path fill-rule="evenodd" clip-rule="evenodd" d="M50.525 50.275c-1.45.225-2.925.5-4.35.825-.975.2-1.925.375-2.875.625s-1.775.425-2.625.7c-.85.275-1.65.525-2.5.85a14.723 14.723 0 00-4.35 2.5A12.226 12.226 0 0031.65 58c-.422.601-.806 1.227-1.15 1.875-.342.64-.53 1.35-.55 2.075a6.924 6.924 0 002.825 5.175 19.06 19.06 0 001.6 1.2 35.855 35.855 0 005.125 2.95 110.58 110.58 0 005.55 2.5c1.875.775 3.575 1.4 5.4 2.025l1.575.5c1.65.575 3.35 1.075 5 1.675 1 .375 2.1.725 3.125 1.175a20.449 20.449 0 013.1 1.65 6.248 6.248 0 011.55 1.7c.413.651.638 1.404.65 2.175a3.625 3.625 0 01-.575 2.075 10 10 0 01-4.525 3.45 79.814 79.814 0 01-7.85 2.925c-1.55.45-3.075.9-4.6 1.3l-4.675 1.225c-1.575.375-3.125.75-4.675 1.075l-2.7.575-1.6.35-3.35.725-3.825.825-1.125.275c-.325 0-1.55.35-.65.3.9-.05 4.7-.375 11.975-1.35l7.95-1.25c3.275-.525 6.55-1.175 9.8-1.95l2.775-.7 1.825-.55c2.5-.8 6.65-2.2 7.625-2.625 3.7-1.625 6-2.85 7.2-5.775A6.6 6.6 0 0075 82.25a7.499 7.499 0 00-.975-2.925 11.898 11.898 0 00-1.925-2.25A22.048 22.048 0 0067.5 74c-.45-.225-.925-.475-1.4-.675l-1.725-.825c-.825-.35-1.675-.65-2.5-.95-2.225-.775-4.475-1.45-6.725-2.175-1.25-.425-2.5-.875-3.725-1.4l-1.55-.7c-.575-.275-1.15-.6-1.725-.925-.575-.325-1.85-1.175-1.525-2.15.325-.975.975-1 1.625-1.25A13.737 13.737 0 0150 62.5c1.85-.475 3.725-.775 5.6-1.175l1.625-.375a32.79 32.79 0 004.35-1.15c1.175-.475 2.725-1.225 3.15-2.5a6.6 6.6 0 00-1.125-5.6L62.5 50c-.55-.75-1.15-1.475-1.75-2.225a.775.775 0 00-.875-.225c-.35.125-1.35 1.3-9.325 2.85" fill="#fff"/></svg>
