<svg xmlns="http://www.w3.org/2000/svg" viewBox="0 0 40 60"><rect width="40" height="60" rx="4" fill="#fff"/><rect x="3" y="3" width="34" height="54" rx="2" fill="#f0f0f0"/><path d="M20.21 20.11c-.58.09-1.17.2-1.74.33-.39.08-.77.15-1.15.25s-.71.17-1.05.28-.66.21-1 .34a5.89 5.89 0 00-1.74 1 4.89 4.89 0 00-.87.89 7.17 7.17 0 00-.46.75 1.87 1.87 0 00-.22.83 2.77 2.77 0 001.13 2.07 7.62 7.62 0 00.64.48 14.34 14.34 0 002.05 1.18c.73.35 1.47.69 2.22 1s1.43.56 2.16.81l.63.2c.66.23 1.34.43 2 .67.4.15.84.29 1.25.47a8.18 8.18 0 011.24.66 2.5 2.5 0 01.62.68 1.67 1.67 0 01.26.87 1.45 1.45 0 01-.23.83 4 4 0 01-1.81 1.38A31.92 31.92 0 0121 37.25c-.62.18-1.23.36-1.84.52l-1.87.49c-.63.15-1.25.3-1.87.43l-1.08.23-.64.14-1.34.29-1.53.33-.45.11c-.13 0-.62.14-.26.12s1.88-.15 4.79-.54l3.18-.5c1.31-.21 2.62-.47 3.92-.78l1.11-.28.73-.22c1-.32 2.66-.88 3.05-1.05 1.48-.65 2.4-1.14 2.88-2.31A2.64 2.64 0 0030 32.9a3 3 0 00-.39-1.17 4.76 4.76 0 00-.77-.9A8.82 8.82 0 0027 29.6c-.18-.09-.37-.19-.56-.27l-.69-.33c-.33-.14-.67-.26-1-.38-.89-.31-1.79-.58-2.69-.87-.5-.17-1-.35-1.49-.56l-.62-.28c-.23-.11-.46-.24-.69-.37s-.74-.47-.61-.86.39-.4.65-.5A5.5 5.5 0 0120 25c.74-.19 1.49-.31 2.24-.47l.65-.15a13.11 13.11 0 001.74-.46c.47-.19 1.09-.49 1.26-1a2.64 2.64 0 00-.45-2.24L25 20c-.22-.3-.46-.59-.7-.89a.31.31 0 00-.35-.09c-.14.05-.54.52-3.73 1.14" fill="#d50911" fill-rule="evenodd"/></svg>
