<svg xmlns="http://www.w3.org/2000/svg" viewBox="0 0 40 60"><rect width="40" height="60" rx="4" fill="#fff"/><rect x="3" y="3" width="34" height="54" rx="2" fill="#c7cedb"/><circle fill="#9ba0ba" cx="10" cy="49" r="4"/><path fill="#9ba0ba" d="M14.12 6.88A3 3 0 0012 6a2.11 2.11 0 00-2 1 2.11 2.11 0 00-2-1 3 3 0 00-2.12 5.12s3.38 3 4.12 3.88c.82-.88 4.12-3.88 4.12-3.88a3 3 0 000-4.24zM31 53a1 1 0 11-1-1 1 1 0 011 1zm3-4a2 2 0 01-2 2 2.25 2.25 0 01-2-1.42A2.21 2.21 0 0128 51a2 2 0 010-4 2.58 2.58 0 01.29 0 2 2 0 113.42 0 2.58 2.58 0 01.29 0 2 2 0 012 2zm-.6-36.59a2 2 0 01-2.82 0l-.58-.58-.58.58a2 2 0 01-2.82 0 2 2 0 010-2.82C27.42 8.58 30 6 30 6s2.58 2.58 3.4 3.59a2 2 0 010 2.82zM31 15a1 1 0 10-1 1 1 1 0 001-1z"/><path d="M20.13 23.84c-.35.05-.7.12-1.05.19l-.69.16-.63.16-.59.21a3.64 3.64 0 00-1 .61 3.78 3.78 0 00-.52.54c-.1.15-.19.29-.28.45a1.09 1.09 0 00-.13.5 1.63 1.63 0 00.68 1.24 3.47 3.47 0 00.38.29 10.05 10.05 0 001.23.71l1.33.61c.43.18.86.33 1.3.48l.38.12 1.2.4c.24.09.5.17.75.28a5.29 5.29 0 01.74.4 1.49 1.49 0 01.38.41 1.08 1.08 0 01.15.52.81.81 0 01-.14.5 2.32 2.32 0 01-1.08.82 15.91 15.91 0 01-1.9.68c-.36.11-.73.22-1.1.31l-1.12.3-1.16.27-.65.13-.38.09-.81.17-.92.2-.26.07c-.08 0-.38.08-.16.07s1.12-.09 2.87-.32l1.91-.3c.79-.13 1.57-.29 2.35-.47l.67-.17.43-.13c.62-.19 1.6-.53 1.83-.63.89-.39 1.45-.69 1.74-1.39a1.79 1.79 0 00.11-.79 1.76 1.76 0 00-.24-.71 2.63 2.63 0 00-.46-.54 5.74 5.74 0 00-1.08-.74l-.33-.16-.43-.19-.61-.19c-.53-.19-1.07-.35-1.61-.53l-.9-.33-.33-.21-.42-.22c-.17-.11-.44-.28-.37-.52s.24-.24.39-.3l.43-.13c.45-.12.9-.19 1.35-.29l.39-.09a7.21 7.21 0 001-.27c.29-.12.66-.3.76-.61a1.57 1.57 0 00-.27-1.34c-.09-.14-.18-.28-.28-.41s-.27-.36-.42-.54a.16.16 0 00-.2-.05 5.94 5.94 0 01-2.24.68" fill-rule="evenodd" fill="#9ba0ba"/></svg>
