<svg xmlns="http://www.w3.org/2000/svg" viewBox="0 0 40 60"><defs><linearGradient id="Nepojmenovaný_přechod_17" x1="20" y1="23.86" x2="20" y2="55.57" gradientUnits="userSpaceOnUse"><stop offset="0" stop-color="#1d1b40"/><stop offset=".3" stop-color="#1c1a3d"/><stop offset=".53" stop-color="#171634"/><stop offset=".73" stop-color="#100f23"/><stop offset=".92" stop-color="#06050d"/><stop offset="1"/></linearGradient><style>.cls-2{fill:#1d1b40}</style></defs><g id="Vrstva_2"><g id="icon"><rect width="40" height="60" rx="4" fill="#fff"/><path class="cls-2" d="M12.21 4.76v1.58H7.94l-.11 2a9.69 9.69 0 011.61-.15c1.93 0 3.45 1.13 3.45 3.11a3.45 3.45 0 01-3.77 3.4c-2 0-3.36-1-3.42-2.94h1.72c.1 1 .62 1.46 1.75 1.46a1.66 1.66 0 001.74-1.81c0-1.13-.57-1.78-2.06-1.78A17.09 17.09 0 006 9.87l.34-5.11z"/><path d="M33 41a6.84 6.84 0 01-7 7 8 8 0 01-6-2.72A8 8 0 0114 48a6.84 6.84 0 01-7-7c0-6 7-10 13-17 6 7 13 11 13 17zm-13 8a3 3 0 103 3 3 3 0 00-3-3z" fill="url(#Nepojmenovaný_přechod_17)"/><path class="cls-2" d="M33.4 10.41a2 2 0 01-2.82 0L30 9.83l-.58.58a2 2 0 01-2.82 0 2 2 0 010-2.82C27.42 6.58 30 4 30 4s2.58 2.58 3.4 3.59a2 2 0 010 2.82zM31 13a1 1 0 10-1 1 1 1 0 001-1z"/></g></g></svg>
