<svg xmlns="http://www.w3.org/2000/svg" viewBox="0 0 40 60"><defs><linearGradient id="svg_card_spades_7_1" x1="20" y1="23.86" x2="20" y2="55.57" gradientUnits="userSpaceOnUse"><stop offset="0" stop-color="#1d1b40"/><stop offset=".3" stop-color="#1c1a3d"/><stop offset=".53" stop-color="#171634"/><stop offset=".73" stop-color="#100f23"/><stop offset=".92" stop-color="#06050d"/><stop offset="1"/></linearGradient></defs><rect width="40" height="60" rx="4" fill="#fff"/><path d="M7.14 14.56l3.62-8.22h-5V4.76h6.92v1.58l-3.44 8.22z" fill="#1d1b40"/><path d="M33 41a6.84 6.84 0 01-7 7 8 8 0 01-6-2.72A8 8 0 0114 48a6.84 6.84 0 01-7-7c0-6 7-10 13-17 6 7 13 11 13 17zm-13 8a3 3 0 103 3 3 3 0 00-3-3z" fill="url(#svg_card_spades_7_1)"/><path d="M33.4 10.41a2 2 0 01-2.82 0L30 9.83l-.58.58a2 2 0 01-2.82 0 2 2 0 010-2.82C27.42 6.58 30 4 30 4s2.58 2.58 3.4 3.59a2 2 0 010 2.82zM31 13a1 1 0 10-1 1 1 1 0 001-1z" fill="#1d1b40"/></svg>
