<svg xmlns="http://www.w3.org/2000/svg" viewBox="0 0 40 60"><defs><linearGradient id="svg_card_spades_8_1" x1="20" y1="23.86" x2="20" y2="55.57" gradientUnits="userSpaceOnUse"><stop offset="0" stop-color="#1d1b40"/><stop offset=".3" stop-color="#1c1a3d"/><stop offset=".53" stop-color="#171634"/><stop offset=".73" stop-color="#100f23"/><stop offset=".92" stop-color="#06050d"/><stop offset="1"/></linearGradient></defs><rect width="40" height="60" rx="4" fill="#fff"/><path d="M12.62 7.25a2.21 2.21 0 01-2 2.22 2.4 2.4 0 012.2 2.53c0 1.68-1.22 2.73-3.59 2.73s-3.59-1-3.59-2.73a2.35 2.35 0 012.25-2.48 2.31 2.31 0 01-2-2.28C5.85 5.78 7 4.62 9.23 4.62s3.39 1.18 3.39 2.63zm-5.1 4.43c0 .85.55 1.43 1.71 1.43s1.71-.58 1.71-1.43c0-1.08-.76-1.44-1.71-1.44s-1.71.36-1.71 1.44zm.23-4.23c0 1 .58 1.36 1.48 1.36s1.48-.41 1.48-1.36c0-.73-.44-1.28-1.48-1.28s-1.48.55-1.48 1.28z" fill="#1d1b40"/><path d="M33 41a6.84 6.84 0 01-7 7 8 8 0 01-6-2.72A8 8 0 0114 48a6.84 6.84 0 01-7-7c0-6 7-10 13-17 6 7 13 11 13 17zm-13 8a3 3 0 103 3 3 3 0 00-3-3z" fill="url(#svg_card_spades_8_1)"/><path d="M33.4 10.41a2 2 0 01-2.82 0L30 9.83l-.58.58a2 2 0 01-2.82 0 2 2 0 010-2.82C27.42 6.58 30 4 30 4s2.58 2.58 3.4 3.59a2 2 0 010 2.82zM31 13a1 1 0 10-1 1 1 1 0 001-1z" fill="#1d1b40"/></svg>
