<svg xmlns="http://www.w3.org/2000/svg" viewBox="0 0 40 60"><defs><linearGradient id="Nepojmenovaný_přechod_17" x1="20" y1="23.86" x2="20" y2="55.57" gradientUnits="userSpaceOnUse"><stop offset="0" stop-color="#1d1b40"/><stop offset=".3" stop-color="#1c1a3d"/><stop offset=".53" stop-color="#171634"/><stop offset=".73" stop-color="#100f23"/><stop offset=".92" stop-color="#06050d"/><stop offset="1"/></linearGradient><style>.cls-2{fill:#1d1b40}</style></defs><g id="Vrstva_2"><g id="icon"><rect width="40" height="60" rx="4" fill="#fff"/><path class="cls-2" d="M12.93 9.54c0 3.08-1.44 5.16-4.06 5.16-1.83 0-3.21-1-3.28-2.77h1.75a1.39 1.39 0 001.55 1.32c1.35 0 2-1.15 2.08-3.11a3 3 0 01-2.34 1 2.9 2.9 0 01-3.1-3 3.4 3.4 0 013.59-3.52c2.44 0 3.81 1.81 3.81 4.92zM7.42 8c0 1 .42 1.76 1.64 1.76a2.29 2.29 0 001.88-.94c-.1-1.58-.65-2.6-1.92-2.6-1.09.01-1.6.78-1.6 1.78z"/><path d="M33 41a6.84 6.84 0 01-7 7 8 8 0 01-6-2.72A8 8 0 0114 48a6.84 6.84 0 01-7-7c0-6 7-10 13-17 6 7 13 11 13 17zm-13 8a3 3 0 103 3 3 3 0 00-3-3z" fill="url(#Nepojmenovaný_přechod_17)"/><path class="cls-2" d="M33.4 10.41a2 2 0 01-2.82 0L30 9.83l-.58.58a2 2 0 01-2.82 0 2 2 0 010-2.82C27.42 6.58 30 4 30 4s2.58 2.58 3.4 3.59a2 2 0 010 2.82zM31 13a1 1 0 10-1 1 1 1 0 001-1z"/></g></g></svg>
