<svg xmlns="http://www.w3.org/2000/svg" viewBox="0 0 40 60"><rect width="40" height="60" rx="4" fill="#fff"/><path d="M11.58 4.76v6.76c0 2-1.43 3.18-3.64 3.18a3.19 3.19 0 01-3.38-2.94h2.07A1.24 1.24 0 008 13c1.11 0 1.54-.45 1.54-1.43V4.76zM30.5 44h-18a2.5 2.5 0 01-2.5-2.5 2.5 2.5 0 012.5-2.5h.5c0-6 .11-11.22 1-13 1-2 2.9-4 5-4a2.24 2.24 0 012 1 4.25 4.25 0 013-1c2 0 4 2 5 4s1 6 1 13h.5a2.5 2.5 0 012.5 2.5 2.5 2.5 0 01-2.5 2.5z" fill="#1d1b40"/><path d="M0 56a4 4 0 004 4h32a4 4 0 004-4c0-5-9-11-15-13h-8c-7 2-17 8-17 13z" fill="url(data:application/xml,%3Csvg%20xmlns%3D%22http%3A%2F%2Fwww.w3.org%2F2000%2Fsvg%22%3E%3ClinearGradient%20id%3D%22gradient%22%20x1%3D%2220%22%20y1%3D%2245.34%22%20x2%3D%2220%22%20y2%3D%2258.1%22%20gradientUnits%3D%22userSpaceOnUse%22%3E%3Cstop%20offset%3D%220%22%20stop-color%3D%22%23085272%22%2F%3E%3Cstop%20offset%3D%22.27%22%20stop-color%3D%22%230a4e6e%22%2F%3E%3Cstop%20offset%3D%22.54%22%20stop-color%3D%22%230e4264%22%2F%3E%3Cstop%20offset%3D%22.81%22%20stop-color%3D%22%23162e52%22%2F%3E%3Cstop%20offset%3D%221%22%20stop-color%3D%22%231d1b40%22%2F%3E%3C%2FlinearGradient%3E%3C%2Fsvg%3E#gradient)"/><path d="M25 48h-9l-1 12h11l-1-12z" fill="#1d1b40"/><path d="M25.82 60L25 48h1l3 12h-3.18zM16 48h-1l-3 12h3l1-12z" fill="#f2c546"/><path d="M23 48l2 2.71a1.28 1.28 0 001.36.48 15.54 15.54 0 002.38-.86 1 1 0 00.43-1.43L28 47l2.52 1.57a1 1 0 001.19-.09A6.88 6.88 0 0033 47.09 30.33 30.33 0 0025 43h-8a31.91 31.91 0 00-8.91 3.94 7.17 7.17 0 001.25 1.46 1 1 0 001.21.12L13 47l-1.19 1.94a1 1 0 00.4 1.42 14.47 14.47 0 002.31.9 1.31 1.31 0 001.48-.47L18 48l-.44 2.79a1 1 0 00.92 1.15c.48 0 1 .06 1.52.06a25.11 25.11 0 002.53-.12 1 1 0 00.9-1.15z" fill="#c7cedb"/><path d="M18 38h7v5c0 1-2 2-4 2s-4-1-4-2a43.31 43.31 0 011-5z" fill="#dfe6f2"/><path d="M21 41a6 6 0 01-6-6v-5c4 0 5.53-2.13 6-5 0 3 2 5 6 5v5a6 6 0 01-6 6z" fill="#ffb29d"/><path d="M19.29 31.66a1.94 1.94 0 01-.29 1.06.79.79 0 01-1.42 0 1.94 1.94 0 01-.29-1.06 1.92 1.92 0 01.29-1.06.79.79 0 011.42 0 1.92 1.92 0 01.29 1.06zm5 0a1.94 1.94 0 01-.29 1.06.79.79 0 01-1.42 0 1.94 1.94 0 01-.29-1.06 1.92 1.92 0 01.29-1.06.79.79 0 011.42 0 1.92 1.92 0 01.29 1.06z" fill="#1d1b40"/><circle cx="20.5" cy="55.5" r="1.5" fill="#f2c546"/><path d="M33.4 10.41a2 2 0 01-2.82 0L30 9.83l-.58.58a2 2 0 01-2.82 0 2 2 0 010-2.82C27.42 6.58 30 4 30 4s2.58 2.58 3.4 3.59a2 2 0 010 2.82zM31 13a1 1 0 10-1 1 1 1 0 001-1z" fill="#1d1b40"/></svg>
