<svg xmlns="http://www.w3.org/2000/svg" viewBox="0 0 40 60"><defs><linearGradient id="Nepojmenovaný_přechod_27" x1="20" y1="47.23" x2="20" y2="59.35" gradientUnits="userSpaceOnUse"><stop offset="0" stop-color="#085272"/><stop offset=".25" stop-color="#0a4c6d"/><stop offset=".57" stop-color="#113c5e"/><stop offset=".94" stop-color="#1b2045"/><stop offset="1" stop-color="#1d1b40"/></linearGradient><style>.cls-2{fill:#1d1b40}.cls-8{fill:#f2c546}</style></defs><g id="Vrstva_2"><g id="icon"><rect width="40" height="60" rx="4" fill="#fff"/><path class="cls-2" d="M5.74 14.56v-9.8h2v9.8zm5.91 0L7.84 9.41l3.6-4.65h2.32l-3.6 4.52 3.9 5.28zM30.5 40H30V29c0-4-4-8-9-8a7.89 7.89 0 00-8 8v11h-.5a2.5 2.5 0 000 5h18a2.5 2.5 0 000-5z"/><path d="M0 53v3a4 4 0 004 4h32a4 4 0 004-4v-3a21.58 21.58 0 00-5.42-7h-27A26.32 26.32 0 000 53z" fill="url(#Nepojmenovaný_přechod_27)"/><path d="M26 42l-5 2-4-2a32.18 32.18 0 00-9.39 4 7.52 7.52 0 001.24 1.28 1.6 1.6 0 012.75 1.12 1.58 1.58 0 01-.12.61 17.88 17.88 0 002 .84 1.6 1.6 0 013.1.55 2 2 0 010 .23 24.07 24.07 0 002.89.32 1.59 1.59 0 013.06 0 24.31 24.31 0 002.89-.32 1.79 1.79 0 010-.23 1.6 1.6 0 013.11-.54 16.9 16.9 0 002-.83 1.48 1.48 0 01-.13-.63 1.6 1.6 0 012.81-1 8.64 8.64 0 001.37-1.4A17.47 17.47 0 0026 42z" fill="#c7cedb"/><path d="M26 36l-8 2-1 4a4.33 4.33 0 004 2 7.65 7.65 0 005-2z" fill="#dfe6f2"/><path d="M22 40h-2.16A4.84 4.84 0 0115 35.16V27c0-3.38 3-2 5-4 2 2 7 1 7 4v8a5 5 0 01-5 5z" fill="#ffb29d"/><path d="M26.75 26H15.12a1.59 1.59 0 01.61-1h9.73a2.31 2.31 0 011.29 1z" fill="#f1827c"/><path class="cls-2" d="M18 28h-1a1 1 0 01-1-1 1 1 0 011-1h1a1 1 0 011 1 1 1 0 01-1 1zM24 28h-2a1 1 0 01-1-1 1 1 0 011-1h2a1 1 0 011 1 1 1 0 01-1 1zM18.29 30.66a1.94 1.94 0 01-.29 1.06.79.79 0 01-1.42 0 1.94 1.94 0 01-.29-1.06 1.92 1.92 0 01.29-1.06.79.79 0 011.42 0 1.92 1.92 0 01.29 1.06zM24.29 30.66a1.94 1.94 0 01-.29 1.06.79.79 0 01-1.42 0 1.94 1.94 0 01-.29-1.06 1.92 1.92 0 01.29-1.06.79.79 0 011.42 0 1.92 1.92 0 01.29 1.06zM18 39.64A2.17 2.17 0 0120 38c2 0 3.18.76 3.09 1.88S21.5 41.94 20 43c-1-1-2-2-2-3.36z"/><rect class="cls-8" x="13" y="23" width="17" height="2" rx="1"/><path class="cls-2" d="M17 42c1.61 5.68 8 13.29 14 18H14c-1.76-3.93-3.62-11-3.27-15.74A28.75 28.75 0 0117 42z"/><circle class="cls-8" cx="14" cy="46" r="1"/><circle class="cls-8" cx="16.5" cy="52.5" r="1.5"/><path class="cls-8" d="M22 58a2 2 0 00-2 2h4a2 2 0 00-2-2z"/><path class="cls-2" d="M25 37l-4-1v-2l4 2v1zM16 37l4-1v-2l-4 2v1z"/><path class="cls-8" d="M16.34 42.17a8.18 8.18 0 00-.95.26C16.29 46.84 21.5 55.88 27 60h1.61c-6.89-5.3-11.32-12.74-12.27-17.83zM11.92 43.69l-.7.32A32.77 32.77 0 0016 60h1a30.86 30.86 0 01-5.08-16.31z"/><path class="cls-2" d="M33.4 10.41a2 2 0 01-2.82 0L30 9.83l-.58.58a2 2 0 01-2.82 0 2 2 0 010-2.82C27.42 6.58 30 4 30 4s2.58 2.58 3.4 3.59a2 2 0 010 2.82zM31 13a1 1 0 10-1 1 1 1 0 001-1z"/></g></g></svg>
