<svg xmlns="http://www.w3.org/2000/svg" xmlns:xlink="http://www.w3.org/1999/xlink" viewBox="0 0 40 60"><defs><linearGradient id="svg_card_spades_queen_1" x1="21.51" y1="49.58" x2="33.99" y2="61.13" gradientUnits="userSpaceOnUse"><stop offset="0" stop-color="#085272"/><stop offset=".25" stop-color="#0a4c6d"/><stop offset=".57" stop-color="#113c5e"/><stop offset=".94" stop-color="#1b2045"/><stop offset="1" stop-color="#1d1b40"/></linearGradient><linearGradient id="b" x1="11.01" y1="47" x2="11.56" y2="59.44" xlink:href="#a"/></defs><rect width="40" height="60" rx="4" fill="#fff"/><path d="M14.69 9.66a5.06 5.06 0 01-1.75 4.06l1.78 2.36h-2.15l-1.13-1.57a5.26 5.26 0 01-1.4.19c-2.87 0-4.65-2.18-4.65-5s1.78-5 4.65-5 4.65 2.1 4.65 4.96zm-3.47 1.77l.57.77a3.85 3.85 0 00.74-2.54c0-1.95-.77-3.26-2.49-3.26S7.56 7.71 7.56 9.66s.75 3.27 2.48 3.27h.25l-1.08-1.5zm20.97 25.28A4.94 4.94 0 0033 34a5 5 0 00-4-4.9 7.49 7.49 0 00-15 0 5 5 0 00-4 4.9 4.94 4.94 0 00.81 2.71A5.5 5.5 0 0013.5 47h16a5.5 5.5 0 002.69-10.29zm1.72 10.78L7.74 47.2C3.54 50 0 53.28 0 56a4 4 0 004 4h32a4 4 0 004-4c0-2.62-2.75-5.8-6.09-8.51z" fill="#1d1b40"/><path d="M40 56a4 4 0 01-4 4H18c7-6 11-15.94 11-15.94a42 42 0 014.91 3.43C37.25 50.2 40 53.38 40 56z" fill="url(#svg_card_spades_queen_1)"/><path d="M7.74 47.2C3.54 50 0 53.28 0 56a4 4 0 004 4h19c-8-3-10.87-10.38-9.43-16.13a52.26 52.26 0 00-5.83 3.33z" fill="url(#b)"/><path d="M28.82 45.21A15.87 15.87 0 0027 44.06a33.7 33.7 0 01-6.69 13.62c-3.49-3.35-7.3-8.43-6.91-12.81l-2 .13c-.24 5.36 5.18 11.8 8.63 15h3c-.49-.36-1-.8-1.57-1.28 4.15-4.81 7.36-10.9 7.36-13.51z" fill="#f2c546"/><path d="M25 42a12.18 12.18 0 00-7 0 42.52 42.52 0 00-10.26 5.2A17 17 0 0020 52c10 0 13.91-4.51 13.91-4.51A38.47 38.47 0 0025 42z" fill="#c7cedb"/><path d="M25 42c0 1-1 2-4 2-2 0-3-1-3-2v-5h7z" fill="#dfe6f2"/><path d="M21 24c-5 0-6 5-6 6.64V33c0 3.31 2.69 8 6 8s6-4.69 6-8v-2.07C25 30 21 29 21 24z" fill="#ffb29d"/><path d="M16.62 26h4.63a7.44 7.44 0 00.38 1H16a6.09 6.09 0 01.62-1z" fill="#f1827c"/><path d="M19 31.5a1.94 1.94 0 01-.29 1.06.79.79 0 01-1.42 0 2.08 2.08 0 010-2.12.79.79 0 011.42 0A1.94 1.94 0 0119 31.5zm5 0a1.94 1.94 0 01-.29 1.06.79.79 0 01-1.42 0 2.08 2.08 0 010-2.12.79.79 0 011.42 0A1.94 1.94 0 0124 31.5zM18 29h-1a1 1 0 01-1-1 1 1 0 011-1h1a1 1 0 011 1 1 1 0 01-1 1zm6 0h-2a1 1 0 01-1-1 1 1 0 011-1h2a1 1 0 011 1 1 1 0 01-1 1z" fill="#1d1b40"/><rect x="14" y="24" width="15" height="2" rx="1" fill="#f2c546"/><path d="M22 48h-1v-1h-1v1h-1v1h1v1h1v-1h1v-1zm-6-2h-1v-1h-1v1h-1v1h1v1h1v-1h1v-1zm13 0h-1v-1h-1v1h-1v1h1v1h1v-1h1v-1z" fill="#9ba0ba"/><path d="M33.4 10.41a2 2 0 01-2.82 0L30 9.83l-.58.58a2 2 0 01-2.82 0 2 2 0 010-2.82C27.42 6.58 30 4 30 4s2.58 2.58 3.4 3.59a2 2 0 010 2.82zM31 13a1 1 0 10-1 1 1 1 0 001-1z" fill="#1d1b40"/></svg>
