<svg xmlns="http://www.w3.org/2000/svg" viewBox="0 0 359.965 377.2"><defs><linearGradient id="svg_desk_background_s" x1="590.8" y1="252.46" x2="590.8" y2="623.02" gradientUnits="userSpaceOnUse"><stop offset="0" stop-color="#35a64d"/><stop offset="0.3" stop-color="#2a9644"/><stop offset="0.66" stop-color="#22893c"/><stop offset="1" stop-color="#1f853a"/></linearGradient></defs><path d="M594.62 254.6q-15.82 2.55-31.44 6c-6.9 1.48-13.8 2.85-20.61 4.58-6.28 1.6-12.73 3-18.88 5-6 1.89-11.82 3.84-17.65 6.1a112.75 112.75 0 00-31.4 18.55 96.63 96.63 0 00-15.52 16.11 114.52 114.52 0 00-8.32 13.52 33.45 33.45 0 00-4.07 15c-.08 15.14 9.48 27.82 20.48 37.24 3.62 3.08 7.47 5.91 11.37 8.62a268.76 268.76 0 0037 21.26q19.83 9.48 40 18.18c12.72 5.45 25.74 10.06 38.87 14.45l11.37 3.76c11.9 4 24.05 7.66 35.87 12 7.35 2.67 15.19 5.18 22.53 8.52 7.64 3.47 15.56 6.94 22.29 11.92a41.53 41.53 0 0111.29 12.18 32.05 32.05 0 014.72 15.63 26.28 26.28 0 01-4.23 14.78c-7.39 11.6-20.23 19.53-32.63 24.8a530.39 530.39 0 01-56.76 20.36c-11 3.24-22 6.46-33.08 9.36-11.08 2.9-22.46 6-33.7 8.8-11.24 2.8-22.41 5.4-33.66 7.84-6.44 1.38-12.93 2.75-19.33 4.09-3.86.77-7.63 1.6-11.49 2.44-8.05 1.76-16.09 3.51-24.18 5.24l-27.58 6c-2.67.59-5.34 1.31-8 1.91-2.38.55-11.29 2.63-4.68 2.23 9.19-.51 33.74-2.67 86.19-9.72 19-3.16 38.09-5.89 57.13-9 23.73-3.89 47.29-8.47 70.68-14 6.7-1.58 13.34-3.29 20-5.11q6.59-1.85 13-3.86c18.39-5.73 47.9-15.85 54.88-18.9 26.68-11.75 43.3-20.59 52-41.64a50.45 50.45 0 003.45-23.84 54.32 54.32 0 00-7.18-21.12c-3.66-6.09-8.66-11.3-13.87-16.11a150.55 150.55 0 00-32.31-22.2c-3.28-1.73-6.65-3.37-10-4.93-4.23-1.94-8.46-3.78-12.73-5.58-6-2.52-12.11-4.72-18.26-6.83-16-5.5-32.26-10.43-48.35-15.71-9.12-3-18.14-6.23-26.93-10-3.73-1.56-7.43-3.24-11-5-4.26-2.08-8.41-4.35-12.52-6.8-5-3.06-13.29-8.33-11-15.49 1.61-5.11 7.14-7.1 11.66-8.93a105.76 105.76 0 0113-4c13.3-3.43 26.88-5.74 40.3-8.62 3.95-.85 7.89-1.71 11.83-2.63 10.46-2.46 21.26-4.31 31.23-8.29 8.58-3.38 19.58-8.8 22.78-18.24 4.6-13.77-.61-28.65-8.13-40.27-2.7-4.16-5.49-8.25-8.37-12.33-3.94-5.55-8.29-10.76-12.56-16-1.93-2.4-4.27-2.22-6.24-1.6-2.62.9-9.8 9.34-67.14 20.36" fill="url(#svg_desk_background_s)" transform="translate(-410.804 -233.92)"/></svg>
