<svg xmlns="http://www.w3.org/2000/svg" viewBox="0 0 234 184"><path d="M209 175l-187.81.12L0 184h103l110-3z" fill="url(#paint0_linear)"/><path d="M80 160.28c0-1.51-4.48-4.28-10-4.28s-10 2.77-10 4.28c0 1.51 4.48 2.72 10 2.72s10-1.22 10-2.72z" fill="#dfe6f2"/><path d="M70 102a2 2 0 012 2v53h-4v-53a2 2 0 012-2z" fill="#dfe6f2"/><path d="M68 111H17a2 2 0 100 4h51a2 2 0 100-4zM68 124H17a2 2 0 100 4h51a2 2 0 100-4z" fill="#c7cedb"/><path d="M25 160.28c0-1.51-4.48-4.28-10-4.28s-10 2.77-10 4.28c0 1.51 4.48 2.72 10 2.72s10-1.22 10-2.72z" fill="#dfe6f2"/><path d="M15 102a2 2 0 012 2v53h-4v-53a2 2 0 012-2z" fill="#dfe6f2"/><path d="M198 177.11c0-2.15 8.06-6.11 18-6.11s18 4 18 6.11c0 2.11-8.06 3.89-18 3.89s-18-1.74-18-3.89z" fill="#c7cedb"/><path d="M220 173h-8V4a3.997 3.997 0 014-4 3.998 3.998 0 014 4z" fill="#c7cedb"/><path d="M151.39 150c.8-8.9 1.22-11.76 1.36-19 .5-26 20.63-16.64 17.23-1.42-1.2 5.38-3.86 13.28-6.07 20.72-3.05 10.34-13.25 7.7-12.52-.3z" fill="#cfbdb8"/><path d="M151.81 153.77c-3.1-11.42 10.42-9.4 11.63-2.1.66 4 2.1 12.14 2.79 15.83.69 3.69-4 8.09-7.53 1.6-3.04-5.54-5.76-11.17-6.89-15.33z" fill="#cfbdb8"/><path d="M158.7 169.1c-.34-2.89 5.73-2.77 7.53-1.6 1.8 1.17 4.8 3.12 7 4.7s2.92 4.92-.48 4.92h-9.2c-3.13 0-4.48-4.8-4.85-8.02zM98.7 139.87a120.512 120.512 0 013.69-18.13c5.52-19.08 25.31-1 18.29 14.69-2.48 5.54-11.14 23.7-24.87 22.3-4.23-.43-4.24-4.9-1.49-7.69 2.17-2.2 3.79-6.71 4.38-11.17z" fill="#cfbdb8"/><path d="M92.8 157.82c-2.09-10.58 9.43-7.21 10.07-.5.34 3.64.11 7.1.27 10.52.22 5-4.35 8.17-6.82 1.88a62.342 62.342 0 01-3.52-11.9z" fill="#cfbdb8"/><path d="M96.59 169.22c-.31-2.64 6-2 7.65-.91 1.65 1.09 4.37 2.85 6.39 4.28 2.02 1.43 2.67 4.49-.44 4.49h-8.39c-2.86 0-4.87-4.92-5.21-7.86z" fill="#cfbdb8"/><path d="M76.9 85.71a.27.27 0 01.51.1C78 102.22 91 104.66 94.86 104.66c6.07 0 4.69 12-7 8.09-11.69-3.91-14.7-18.41-10.96-27.04z" fill="#ebdfd6"/><path d="M93.2 104.56c12.74-1 46.35 2.43 52.23-9.23 1.93-3.82 6.74-14.85 9.7-21.67 2.85-8 25.68 0 21.19 11.89-6.18 6.25-2 36.09-7.09 47-3.77 8.13-9.52 11.3-16.89 12.64-7.37 1.34-12.35-.23-16.53-1.6-4.18-1.37-16.27-9.09-29.6-10.72-13.33-1.63-15.89-.76-19.32-7.34-4.71-9.11 2.11-20.63 6.31-20.97z" fill="#ebdfd6"/><path d="M171 106.64h1.38c.05-1.25.07-2.6.18-4.07-15.68.51-23.25-7.79-25.42-10.85-.47 1-1.25 2.67-2 4.09 3.54 4.08 11.52 10.83 25.86 10.83z" fill="#d51116"/><path d="M139.72 100.34c-.66 8.09-10.95 13.8-15.71 14.51-8.18 1.24-17.26-3.39-19.38-10.51 10.01.01 26.37 0 35.09-4zM162.76 62.86c-1.47-3-.34-8 2-11.33 2.16-3 4.89-1.72 9.67 1.06 4.78 2.78 1.94 5.23 1.94 5.23s-12.56 7.18-13.61 5.04z" fill="#1a1a1a"/><path d="M155.3 78.06c-2.39-7.59 1.63-17.72 9.37-20.9 7.74-3.18 8.55 3 19.78 6.56 2.92-.83 16.82-3.89 16.82-3.89a2.24 2.24 0 012.63 1.74l.48 2.24A12.412 12.412 0 01200 75.69a43.9 43.9 0 01-23.8 10.51c-5.88.62-16.47 1.88-20.9-8.14z" fill="url(#paint1_linear)"/><path d="M175.75 86.12c-10.95 2.3-19.77-2-20.51-10.31-2.24-7.38 1.76-15.52 9.41-18.66 7.65-3.14 8.55 3 19.78 6.56-2.13 1.37-10.33-4-14.09-5.28-1-.34-2.7.66-1.57 1.49 3.61 2.66 7.44 4.81 8 8.22.95 6.29-7.88 10.28-1.02 17.98z" fill="#c48147"/><path d="M164.58 57.08c2.54-.94 5.17-1.53 7.75.33a1.078 1.078 0 00-.83 1.47c-.17-.07-1-.4-1.16-.45-1-.33-2.7.66-1.57 1.49.31.26.79.52 1.38 1-6.71 1.65-4.75 6.53-5.15 12.08-.3 4-2.14 6.29-7.6 8.35-7.83-8.09-1.26-21.13 7.18-24.27zM204.56 67.66c.15-1.284.089-2.585-.18-3.85l-.48-2.24a2.236 2.236 0 00-2.63-1.74s-3.69.83-4.18 1c-2.55 2.34-1.13 4.48 0 5.59 1.13 1.11 4.91 2.58 7.47 1.24z" fill="#1a1a1a"/><path d="M172.412 69.324c1.064-.88 1.072-2.628.016-3.905-1.055-1.278-2.773-1.6-3.838-.721-1.064.88-1.072 2.628-.016 3.905 1.055 1.277 2.773 1.6 3.838.72z" fill="#1f1207"/><path d="M163.7 61.78c-.27-2.91-7.55-3-11.67-2.59-4.12.41-7.58.92-8.42 3.34-1.75 5-3.34 18.32.12 18.79 2.4.32 12.37-9.38 16-15.93a1.244 1.244 0 011-.63l2.7-.25a.467.467 0 00.42-.47c-.04-.72-.08-1.46-.15-2.26z" fill="#1a1a1a"/><path d="M155.38 176.17c-2.26-1.6-5.31-3.58-7.15-4.78-.7-3.76-2.17-12.1-2.84-16.14.17-.44.34-.89.48-1.38 2.25-7.59 5-15.63 6.18-21.12 3.47-15.51-17-25-17.55 1.45-.14 7.34-.58 10.25-1.39 19.31-.01.19-.01.38 0 .57v.56a5.828 5.828 0 000 .62v.26a2.255 2.255 0 000 .26c.082.546.195 1.087.34 1.62 1.15 4.24 3.92 10 7 15.63.38 3.28 1.75 8.17 4.95 8.17h9.38c3.58-.01 2.85-3.42.6-5.03z" fill="url(#paint2_linear)"/><path d="M106.6 132.57C115 113.83 91.33 92.18 84.73 115a143.237 143.237 0 00-4.42 21.69c-.71 5.31-2.64 10.72-5.24 13.31-1.89 1.93-2.68 4.52-2 6.47.051.55.132 1.098.24 1.64a74.81 74.81 0 004.2 14.24c.215.559.472 1.1.77 1.62.92 3.33 3 7.18 5.79 7.18h10c3.71 0 2.93-3.65.52-5.37-2.41-1.72-5.69-3.78-7.66-5.08a5.68 5.68 0 00-1.31-.56c-.18-3.95.06-7.94-.29-12.13 11.52-4.61 18.85-20.01 21.27-25.44z" fill="url(#paint3_linear)"/><path d="M96 17h108c11.66 0 13-1.34 13-3s-1.34-3-13-3H96z" fill="#e0e0e0"/><path d="M98 17h26a2.998 2.998 0 003-3 2.999 2.999 0 00-3-3H98zM192 17h22a2.998 2.998 0 003-3 2.999 2.999 0 00-3-3h-22a2.998 2.998 0 013 3 2.999 2.999 0 01-3 3z" fill="#67739c"/><path d="M145 17h30a2.998 2.998 0 003-3 2.999 2.999 0 00-3-3h-30a2.998 2.998 0 013 3 2.999 2.999 0 01-3 3z" fill="#ed425f"/><path d="M96 35h112c7.66 0 9-1.34 9-3s-1.34-3-9-3H96z" fill="#e0e0e0"/><path d="M98 35h26a2.998 2.998 0 003-3 2.999 2.999 0 00-3-3H98zM192 35h22a2.998 2.998 0 003-3 2.999 2.999 0 00-3-3h-22a2.998 2.998 0 013 3 2.999 2.999 0 01-3 3z" fill="#67739c"/><path d="M145 35h30a2.998 2.998 0 003-3 2.999 2.999 0 00-3-3h-30a2.998 2.998 0 013 3 2.999 2.999 0 01-3 3z" fill="#ed425f"/><path d="M78 180.11C78 178 86.06 174 96 174s18 4 18 6.11c0 2.11-8.06 3.89-18 3.89s-18-1.74-18-3.89z" fill="#67739c"/><path d="M100 176h-8V4a4 4 0 118 0z" fill="url(#paint4_linear)"/><defs id="defs125"><linearGradient id="paint0_linear" x1="0" y1="185.5" x2="213" y2="185.5" gradientUnits="userSpaceOnUse" gradientTransform="translate(0 -6)"><stop offset=".03" stop-color="#fff" stop-opacity="0" id="stop78"/><stop offset=".04" stop-color="#FEFEFE" stop-opacity=".08" id="stop80"/><stop offset=".08" stop-color="#FBFBFB" stop-opacity=".29" id="stop82"/><stop offset=".13" stop-color="#F8F8F8" stop-opacity=".48" id="stop84"/><stop offset=".17" stop-color="#F5F5F5" stop-opacity=".64" id="stop86"/><stop offset=".22" stop-color="#F3F3F3" stop-opacity=".77" id="stop88"/><stop offset=".27" stop-color="#F2F2F2" stop-opacity=".87" id="stop90"/><stop offset=".32" stop-color="#F1F1F1" stop-opacity=".94" id="stop92"/><stop offset=".38" stop-color="#F0F0F0" stop-opacity=".99" id="stop94"/><stop offset=".44" stop-color="#F0F0F0" id="stop96"/></linearGradient><linearGradient id="paint1_linear" x1="200.459" y1="63.102" x2="155.542" y2="97.309" gradientUnits="userSpaceOnUse" gradientTransform="translate(0 -6)"><stop stop-color="#EBE7E4" id="stop99"/><stop offset="1" stop-color="#DFCEC4" id="stop101"/></linearGradient><linearGradient id="paint2_linear" x1="145.18" y1="186.1" x2="145.18" y2="127.78" gradientUnits="userSpaceOnUse" gradientTransform="translate(0 -6)"><stop stop-color="#CFBDB8" id="stop104"/><stop offset=".57" stop-color="#E1D3CB" id="stop106"/><stop offset=".85" stop-color="#EBDFD6" id="stop108"/></linearGradient><linearGradient id="paint3_linear" x1="88.42" y1="189.01" x2="92.65" y2="105.11" gradientUnits="userSpaceOnUse" gradientTransform="translate(0 -6)"><stop offset=".07" stop-color="#CFBDB8" id="stop111"/><stop offset=".16" stop-color="#D5C5BF" id="stop113"/><stop offset=".42" stop-color="#E4D6CE" id="stop115"/><stop offset=".6" stop-color="#E9DCD3" id="stop117"/></linearGradient><linearGradient id="paint4_linear" x1="96" y1="7.73" x2="96" y2="177.3" gradientUnits="userSpaceOnUse" gradientTransform="translate(0 -6)"><stop stop-color="#A9B3CC" id="stop120"/><stop offset="1" stop-color="#67739C" id="stop122"/></linearGradient></defs></svg>