<svg xmlns="http://www.w3.org/2000/svg" viewBox="0 0 220.95 184.97"><g clip-path="url(#clip0)" transform="translate(-52.01 -56)"><path d="M99.48 124.22c-6 .87-10.45 4-12.6 8.36-5.51-3.21-32.3-.69-32.3-.69-.66 3-2 8.78-2.22 9.93a16.92 16.92 0 00.86 9.71c7.9 20.66 37 23 60.33 35 5.86-17.6 13.74-26 15.86-36.55.79-3.98 2.3-8.27 2.59-12.71-4.77-9.7-21.67-14.61-32.52-13.05z" fill="#d50911"/><path d="M129.84 127.47c-4.74-9.7-17.05-16.14-27.9-14.58-6 .86-10.45 4-12.6 8.36a29.3 29.3 0 00-18.68-3.86c-12.24 1.75-19.16 11.86-14.98 22.81 7.9 20.65 36.12 22.94 59.44 34.92 8.44-20.41 22.22-32.6 14.72-47.65z" fill="url(#paint0_linear)"/><path d="M272.3 150c3.15 9.84-5.16 20.38-19.4 22.8-8.31 1.41-15.59-.56-20.18-4.48a35.313 35.313 0 01-19.87 11.28c-7.74 1.31-13.06-1-15.18-5.29-.18-.35-2.44-5.23-3.77-8.43l74-25.85a91.711 91.711 0 014.4 9.97zm-34.37 24.52l-21 10.93c.93 2.32 2.68 5.68 3.27 6.77 1.44 2.69 4.64 4.68 9.32 3.89 6.6-1.11 12.17-6.6 12.34-11.81a6.533 6.533 0 00-.18-1.8c-.17-.5-2.31-5.01-3.75-7.94z" fill="#1d1b40"/><path d="M268.62 141.79c3.15 9.84-5.16 20.38-19.4 22.8-8.31 1.41-15.59-.59-20.22-4.49a35.32 35.32 0 01-19.87 11.29c-12.46 2.11-18.68-5.08-15.3-15.18 4.2-12.53 22.37-23 36.89-36 14.22 6.79 34.06 9.58 37.9 21.58zm-40.07 29.46c-5.58 1.06-10.83 5.53-11.86 10.34-1.13 5.23 3.06 8.94 9.55 7.85 6.49-1.09 12.18-6.61 12.35-11.81.15-4.77-4.38-7.46-10.04-6.38z" fill="url(#paint1_linear)"/><path d="M182.64 111a15.001 15.001 0 0015-15 15 15 0 0015 15 15.001 15.001 0 00-15 15 15.001 15.001 0 00-15-15z" fill="#ffce2e"/><path d="M171.64 86a10 10 0 0010-10 10.002 10.002 0 0010 10 10 10 0 00-10 10 10.002 10.002 0 00-10-10zM211.64 90a7 7 0 007-7 7.003 7.003 0 007 7 7 7 0 00-7 7 6.999 6.999 0 00-7-7z" fill="#ffd858"/><path d="M95.64 218a13 13 0 0013-13 13 13 0 0013 13 13 13 0 00-13 13 13 13 0 00-13-13z" fill="#ffce2e"/><path d="M80.64 203a6.999 6.999 0 007-7 7 7 0 007 7 6.999 6.999 0 00-7 7 7 7 0 00-7-7z" fill="#ffd858"/><path d="M169.64 240.97c6.627 0 12-1.343 12-3s-5.373-3-12-3-12 1.343-12 3 5.373 3 12 3z" fill="#e8e8e8"/><path d="M103.66 143.05c.28-2.39 1.48-13.28 1.76-15.74.28-2.46 1.42-5 4.26-5.14a6.34 6.34 0 014.25 2.1c-.82-9.43 3-17.75 2.82-22.73.26-.7-3.3-14.06-3.3-14.06C112 80.52 111 71.9 111 71.9c2.37-4.76 5.9-8.6 11.53-12.6a10.602 10.602 0 014.47-1.62c5.87-.88 10 3.22 11.88 2.46 2.8-1.14 4.45-1.9 7.7-3s6.89-1.5 7.65-.08c.76 1.42 1.33 8.09 1.16 9.87a31.868 31.868 0 01-1.86 7c.303.068.6.158.89.27a1.346 1.346 0 011.12 1.2v.1c.005.083.005.167 0 .25.005.06.005.12 0 .18-.013.16-.044.317-.09.47-.7 2.6-10.23 9-15.69 13.12-2.12 6.15 5.47 16.39 11.39 21.86.54-2 1.87-3.45 5-2 6.58 2.93 8.57 12.52 8.31 16.78-.21 3.6-4.06 5.1-6.3 5.61 0 7.77-.24 15.68 1.9 17.32l.2.16c3.87.49 8 2.43 12.53 5.79 3.21 2.36 7.45 8.57 7.71 8.9l.27.35.36.47.34.43c.099.146.205.286.32.42l.47.64.27.36.43.59.2.28.39.55c0 .07.09.14.14.21l.46.68.1.16.32.5.1.18c.12.19.23.38.32.56 3.42 6.34.56 17.67 5.57 22.15a66.832 66.832 0 0010.91 6.15s3.76.88 5.78-1.21c2.02-2.09 5-.6 4.24 6.78-.76 7.38-9.69 3.74-18.21-1.25-8.52-4.99-16.53-8.92-17-13.36-.33-3-.85-7.51-3.48-11.55a16.365 16.365 0 01-4.23 4.53 13.144 13.144 0 01-8.27 2.46c2.81 3.45 6.59 5.44 9.18 6.8 4.14 2.18 4.61 11.1 5.9 20.88s1.09 19.44-6.46 17.3c-7.55-2.14-7.73-5.47-4.84-6.53 2.89-1.06 3.62-4.87 3.62-4.87.18-5.1-1.43-12.44-1.43-12.44-2.27-6.43-14.58-8.16-19.34-13.75-.13-.15-.28-.33-.42-.51a1.077 1.077 0 00-.13-.17l-.35-.48-.12-.16-.47-.69a1.565 1.565 0 01-.14-.21c-.13-.18-.25-.37-.38-.56l-.19-.3-.4-.63c-.08-.12-.15-.25-.24-.38s-.27-.45-.42-.68l-.27-.46-.29-.47c-.1-.18-.2-.35-.31-.52-.11-.17-.14-.26-.22-.39l-.65-1.13-.19-.32c-.13-.24-.27-.48-.41-.72l-.12-.21-1.41-2.53s-1.62-3.41-3.62-7.63a6.188 6.188 0 01-.39-1.13c-1.45-3-3.4-7.79-5.74-13.15a140.029 140.029 0 00-9.5-18.73 23.381 23.381 0 01-3.18-3c.723 2.134.875 4.419.44 6.63-.37 2.61-3.9 4-6.7 3.77-2.8-.23-7.73-2.21-7.45-4.6z" fill="url(#paint2_linear)"/><path d="M113.93 124.27c2.25 2.34 5.54 4 9.28 5.38-2.51-14.49.35-33 4.49-37 6.4-6.26 16.26-13.12 19-12.13 1.92.7-3.64 6.62-6.88 9-.78 2.28 0 6.47 1.7 9.37a47.328 47.328 0 008.78 11.61c.15.22.82.68.91.88-1.21 3.48-1.21 7.7-.81 12.21 1.06 11 7.69 8.19 7.8 8.11 0 7.77-.89 16.65 1.54 17.69a44.6 44.6 0 0113.5 9.6c2.12 2.37 4.06 6 6.2 11.61 2.14 5.61 2 15.32 1.12 17.63-.88 2.31-4.68-8.88-7.76-10.28a16.245 16.245 0 01-4.23 4.54 13.14 13.14 0 01-8.27 2.51c1.72 2.12 6.68 8.21 7.48 10.13.8 1.92-6.31.27-9-.94-13.78-6.44-23.08-23.19-23.51-23.75a10.014 10.014 0 00-.7-1c-1.26-2.84-2.78-6.51-4.51-10.48a138.615 138.615 0 00-9.49-18.72l-.19-.16-.2-.08a25.88 25.88 0 01-2.81-2.66c-1.37-7.09-1.12-10.6-3.44-13.07z" fill="url(#paint3_linear)"/><path d="M117.07 64.86c.15-1.18.54-5.35 1.56-6.8 1.19-1.7 2.94 2.07 3.12 3 .18.93-4.68 3.8-4.68 3.8zM105 67.61c2 .48 5.12 1.47 8.26 2.43 3.17 2.78 1.56 14.82-.63 13.5-2.19-1.32-9.18-1.74-9.18-1.74-10.73-.8-13.75-4.41-15.17-6.56-.55-.83-.84-1.69-.47-2.08.37-.39 2.1-.78 4.2-1.66 2.76-1.16 9.86-4.64 12.99-3.89z" fill="#0b0700"/><path d="M105.62 70c1.38 1.24 3.77 6.26 4 7.51.23 1.25-1.12 2.83-1.12 2.83s-8.54-.27-11.66-1.78c0 0 4.71-2.78 0-5.92 0-.02 7.41-3.91 8.78-2.64zM130.87 58.79c2.88 1 5.26 2.23 4.33 5.12-1.4 4.34-9.2 7.8-7.2 13.62 1.08 3.17 3.17 4.84 1.78 6-3.56 2.85-11 2.9-16.57 2.67 1.79-8.26 5.79-9.04 5.55-13.2-.39-6 3.38-17.1 12.11-14.21z" fill="#c48147"/><path d="M143.71 59c-.03 2 1.29 3.53 5.29 5 4.15 1.54 5.84-1.67 6.49-3a3.808 3.808 0 00.16-3.6c-.59-1.29-2.39-1.57-5.49-1.32a18.657 18.657 0 00-5 1.28c-.8.33-1.44.83-1.45 1.64zM110.85 72.05c.75-4.05 5.15-9.3 11.47-12.92a10.732 10.732 0 018.55-.34c-5.65-.25-9.89 3.32-9.14 7.27 1.45 7.69-.1 16.71-8.55 20.1-2.51-9.16-3.08-10.09-2.33-14.11zM153.4 71.67a12.153 12.153 0 00-1.26-3.56c-1.42 2.37-9.36 6.4-12.2 7.7l-.65.29c-2.36 1.06-6.88.42-6.88.42 4.39 4 11.41-.46 14.66-1.85a10.49 10.49 0 016.5-.77 2.03 2.03 0 00.09-.21c-.29-.35-.04-.96-.26-2.02zM159 131.51c-1 .16-7.24 2.48-8.55-7.92.69 7.25.17 12.72.76 18.31.45 4.18 7.65 9.36 8.93 7.12a43.516 43.516 0 01-1.14-17.51z" fill="#0b0700"/><path d="M150.14 73.79c3-1 4.83-1 7-.16a9.008 9.008 0 015.19 5.2c.48 1 .55 2.72-.32 3.13-.66.31-2.1.19-3-1.81-1.68-3.85-3.12-3.77-3.49-4a1.927 1.927 0 000-1c-.25-.84-1.69-1.69-5.38-1.36z" fill="#ed425f"/><path d="M140.06 95.46c-6-.31-15.83 2.45-23.31 6.08a9.653 9.653 0 00-.33 3.61c6.65-3 20.82-6.72 25.33-5.87a14.26 14.26 0 00-1.69-3.82z" fill="#d50911"/><path d="M126.61 61.53A1.571 1.571 0 00127 63c.445.551 1.033.97 1.7 1.21a3.87 3.87 0 002.09.19 1.595 1.595 0 001.21-.93 1.606 1.606 0 00-.33-1.47 3.853 3.853 0 00-1.74-1.19 3.759 3.759 0 00-2.09-.18 1.574 1.574 0 00-1.23.9z" fill="#0b0700"/></g><mask id="a" maskUnits="userSpaceOnUse" x="32" y="337" width="122" height="48"><rect x="32" y="337" width="122" height="48" rx="4" fill="#fff"/></mask><mask id="b" maskUnits="userSpaceOnUse" x="170" y="337" width="122" height="48"><rect x="170" y="337" width="122" height="48" rx="4" fill="#fff"/></mask><defs id="defs127"><linearGradient id="paint0_linear" x1="90.32" y1="118.938" x2="103.167" y2="174.786" gradientUnits="userSpaceOnUse"><stop stop-color="#F1687F" id="stop78"/><stop offset=".18" stop-color="#F06079" id="stop80"/><stop offset="1" stop-color="#ED425F" id="stop82"/></linearGradient><linearGradient id="paint1_linear" x1="230.912" y1="124.07" x2="231.308" y2="180.913" gradientUnits="userSpaceOnUse"><stop stop-color="#9BA0BA" id="stop85"/><stop offset=".11" stop-color="#8C93B1" id="stop87"/><stop offset=".31" stop-color="#7781A5" id="stop89"/><stop offset=".51" stop-color="#6B779E" id="stop91"/><stop offset=".71" stop-color="#67739C" id="stop93"/></linearGradient><linearGradient id="paint2_linear" x1="169.73" y1="222.89" x2="131.8" y2="62.8" gradientUnits="userSpaceOnUse"><stop stop-color="#CFB7AA" id="stop96"/><stop offset=".12" stop-color="#DAC7BB" id="stop98"/><stop offset=".32" stop-color="#EADED4" id="stop100"/><stop offset=".51" stop-color="#F4EBE3" id="stop102"/><stop offset=".67" stop-color="#F7F0E8" id="stop104"/><stop offset="1" stop-color="#FFE9DE" id="stop106"/></linearGradient><linearGradient id="paint3_linear" x1="140.016" y1="87.649" x2="183.395" y2="192.348" gradientUnits="userSpaceOnUse"><stop stop-color="#E5D2CC" stop-opacity=".35" id="stop109"/><stop offset=".08" stop-color="#E1CCC5" stop-opacity=".47" id="stop111"/><stop offset=".23" stop-color="#DBC3B9" stop-opacity=".66" id="stop113"/><stop offset=".37" stop-color="#D5BCB0" stop-opacity=".81" id="stop115"/><stop offset=".52" stop-color="#D2B7A9" stop-opacity=".91" id="stop117"/><stop offset=".66" stop-color="#D0B4A5" stop-opacity=".98" id="stop119"/><stop offset=".8" stop-color="#CFB3A4" id="stop121"/></linearGradient><clipPath id="clip0"><path transform="translate(52 56)" id="rect124" fill="#fff" d="M0 0h220.96v184.97H0z"/></clipPath></defs></svg>