<svg fill="none" xmlns="http://www.w3.org/2000/svg" viewBox="0 0 150 190"><path d="M74.764 3.186c11.801 0 23.337 3.367 33.149 9.675 9.812 6.308 17.459 15.274 21.975 25.764 4.516 10.49 5.698 22.033 3.396 33.17-2.302 11.135-7.985 21.365-16.33 29.393-8.344 8.029-18.975 13.497-30.55 15.712-11.574 2.215-23.57 1.078-34.473-3.267-10.903-4.345-20.221-11.703-26.777-21.144-6.557-9.44-10.056-20.54-10.056-31.894.019-15.22 6.311-29.812 17.497-40.574C43.78 9.258 58.945 3.204 74.765 3.186zm0-3.186C62.308 0 50.132 3.554 39.776 10.212 29.419 16.87 21.347 26.334 16.58 37.406c-4.766 11.072-6.013 23.256-3.583 35.01 2.43 11.754 8.428 22.551 17.235 31.025 8.808 8.475 20.03 14.246 32.246 16.584 12.216 2.338 24.879 1.138 36.387-3.448 11.507-4.587 21.343-12.353 28.263-22.318 6.92-9.965 10.614-21.68 10.614-33.664 0-16.071-6.635-31.484-18.446-42.847C107.485 6.384 91.466 0 74.764 0z" fill="#DFE6F2"/><path d="M74.764 112.686c29.901 0 54.14-23.322 54.14-52.092 0-28.769-24.239-52.091-54.14-52.091s-54.14 23.322-54.14 52.091c0 28.77 24.239 52.092 54.14 52.092z" fill="#ECF0F7"/><path d="M105.034 60.83c3.759 19.546 4.013 35.945 1.615 46.031-8.187 6.646-30.036 12.07-50.036 10.956.731-4.828 7.293-18.031 9.477-28.91 18.1-8.62 38.944-28.078 38.944-28.078z" fill="url(#paint0_linear)"/><path d="M124.963 55.063c-.772-4.887-8.36-19.654-9.782-21.443-1.422-1.788-2.143-3.274-5.139-2.678-1.148.215-7.781 3.734-13.409 6.06-8.126-4.633-20.823-5.64-25.262-5.131-3.738-.44-5.78-5.864-11.173-4.388-2.367.635-6.887 1.74-8.207 2.443-1.32.704-3.332 3.381-4.257 6.46-1.107 3.685-3.29 7.3.447 5.864a18.324 18.324 0 006.268-4.134l6.562 7.105-4.47 12.442s2.885 21.56 4.063 33.454c7.487-1.036 18.467-4.564 27.274-7.027a22.819 22.819 0 008.316-4.03 21.82 21.82 0 005.904-6.926 33.115 33.115 0 003.566-9.607c.426-1.857 4.804-6.988 4.804-6.988s-.762 5.219-.914 6.323c-.538 3.91.681 8.063 5.282 6.46a35.71 35.71 0 007.11-5.453c1.575-1.799 3.474-5.903 3.017-8.806z" fill="#000"/><path d="M69.96 81.988s10.157 4.29 4.063 6.998C62.606 94 47.694 94.107 42.382 88.751c-5.313-5.355-.376-8.121-.376-8.121l27.954 1.358z" fill="#B8AAA2"/><path d="M39.873 84.97a13.129 13.129 0 00-2.407 4.094 4.505 4.505 0 00.008 3.1 4.712 4.712 0 002.023 2.412 7.862 7.862 0 004.54.856 7.75 7.75 0 004.216-1.833 11.62 11.62 0 002.661-3.91c-2.031-3.351-6.389-6.332-6.389-6.332s-3.636.186-4.652 1.612z" fill="#ED425F"/><path d="M74.399 35.81c-2.164-.714-4.835 1.954-7.172 5.98-1.727-.498-3.809-1.954-6.196 3.441-2.031 4.486-7.75 11.572-10.005 12.305-4.297 1.397-16.384 4.28-18.873 11.728-2.489 7.447 2.163 13.35 4.855 14.532 2.692 1.183 5.18 2.375 5.81 1.173.63-1.202.762-1.495 1.118.069.406 1.857 4.56 4.31 9.07 5.18 6.024 1.153 18.173-.43 27.894-3.138 10.614-2.932 18.66-7.369 21.026-13.448 2.103-5.395-18.863-.528-17.156-15.92 1.28-11.523-2.144-14.66-10.676-13.683-.955.107-1.635-1.202-1.128-1.955 1.89-2.98 3.23-5.678 1.433-6.264z" fill="url(#paint1_linear)"/><path d="M86.497 55.943c1.016-9.676-5.364-15.15-13.53-13.966-6.999 7.984-9.66 16.614-5.424 22.605 4.804 6.763 25.617 5.786 13.865 22.4 8.98-2.785 18.1-7.134 20.518-13.34 2.103-5.444-17.004-2.297-15.43-17.7z" fill="#C48147"/><path d="M42.96 78.187s-6.795-5.532-8.511-9.97c-1.717-4.436-1.33-5.668 1.31-6.342 2.88-.941 5.972-1.1 8.939-.46 3.63.527 6.942 2.297 9.325 4.985 1.218 1.485 1.635 3.088.467 4.437-2.987 3.44-11.53 7.35-11.53 7.35z" fill="#000"/><path d="M111.799 49.14c.447-2.61-.741-10.858-.741-10.858s-7.253 4.437-10.757 5.014c2.844 5.385 5.891 12.607 5.363 20.26.935-2.414 4.805-6.988 4.805-6.988s.863-4.828 1.33-7.428z" fill="#C48147"/><path d="M79.698 56.236c1.43-2.544 1.022-5.423-.913-6.43-1.934-1.006-4.662.241-6.092 2.786-1.43 2.545-1.021 5.424.913 6.43 1.934 1.007 4.662-.24 6.092-2.786z" fill="#1F1207"/><path d="M67.227 41.79c-1.239 2.688-8.674 11.152-10.32 12.022-1.645.87-2.031 1.613-3.413 1.896a44.355 44.355 0 007.659-10.75c1.595-3.412 3.017-4.526 6.074-3.167z" fill="#C48147"/><path d="M59.965 47.186a4.273 4.273 0 00-1.564.64c-.47.315-.868.719-1.169 1.187a4.95 4.95 0 00-.802 3.294 39.913 39.913 0 003.535-5.121z" fill="#000"/><path d="M136.674 132.486H12.854c-7.074 0-12.81 5.518-12.81 12.325 0 6.806 5.736 12.324 12.81 12.324h123.82c7.074 0 12.809-5.518 12.809-12.324 0-6.807-5.735-12.325-12.809-12.325zM136.674 165.351H12.854c-7.074 0-12.81 5.518-12.81 12.325C.045 184.482 5.78 190 12.855 190h123.82c7.074 0 12.809-5.518 12.809-12.324 0-6.807-5.735-12.325-12.809-12.325z" fill="#E5EBF5"/><path d="M16.152 149.289v-9.613h1.324v4.765l4.985-4.765h1.793l-4.195 3.892 4.377 5.721h-1.762l-3.565-4.868-1.633 1.54v3.328h-1.324zM25.354 149.289v-6.964h1.067v1.027c.18-.392.446-.742.78-1.027.23-.157.506-.24.789-.236.449.008.886.14 1.26.38l-.385 1.171a1.866 1.866 0 00-.907-.247 1.19 1.19 0 00-.715.226 1.225 1.225 0 00-.46.647c-.14.446-.208.911-.202 1.377v3.646h-1.227zM34.736 148.436c-.385.335-.83.599-1.313.781-.43.158-.886.238-1.345.236a2.678 2.678 0 01-1.836-.565 1.844 1.844 0 01-.485-.645 1.782 1.782 0 01-.156-.783 1.824 1.824 0 01.235-.934c.157-.273.376-.509.64-.688.27-.172.565-.3.876-.38a9.868 9.868 0 011.067-.185c.723-.07 1.438-.204 2.135-.401v-.308a1.233 1.233 0 00-.053-.549 1.27 1.27 0 00-.288-.478 2.118 2.118 0 00-1.399-.4 2.198 2.198 0 00-1.28.287c-.32.265-.535.628-.609 1.027l-1.195-.154c.076-.435.26-.847.533-1.201.279-.327.65-.57 1.068-.699a4.939 4.939 0 011.633-.246 4.794 4.794 0 011.516.205c.324.104.615.289.843.534.199.23.331.506.384.801a6.1 6.1 0 01.064 1.089v1.571a16.13 16.13 0 00.075 2.054c.056.292.16.573.31.832h-1.282a2.437 2.437 0 01-.138-.801zm-.096-2.598a9.6 9.6 0 01-2.007.441c-.364.041-.722.12-1.068.237a1.06 1.06 0 00-.49.39 1 1 0 00-.076.99c.065.136.16.258.278.355.306.225.684.338 1.068.319.44.006.873-.097 1.26-.298.353-.184.637-.472.81-.822.158-.374.227-.778.203-1.181l.022-.431zM37.287 147.214l1.217-.185c.036.417.239.803.566 1.079.379.267.843.398 1.313.369.443.037.886-.08 1.248-.328.123-.094.224-.212.294-.347a.995.995 0 00.112-.434.696.696 0 00-.09-.358.73.73 0 00-.262-.268 5.762 5.762 0 00-1.26-.401 11.868 11.868 0 01-1.868-.565 1.725 1.725 0 01-.79-.667 1.689 1.689 0 01-.277-.935 1.736 1.736 0 01.224-.863c.147-.262.355-.487.608-.657.24-.154.503-.272.78-.349a3.96 3.96 0 011.067-.134 4.168 4.168 0 011.495.237c.375.115.706.337.95.636.233.32.38.691.427 1.079l-1.196.154a1.177 1.177 0 00-.152-.463 1.222 1.222 0 00-.328-.369 1.746 1.746 0 00-1.068-.308 2.134 2.134 0 00-1.206.267.807.807 0 00-.255.278.774.774 0 00-.097.359.59.59 0 00.15.41c.123.146.285.256.469.319.117 0 .48.144 1.067.298.616.145 1.222.327 1.815.544.33.126.612.344.811.626.21.304.314.663.299 1.027-.004.397-.13.783-.363 1.11a2.329 2.329 0 01-1.067.811 3.98 3.98 0 01-1.527.288 3.531 3.531 0 01-2.135-.565 2.638 2.638 0 01-.97-1.695zM47.438 148.241l.182 1.027a4.526 4.526 0 01-.929.103 2.22 2.22 0 01-1.067-.195 1.245 1.245 0 01-.523-.545 4.106 4.106 0 01-.15-1.386v-4.016h-.896v-.914h.896V140.6l1.228-.709v2.434h1.227v.914H46.18v4.109c-.015.217.007.436.064.647.04.1.116.183.213.236.13.06.273.088.417.082.19-.01.379-.034.565-.072zM48.591 152l-.139-1.109c.23.065.466.099.705.102.225.012.45-.034.651-.133.167-.086.307-.214.406-.37.149-.28.274-.572.373-.873.03-.098.066-.194.107-.287l-2.743-6.984h1.313l1.515 4.036c.192.514.363 1.027.523 1.613.14-.545.31-1.027.502-1.592l1.548-4.057h1.227l-2.754 7.086a15.713 15.713 0 01-.683 1.582 2.36 2.36 0 01-.758.852 1.78 1.78 0 01-1.003.278 2.651 2.651 0 01-.79-.144zM17.124 180.757c1.768 0 3.202-1.38 3.202-3.081 0-1.702-1.434-3.081-3.202-3.081-1.769 0-3.203 1.379-3.203 3.081 0 1.701 1.434 3.081 3.203 3.081zM27.798 180.757c1.769 0 3.202-1.38 3.202-3.081 0-1.702-1.433-3.081-3.202-3.081s-3.202 1.379-3.202 3.081c0 1.701 1.433 3.081 3.202 3.081zM38.472 180.757c1.768 0 3.202-1.38 3.202-3.081 0-1.702-1.434-3.081-3.202-3.081-1.769 0-3.203 1.379-3.203 3.081 0 1.701 1.434 3.081 3.203 3.081zM49.146 180.757c1.769 0 3.202-1.38 3.202-3.081 0-1.702-1.433-3.081-3.202-3.081s-3.202 1.379-3.202 3.081c0 1.701 1.433 3.081 3.202 3.081zM59.82 180.757c1.769 0 3.203-1.38 3.203-3.081 0-1.702-1.434-3.081-3.203-3.081-1.768 0-3.202 1.379-3.202 3.081 0 1.701 1.434 3.081 3.202 3.081zM70.494 180.757c1.769 0 3.203-1.38 3.203-3.081 0-1.702-1.434-3.081-3.203-3.081-1.768 0-3.202 1.379-3.202 3.081 0 1.701 1.434 3.081 3.202 3.081zM81.169 180.757c1.768 0 3.202-1.38 3.202-3.081 0-1.702-1.434-3.081-3.202-3.081-1.769 0-3.203 1.379-3.203 3.081 0 1.701 1.434 3.081 3.203 3.081zM91.843 180.757c1.768 0 3.202-1.38 3.202-3.081 0-1.702-1.434-3.081-3.202-3.081-1.769 0-3.202 1.379-3.202 3.081 0 1.701 1.433 3.081 3.202 3.081zM102.517 180.757c1.768 0 3.202-1.38 3.202-3.081 0-1.702-1.434-3.081-3.202-3.081-1.769 0-3.203 1.379-3.203 3.081 0 1.701 1.434 3.081 3.203 3.081zM113.191 180.757c1.769 0 3.202-1.38 3.202-3.081 0-1.702-1.433-3.081-3.202-3.081s-3.202 1.379-3.202 3.081c0 1.701 1.433 3.081 3.202 3.081z" fill="#9BA0BA"/><defs><linearGradient id="paint0_linear" x1="85.968" y1="113.097" x2="78.739" y2="77.057" gradientUnits="userSpaceOnUse"><stop stop-color="#EBE7E4"/><stop offset=".39" stop-color="#E8E0DB"/><stop offset="1" stop-color="#DFCEC4"/></linearGradient><linearGradient id="paint1_linear" x1="59003.9" y1="28339.9" x2="56939.4" y2="29596.5" gradientUnits="userSpaceOnUse"><stop stop-color="#EBE7E4"/><stop offset=".39" stop-color="#E8E0DB"/><stop offset="1" stop-color="#DFCEC4"/></linearGradient></defs></svg>