<svg xmlns="http://www.w3.org/2000/svg" viewBox="0 0 20 20"><path d="M11 12H9v4h2zm3 6H6a1 1 0 100 2h8a1 1 0 000-2z" fill="#f7931e"/><path d="M14 18H6l.72-1.45a1 1 0 01.9-.55h4.76a1 1 0 01.9.55z" fill="#ffce2e"/><path d="M19 1h-4v1.5h3.5v1a4.52 4.52 0 01-3.26 4.3l-.24.07-.23 1.62.88-.25A6 6 0 0020 3.47V2a1 1 0 00-1-1zM1 1h4v1.5H1.5v1a4.52 4.52 0 003.26 4.3l.24.07.23 1.62-.88-.25A6 6 0 010 3.47V2a1 1 0 011-1z" fill="#f7931e"/><path d="M5 0v8a5 5 0 0010 0V0z" fill="#ffce2e"/><path d="M14 2h-1v6h1z" fill="#fff"/></svg>