<svg xmlns="http://www.w3.org/2000/svg" color="#e8e8e8" width="171.377" height="72.37" viewBox="0 0 171.377 72.37"><path d="M118.23 12.721a1.498 1.498 0 001.389-1.497 1.503 1.503 0 00-1.392-1.494 1.498 1.498 0 00-1.483 2.096 1.499 1.499 0 001.486.895zM122.203 9.723a1.496 1.496 0 001.393-.92 1.501 1.501 0 00-1.957-1.966 1.5 1.5 0 00.564 2.886zM103.733 10.722l.003 1.999 1.999-.003-.003-2 1.994.007.006-1.995-1.994-.006-.003-2-2 .004.004 1.999-1.995-.006.003 1.999z" fill="currentColor"/><path d="M99.093 5.736a52.593 52.593 0 00-2.342 13.97 4 4 0 003.996 3.988c2.845.002 5.657-4.553 7.374-6.984h9.195c1.722 2.426 4.53 6.985 7.37 6.996a4.002 4.002 0 003.997-3.991 52.247 52.247 0 00-2.35-13.962 5.428 5.428 0 00-5.642-3.998 6.006 6.006 0 00-5.185 3.012l-5.585.013a5.996 5.996 0 00-5.209-3.002 5.447 5.447 0 00-3.514.978 5.445 5.445 0 00-2.105 2.98zm5.643-2.496a4.49 4.49 0 013.886 2.248l.428.736.868.005 5.585-.013.868.005.426-.749a4.526 4.526 0 013.9-2.242 4 4 0 014.207 2.93 51.827 51.827 0 012.236 13.515 2.502 2.502 0 01-2.495 2.492c-1.762-.002-4.24-3.583-5.572-5.514l-.58-.834-.454-.638-.77-.001-9.19.014-.769-.001-.45.637c-.137.277-.377.538-.577.83-1.334 1.928-3.838 5.497-5.573 5.509a2.502 2.502 0 01-2.492-2.495 51.349 51.349 0 012.245-13.55 3.937 3.937 0 014.273-2.884zM160.617 4.727c-.197.001-.39.06-.555.17a1.004 1.004 0 00-.15 1.54 1 1 0 10.705-1.71zM149.404 58.617l.024-2.979a1.748 1.748 0 00-1.747-1.746l-1.314-.004-.883-10.613a2.75 2.75 0 001.948-2.606l-.007-3.999a.74.74 0 00-.75-.739l-12.025-.029a.753.753 0 00-.749.746l-.002 3.993a2.758 2.758 0 001.943 2.613l-.88 10.612h-1.305a1.749 1.749 0 00-1.237.511c-.163.162-.29.355-.378.567-.088.212-.133.44-.132.67l.003 2.991a1.747 1.747 0 00.51 1.237c.162.163.356.29.568.378.212.088.44.133.669.131l13.971-.002a1.764 1.764 0 001.773-1.733zM135.42 40.658v-3.247h2.411l.009 2.236a.749.749 0 001.251.488.75.75 0 00.243-.485l-.01-2.236 2.59-.001.01 2.236a.76.76 0 00.744.748.753.753 0 00.749-.745l-.01-2.236 2.492-.005.004 3.238a1.252 1.252 0 01-1.247 1.257h-7.979a1.262 1.262 0 01-1.257-1.247zm1.4 9.23l.547-6.492 6.606.001.202 2.5-4.173-.002L140 47.39h4.307l.536 6.492-8.355-.007.21-2.496 3.971.002.003-1.494zm10.832 8.977l-13.971.002a.25.25 0 01-.247-.245l-.003-2.992a.26.26 0 01.25-.255l1.998-.003 9.973.005 2-.003a.26.26 0 01.255.249l-.01 2.996a.25.25 0 01-.245.247z" fill="currentColor"/><path d="M171.344 17.704l.002-11.972a.476.476 0 01.03-.063.834.834 0 00-.08-.22 1.135 1.135 0 00-.176-.186l-.143-.071-9.98-4.996a.776.776 0 00-.67.002l-9.98 4.99-.031.063a.164.164 0 00-.031.063.55.55 0 00-.174.193.513.513 0 00-.107.215.205.205 0 00-.03.063l-.027.054.003 11.985a.725.725 0 00.365.638l9.978 5.99a.77.77 0 00.354.096.779.779 0 00.348-.095l9.972-5.987a.75.75 0 00.377-.762zM160.582 1.552l8.442 4.18-8.428 5.055-8.423-5.051zm-9.226 15.707V7.027l8.481 5.092V22.35zm9.98 5.086l-.006-10.223 8.482-5.096v10.232z" fill="currentColor"/><path d="M167.609 10.71a1 1 0 00-.998 1.002.996.996 0 10.998-1.002zM165.595 13.742c-.198 0-.391.06-.556.169a1.005 1.005 0 00-.15 1.54 1 1 0 10.706-1.71zM153.637 10.712a1 1 0 00-.997 1.001.996.996 0 10.997-1.001zM163.616 16.701c-.197 0-.39.06-.555.169a1.005 1.005 0 00-.15 1.54 1 1 0 10.705-1.709zM156.626 17.704a.991.991 0 00.068.392.982.982 0 00.543.559.989.989 0 00.78-.002.993.993 0 00.54-.56c.05-.125.072-.26.068-.393a1.014 1.014 0 00-.283-.727 1.013 1.013 0 00-.719-.302 1.011 1.011 0 00-.718.305 1.016 1.016 0 00-.28.727zM69.86 7.018c.732-.195 1.483-.314 2.233-.478l.653-.146a12.715 12.715 0 001.733-.458 2.05 2.05 0 001.262-1.016 2.694 2.694 0 00-.457-2.234c-.144-.228-.301-.45-.459-.674-.157-.223-.463-.597-.678-.883a.288.288 0 00-.345-.092c-.148.05-.548.52-3.73 1.133a29 29 0 00-1.738.333c-.577.128-.769.155-1.14.25-.37.096-.706.164-1.05.273a16.94 16.94 0 00-.982.34 6.313 6.313 0 00-1.736 1.026 5.51 5.51 0 00-.86.902 6.354 6.354 0 00-.466.74 2.07 2.07 0 00-.225.837c.029.405.145.798.342 1.153.196.356.466.664.793.904.202.172.413.333.633.48.649.45 1.334.847 2.048 1.182.726.36 1.452.719 2.223 1.011.77.292 1.424.549 2.15.797l.63.212c.663.216 1.335.415 1.993.663.386.19.842.283 1.241.469.443.163.866.373 1.264.625.252.181.465.411.624.678.158.26.245.557.254.862.009.29-.071.578-.23.824a3.912 3.912 0 01-1.783 1.348 29.168 29.168 0 01-3.148 1.13c-.603.182-1.215.359-1.827.513l-1.872.49c-.617.164-1.26.292-1.868.438l-1.072.227-.635.133-1.34.296-1.537.354-.443.105c-.134.023-.63.146-.259.117.371-.028 1.887-.181 4.739-.555l3.168-.496a62.07 62.07 0 003.924-.78c.366-.086.737-.182 1.103-.29l.729-.209a71.747 71.747 0 003.041-1.05c1.446-.667 2.397-1.145 2.884-2.31.165-.42.229-.874.187-1.324a3.004 3.004 0 00-.402-1.17 4.122 4.122 0 00-.764-.892 8.682 8.682 0 00-1.79-1.231l-.555-.275-.69-.342c-.224-.111-.672-.266-1.017-.38-.886-.306-1.79-.575-2.682-.871a16.588 16.588 0 01-1.491-.549l-.6-.297-.709-.35c-.233-.116-.74-.467-.611-.861.128-.394.396-.395.646-.495a6.87 6.87 0 01.693-.137zM38.626 19.709a1.748 1.748 0 00-1.746-1.746h-1.306l-.896-10.608A2.75 2.75 0 0036.63 4.74L36.619.75a.738.738 0 00-.745-.748L23.902 0a.756.756 0 00-.748.745l.002 3.985a2.741 2.741 0 001.942 2.613l-.88 10.612h-1.305a1.74 1.74 0 00-1.746 1.747l-.002 3a1.75 1.75 0 001.746 1.747l13.971-.002A1.758 1.758 0 0038.63 22.7zM24.646 4.742l.01-3.242 2.4-.006.01 2.236a.741.741 0 00.75.74.752.752 0 00.748-.746l-.009-2.236 2.612.02.009 2.237a.755.755 0 001.287.531.753.753 0 00.22-.533l-.009-2.236h2.5l-.032 3.242a1.245 1.245 0 01-.766 1.154 1.24 1.24 0 01-.477.094l-7.983-.036a1.26 1.26 0 01-1.27-1.22zm1.4 9.23l.52-6.438h6.605l.207 2.49-4.168-.054-.003 1.493 4.302.01.54 6.483-8.35.006.2-2.5 3.972.001.003-1.493zm10.831 8.977l-13.97.002a.25.25 0 01-.247-.245l-.004-2.992a.259.259 0 01.25-.256l1.994.006 9.978-.004 1.999-.003a.26.26 0 01.098.02.246.246 0 01.153.239l-.006 2.987a.227.227 0 01-.148.232.235.235 0 01-.097.015zM19.944 50.864a3.181 3.181 0 00-.358-1.17 3.894 3.894 0 00-.773-.896 8.233 8.233 0 00-1.789-1.232l-.555-.275-.69-.341c-.323-.16-.672-.266-1.008-.377-.887-.305-1.787-.583-2.682-.87a21.68 21.68 0 01-1.487-.558l-.61-.301-.708-.35c-.287-.143-.73-.463-.603-.857.129-.394.397-.395.647-.495.231-.095.47-.17.715-.226a25.27 25.27 0 012.234-.478l.652-.146a12.636 12.636 0 001.734-.459 2 2 0 001.261-1.015 2.634 2.634 0 00-.447-2.23l-.463-.687c-.216-.308-.463-.597-.679-.883a.298.298 0 00-.35-.084c-.147.05-.534.517-3.716 1.129-.585.1-1.206.183-1.747.329-.375.082-.76.16-1.144.26-.384.099-.706.163-1.04.276-.336.113-.662.208-.983.34a6.152 6.152 0 00-1.736 1.026 4.93 4.93 0 00-.864.889c-.171.24-.325.491-.462.753a1.76 1.76 0 00-.22.828 2.762 2.762 0 001.037 2.12l.632.48c.653.444 1.34.836 2.053 1.173.726.36 1.452.72 2.213 1.007.762.287 1.43.562 2.159.8l.622.208c.659.226 1.34.429 1.993.663.386.191.838.292 1.25.474.433.178.846.4 1.232.666.252.18.465.406.629.668.16.262.252.56.263.867.007.294-.074.585-.234.833a3.92 3.92 0 01-1.783 1.348 29.326 29.326 0 01-3.149 1.13c-.612.178-1.215.359-1.831.522l-1.872.49c-.621.15-1.26.292-1.863.428l-1.073.228-.639.141-1.336.287-1.546.35-.442.106c-.13.036-.621.15-.255.13.367-.02 1.887-.182 4.739-.555 1.059-.179 2.114-.326 3.173-.505a57.548 57.548 0 003.91-.775l1.112-.287.72-.213a62.262 62.262 0 003.041-1.05c1.446-.667 2.406-1.14 2.884-2.31.181-.416.26-.87.232-1.324zM100.752 40.657a1 1 0 00-.998 1 1.003 1.003 0 00.992.882.997.997 0 00.994-.88 1.002 1.002 0 00-.988-1.002zM93.759 46.646c-.198 0-.392.06-.556.169a1.004 1.004 0 00-.15 1.54 1 1 0 10.706-1.71z" fill="currentColor"/><path d="M100.404 60.268c.104.063.22.098.34.102a.795.795 0 00.35-.095l9.98-5.983a.784.784 0 00.328-.663l.082-12 .027-.053-.018-.076a.908.908 0 00-.077-.228.653.653 0 00-.171-.196l-.134-.067-10.002-4.951a.738.738 0 00-.67.002l-9.98 4.99-.027.054a.476.476 0 01-.031.063.886.886 0 00-.276.4l-.036.071a.153.153 0 00-.026.054l-.002 11.972a.74.74 0 00.364.638l9.98 5.989zM110 53.17l-8.481 5.096V48.033l8.477-5.087zm-9.22-15.723l8.441 4.179-8.428 5.055-8.423-5.051zm-9.285 15.756V42.97l8.481 5.091.005 10.224z" fill="currentColor"/><path d="M96.76 53.633a.996.996 0 101.993-.01.996.996 0 00-1.993.01zM105.737 51.638c.198 0 .391-.06.556-.169a1.005 1.005 0 00.15-1.54 1 1 0 10-.706 1.71zM107.71 48.688c.199 0 .392-.06.557-.169a1.004 1.004 0 00.15-1.54.996.996 0 00-1.54.154 1.002 1.002 0 00.834 1.555zM102.744 53.627a.982.982 0 00.053.405.992.992 0 00.542.587 1.012 1.012 0 00.799.002.993.993 0 00.6-.988 1.001 1.001 0 00-1.676-.664 1.002 1.002 0 00-.318.658zM58.333 48.646a1.498 1.498 0 001.484-2.096 1.5 1.5 0 10-1.483 2.097zM62.324 45.656a1.496 1.496 0 001.393-.92 1.5 1.5 0 10-1.393.92z" fill="currentColor"/><path d="M36.886 55.636a3.997 3.997 0 003.982 3.991c2.85-.007 5.658-4.552 7.379-6.992l9.203.004c1.718 2.435 4.531 6.986 7.371 6.997a3.997 3.997 0 003.987-3.996 52.63 52.63 0 00-2.332-13.976 5.44 5.44 0 00-5.646-3.989 5.995 5.995 0 00-5.193 3.008l-5.586.013a6.005 6.005 0 00-5.204-3.011 5.44 5.44 0 00-5.66 3.971 52.14 52.14 0 00-2.301 13.98zm7.976-16.471a4.54 4.54 0 013.886 2.247l.432.75h.859l5.585-.012h.86l.439-.753a4.485 4.485 0 013.877-2.242 3.927 3.927 0 014.207 2.93 50.99 50.99 0 012.24 13.507 2.501 2.501 0 01-2.499 2.5c-1.762-.002-4.236-3.592-5.563-5.51l-.584-.847-.45-.624-.778-.006h-9.195l-.783.003-.444.628-.579.83c-1.32 1.923-3.833 5.489-5.563 5.514a2.502 2.502 0 01-2.492-2.495 51.558 51.558 0 012.245-13.55 4.005 4.005 0 014.317-2.862z" fill="currentColor"/><path d="M43.867 46.65l.003 2h1.986l.006-1.994 1.999-.003-.003-1.999-2 .003.007-1.995-2 .003v1.986l-1.99.008-.006 1.995z" fill="currentColor"/></svg>